<mxfile host="app.diagrams.net" agent="Mozilla/5.0 (Windows NT 10.0; Win64; x64) AppleWebKit/537.36 (KHTML, like Gecko) Chrome/128.0.0.0 Safari/537.36 Edg/128.0.0.0" version="24.7.14" pages="7">
  <diagram id="Zt_AhZS_BfjcnbfXVO2K" name="分层设计">
    <mxGraphModel dx="1163" dy="486" grid="1" gridSize="10" guides="1" tooltips="1" connect="1" arrows="1" fold="1" page="0" pageScale="1" pageWidth="827" pageHeight="1169" math="0" shadow="0">
      <root>
        <mxCell id="0" />
        <mxCell id="1" parent="0" />
        <mxCell id="2AvN4MpyySH6KK9JV9uK-8" style="edgeStyle=orthogonalEdgeStyle;rounded=0;orthogonalLoop=1;jettySize=auto;html=1;entryX=0.5;entryY=0;entryDx=0;entryDy=0;" edge="1" parent="1" source="JOnSRcAMdYpa6WsVAIFI-1" target="jbsED-bb_58RB8Xt85tq-3">
          <mxGeometry relative="1" as="geometry">
            <mxPoint x="300" y="280" as="targetPoint" />
            <Array as="points">
              <mxPoint x="410" y="190" />
              <mxPoint x="410" y="280" />
              <mxPoint x="300" y="280" />
            </Array>
          </mxGeometry>
        </mxCell>
        <mxCell id="JOnSRcAMdYpa6WsVAIFI-1" value="前端" style="whiteSpace=wrap;html=1;fillColor=#3399FF;" parent="1" vertex="1">
          <mxGeometry x="200" y="180" width="200" height="20" as="geometry" />
        </mxCell>
        <mxCell id="JOnSRcAMdYpa6WsVAIFI-2" value="中间层" style="whiteSpace=wrap;html=1;fillColor=#3399FF;" parent="1" vertex="1">
          <mxGeometry x="200" y="240" width="200" height="20" as="geometry" />
        </mxCell>
        <mxCell id="JOnSRcAMdYpa6WsVAIFI-3" value="网关" style="whiteSpace=wrap;html=1;strokeColor=#000000;fillColor=#FFCCCC;" parent="1" vertex="1">
          <mxGeometry x="240" y="300" width="120" height="20" as="geometry" />
        </mxCell>
        <mxCell id="jbsED-bb_58RB8Xt85tq-18" style="edgeStyle=orthogonalEdgeStyle;rounded=0;orthogonalLoop=1;jettySize=auto;html=1;entryX=0.5;entryY=1;entryDx=0;entryDy=0;" edge="1" parent="1" source="jbsED-bb_58RB8Xt85tq-1" target="jbsED-bb_58RB8Xt85tq-2">
          <mxGeometry relative="1" as="geometry">
            <mxPoint x="140" y="330" as="targetPoint" />
            <Array as="points">
              <mxPoint x="140" y="370" />
            </Array>
          </mxGeometry>
        </mxCell>
        <mxCell id="jbsED-bb_58RB8Xt85tq-1" value="后端" style="whiteSpace=wrap;html=1;fillColor=#3399FF;" vertex="1" parent="1">
          <mxGeometry x="200" y="360" width="200" height="20" as="geometry" />
        </mxCell>
        <mxCell id="jbsED-bb_58RB8Xt85tq-19" style="edgeStyle=orthogonalEdgeStyle;rounded=0;orthogonalLoop=1;jettySize=auto;html=1;entryX=0;entryY=0.5;entryDx=0;entryDy=0;" edge="1" parent="1" source="jbsED-bb_58RB8Xt85tq-2" target="JOnSRcAMdYpa6WsVAIFI-2">
          <mxGeometry relative="1" as="geometry">
            <mxPoint x="140" y="250" as="targetPoint" />
          </mxGeometry>
        </mxCell>
        <mxCell id="jbsED-bb_58RB8Xt85tq-20" style="edgeStyle=orthogonalEdgeStyle;rounded=0;orthogonalLoop=1;jettySize=auto;html=1;entryX=0;entryY=0.5;entryDx=0;entryDy=0;" edge="1" parent="1" source="jbsED-bb_58RB8Xt85tq-2" target="JOnSRcAMdYpa6WsVAIFI-1">
          <mxGeometry relative="1" as="geometry">
            <mxPoint x="140" y="190" as="targetPoint" />
          </mxGeometry>
        </mxCell>
        <mxCell id="jbsED-bb_58RB8Xt85tq-2" value="消息中心" style="whiteSpace=wrap;html=1;strokeColor=#000000;fillColor=#FFCCCC;" vertex="1" parent="1">
          <mxGeometry x="80" y="300" width="120" height="20" as="geometry" />
        </mxCell>
        <mxCell id="jbsED-bb_58RB8Xt85tq-3" value="网关" style="whiteSpace=wrap;html=1;strokeColor=#000000;fillColor=#FFCCCC;" vertex="1" parent="1">
          <mxGeometry x="240" y="300" width="120" height="20" as="geometry" />
        </mxCell>
        <mxCell id="jbsED-bb_58RB8Xt85tq-4" value="错误码编码" style="whiteSpace=wrap;html=1;strokeColor=#000000;fillColor=#FFCCCC;" vertex="1" parent="1">
          <mxGeometry x="400" y="300" width="120" height="20" as="geometry" />
        </mxCell>
        <mxCell id="jbsED-bb_58RB8Xt85tq-5" value="数据库" style="rhombus;whiteSpace=wrap;html=1;strokeColor=#000000;fillColor=#CC99FF;shadow=1;" vertex="1" parent="1">
          <mxGeometry x="170" y="420" width="80" height="80" as="geometry" />
        </mxCell>
        <mxCell id="jbsED-bb_58RB8Xt85tq-6" value="日志" style="rhombus;whiteSpace=wrap;html=1;fillColor=#CC99FF;shadow=1;" vertex="1" parent="1">
          <mxGeometry x="80" y="420" width="80" height="80" as="geometry" />
        </mxCell>
        <mxCell id="jbsED-bb_58RB8Xt85tq-7" value="腾讯云SDK" style="rhombus;whiteSpace=wrap;html=1;fillColor=#CC99FF;shadow=1;" vertex="1" parent="1">
          <mxGeometry x="260" y="420" width="80" height="80" as="geometry" />
        </mxCell>
        <mxCell id="jbsED-bb_58RB8Xt85tq-8" value="mock数据" style="rhombus;whiteSpace=wrap;html=1;strokeColor=#000000;fillColor=#CC99FF;shadow=1;" vertex="1" parent="1">
          <mxGeometry x="350" y="420" width="80" height="80" as="geometry" />
        </mxCell>
        <mxCell id="jbsED-bb_58RB8Xt85tq-9" value="&lt;font style=&quot;font-size: 24px;&quot;&gt;......&lt;/font&gt;" style="text;html=1;align=center;verticalAlign=middle;resizable=0;points=[];autosize=1;strokeColor=none;fillColor=none;shadow=1;" vertex="1" parent="1">
          <mxGeometry x="520" y="440" width="60" height="40" as="geometry" />
        </mxCell>
        <mxCell id="2AvN4MpyySH6KK9JV9uK-4" style="edgeStyle=orthogonalEdgeStyle;rounded=0;orthogonalLoop=1;jettySize=auto;html=1;exitX=0.5;exitY=0;exitDx=0;exitDy=0;entryX=0.5;entryY=1;entryDx=0;entryDy=0;" edge="1" parent="1">
          <mxGeometry relative="1" as="geometry">
            <mxPoint x="280" y="400" as="sourcePoint" />
            <mxPoint x="280" y="380" as="targetPoint" />
          </mxGeometry>
        </mxCell>
        <mxCell id="jbsED-bb_58RB8Xt85tq-11" value="&lt;span style=&quot;text-wrap: nowrap;&quot;&gt;插件层&lt;/span&gt;" style="whiteSpace=wrap;html=1;fillColor=#3399FF;" vertex="1" parent="1">
          <mxGeometry x="80" y="400" width="440" height="20" as="geometry" />
        </mxCell>
        <mxCell id="jbsED-bb_58RB8Xt85tq-12" value="&lt;span style=&quot;text-wrap: nowrap;&quot;&gt;单元测试&lt;/span&gt;" style="whiteSpace=wrap;html=1;fillColor=#FF9933;" vertex="1" parent="1">
          <mxGeometry x="80" y="520" width="440" height="20" as="geometry" />
        </mxCell>
        <mxCell id="jbsED-bb_58RB8Xt85tq-16" value="&lt;font style=&quot;font-size: 18px;&quot;&gt;&lt;b style=&quot;&quot;&gt;客户端分层设计&lt;/b&gt;&lt;/font&gt;" style="text;html=1;align=center;verticalAlign=middle;resizable=0;points=[];autosize=1;strokeColor=none;fillColor=none;shadow=0;" vertex="1" parent="1">
          <mxGeometry x="80" y="80" width="150" height="40" as="geometry" />
        </mxCell>
        <mxCell id="jbsED-bb_58RB8Xt85tq-17" value="版本管理" style="rhombus;whiteSpace=wrap;html=1;strokeColor=#000000;fillColor=#CC99FF;shadow=1;" vertex="1" parent="1">
          <mxGeometry x="440" y="420" width="80" height="80" as="geometry" />
        </mxCell>
        <mxCell id="2AvN4MpyySH6KK9JV9uK-6" style="edgeStyle=orthogonalEdgeStyle;rounded=0;orthogonalLoop=1;jettySize=auto;html=1;exitX=0.75;exitY=1;exitDx=0;exitDy=0;entryX=0.614;entryY=0;entryDx=0;entryDy=0;entryPerimeter=0;" edge="1" parent="1">
          <mxGeometry relative="1" as="geometry">
            <mxPoint x="320" y="380" as="sourcePoint" />
            <mxPoint x="320" y="400" as="targetPoint" />
          </mxGeometry>
        </mxCell>
        <mxCell id="2AvN4MpyySH6KK9JV9uK-9" style="edgeStyle=orthogonalEdgeStyle;rounded=0;orthogonalLoop=1;jettySize=auto;html=1;entryX=0.5;entryY=0;entryDx=0;entryDy=0;entryPerimeter=0;" edge="1" parent="1" source="jbsED-bb_58RB8Xt85tq-3" target="jbsED-bb_58RB8Xt85tq-1">
          <mxGeometry relative="1" as="geometry" />
        </mxCell>
      </root>
    </mxGraphModel>
  </diagram>
  <diagram id="Q_RAgCGkLKjbz_nhD4RZ" name="fend">
    <mxGraphModel dx="3113" dy="1867" grid="1" gridSize="10" guides="1" tooltips="1" connect="1" arrows="1" fold="1" page="0" pageScale="1" pageWidth="827" pageHeight="1169" math="0" shadow="0">
      <root>
        <mxCell id="0" />
        <mxCell id="1" parent="0" />
        <mxCell id="vag4PeF_KKS5jh6nKsA_-8" value="&lt;div style=&quot;&quot;&gt;&lt;span style=&quot;background-color: initial;&quot;&gt;fend/uicom（&lt;/span&gt;&lt;span style=&quot;text-wrap: nowrap; background-color: initial;&quot;&gt;&lt;font color=&quot;#ff0000&quot;&gt;uibasedialog.h/.cpp/.ui&lt;/font&gt;&lt;/span&gt;&lt;span style=&quot;background-color: initial;&quot;&gt;）&lt;/span&gt;&lt;b style=&quot;background-color: initial;&quot;&gt;UiBaseDialog&lt;/b&gt;&lt;span style=&quot;background-color: initial;&quot;&gt;: public&amp;nbsp;&lt;/span&gt;&lt;span style=&quot;background-color: initial;&quot;&gt;QDialog&lt;/span&gt;&lt;/div&gt;" style="swimlane;fontStyle=0;childLayout=stackLayout;horizontal=1;startSize=40;fillColor=none;horizontalStack=0;resizeParent=1;resizeParentMax=0;resizeLast=0;collapsible=1;marginBottom=0;whiteSpace=wrap;html=1;strokeColor=default;align=center;verticalAlign=middle;fontFamily=Helvetica;fontSize=16;fontColor=default;movable=1;resizable=1;rotatable=1;deletable=1;editable=1;locked=0;connectable=1;" parent="1" vertex="1">
          <mxGeometry x="-1010" y="-900" width="670" height="640" as="geometry">
            <mxRectangle x="-850" y="-1570" width="420" height="30" as="alternateBounds" />
          </mxGeometry>
        </mxCell>
        <mxCell id="vag4PeF_KKS5jh6nKsA_-9" value="&lt;div&gt;&lt;div style=&quot;orphans: 4;&quot;&gt;&lt;font face=&quot;Open Sans, Clear Sans, Helvetica Neue, Helvetica, Arial, Segoe UI Emoji, sans-serif&quot; color=&quot;#333333&quot;&gt;&lt;span style=&quot;white-space-collapse: preserve;&quot;&gt;include：0&lt;/span&gt;&lt;/font&gt;&lt;/div&gt;&lt;div style=&quot;orphans: 2;&quot;&gt;&lt;span style=&quot;color: rgb(51, 51, 51); font-family: &amp;quot;Open Sans&amp;quot;, &amp;quot;Clear Sans&amp;quot;, &amp;quot;Helvetica Neue&amp;quot;, Helvetica, Arial, &amp;quot;Segoe UI Emoji&amp;quot;, sans-serif; orphans: 4; white-space-collapse: preserve;&quot;&gt;通用窗口，应该包含的功能：【1】所有窗口都需要的基本功能（窗口icon、标题）&lt;/span&gt;&lt;span style=&quot;background-color: initial;&quot;&gt;setLogo、&lt;/span&gt;&lt;span style=&quot;background-color: initial;&quot;&gt;setTitle&lt;/span&gt;&lt;span style=&quot;background-color: initial; white-space-collapse: preserve; color: rgb(51, 51, 51); font-family: &amp;quot;Open Sans&amp;quot;, &amp;quot;Clear Sans&amp;quot;, &amp;quot;Helvetica Neue&amp;quot;, Helvetica, Arial, &amp;quot;Segoe UI Emoji&amp;quot;, sans-serif; orphans: 4;&quot;&gt;【2】按钮组：预定义（如最大化/最小化/关闭按钮：&lt;/span&gt;&lt;span style=&quot;background-color: initial; white-space-collapse: preserve;&quot;&gt;&lt;font face=&quot;Open Sans, Clear Sans, Helvetica Neue, Helvetica, Arial, Segoe UI Emoji, sans-serif&quot; color=&quot;#333333&quot;&gt;addCloseButton、&lt;/font&gt;&lt;/span&gt;&lt;span style=&quot;background-color: initial; white-space-collapse: preserve;&quot;&gt;&lt;font face=&quot;Open Sans, Clear Sans, Helvetica Neue, Helvetica, Arial, Segoe UI Emoji, sans-serif&quot; color=&quot;#333333&quot;&gt;addMinButton、&lt;/font&gt;&lt;/span&gt;&lt;span style=&quot;background-color: initial; white-space-collapse: preserve;&quot;&gt;&lt;font face=&quot;Open Sans, Clear Sans, Helvetica Neue, Helvetica, Arial, Segoe UI Emoji, sans-serif&quot; color=&quot;#333333&quot;&gt;addMaxButton&lt;/font&gt;&lt;/span&gt;&lt;span style=&quot;background-color: initial; white-space-collapse: preserve; color: rgb(51, 51, 51); font-family: &amp;quot;Open Sans&amp;quot;, &amp;quot;Clear Sans&amp;quot;, &amp;quot;Helvetica Neue&amp;quot;, Helvetica, Arial, &amp;quot;Segoe UI Emoji&amp;quot;, sans-serif; orphans: 4;&quot;&gt;）、自定义（用户希望多出来的按钮如分享按钮：&lt;/span&gt;&lt;span style=&quot;color: rgb(51, 51, 51); font-family: &amp;quot;Open Sans&amp;quot;, &amp;quot;Clear Sans&amp;quot;, &amp;quot;Helvetica Neue&amp;quot;, Helvetica, Arial, &amp;quot;Segoe UI Emoji&amp;quot;, sans-serif; white-space-collapse: preserve; background-color: initial;&quot;&gt;addButton、&lt;/span&gt;&lt;span style=&quot;background-color: initial; white-space-collapse: preserve;&quot;&gt;&lt;font face=&quot;Open Sans, Clear Sans, Helvetica Neue, Helvetica, Arial, Segoe UI Emoji, sans-serif&quot; color=&quot;#333333&quot;&gt;setAllButtonSize、&lt;/font&gt;&lt;/span&gt;&lt;span style=&quot;background-color: initial; white-space-collapse: preserve; color: rgb(51, 51, 51); font-family: &amp;quot;Open Sans&amp;quot;, &amp;quot;Clear Sans&amp;quot;, &amp;quot;Helvetica Neue&amp;quot;, Helvetica, Arial, &amp;quot;Segoe UI Emoji&amp;quot;, sans-serif; orphans: 4;&quot;&gt;）&lt;/span&gt;&lt;span style=&quot;background-color: initial; white-space-collapse: preserve; color: rgb(51, 51, 51); font-family: &amp;quot;Open Sans&amp;quot;, &amp;quot;Clear Sans&amp;quot;, &amp;quot;Helvetica Neue&amp;quot;, Helvetica, Arial, &amp;quot;Segoe UI Emoji&amp;quot;, sans-serif; orphans: 4;&quot;&gt;【3】拖动与调整窗口大小 &lt;/span&gt;&lt;span style=&quot;background-color: initial; white-space-collapse: preserve;&quot;&gt;&lt;font face=&quot;Open Sans, Clear Sans, Helvetica Neue, Helvetica, Arial, Segoe UI Emoji, sans-serif&quot; color=&quot;#333333&quot;&gt;mousePressEvent、&lt;/font&gt;&lt;/span&gt;&lt;span style=&quot;background-color: initial; white-space-collapse: preserve;&quot;&gt;&lt;font face=&quot;Open Sans, Clear Sans, Helvetica Neue, Helvetica, Arial, Segoe UI Emoji, sans-serif&quot; color=&quot;#333333&quot;&gt;mouseMoveEvent&lt;/font&gt;&lt;/span&gt;&lt;span style=&quot;background-color: initial; color: rgb(51, 51, 51); font-family: &amp;quot;Open Sans&amp;quot;, &amp;quot;Clear Sans&amp;quot;, &amp;quot;Helvetica Neue&amp;quot;, Helvetica, Arial, &amp;quot;Segoe UI Emoji&amp;quot;, sans-serif; orphans: 4; white-space-collapse: preserve;&quot;&gt;。&lt;/span&gt;&lt;/div&gt;&lt;div&gt;&lt;span style=&quot;color: rgb(51, 51, 51); font-family: &amp;quot;Open Sans&amp;quot;, &amp;quot;Clear Sans&amp;quot;, &amp;quot;Helvetica Neue&amp;quot;, Helvetica, Arial, &amp;quot;Segoe UI Emoji&amp;quot;, sans-serif; orphans: 4; white-space-collapse: preserve;&quot;&gt;&lt;br&gt;&lt;/span&gt;&lt;/div&gt;&lt;div&gt;# m_ui;&amp;nbsp;&lt;span style=&quot;background-color: initial;&quot;&gt;Ui::UiBaseDialog *&lt;/span&gt;&lt;/div&gt;&lt;div&gt;- m_start;&amp;nbsp;&lt;span style=&quot;background-color: initial;&quot;&gt;QPoint&lt;/span&gt;&lt;span style=&quot;background-color: initial;&quot;&gt;&amp;nbsp;&lt;/span&gt;&lt;/div&gt;&lt;div&gt;- m_sz = 20; int&amp;nbsp;&lt;/div&gt;&lt;/div&gt;&lt;div&gt;&lt;br&gt;&lt;/div&gt;&lt;div&gt;+&amp;nbsp;UiBaseDialog(QWidget *parent = nullptr);&lt;/div&gt;&lt;div&gt;+&amp;nbsp;~UiBaseDialog();&lt;/div&gt;&lt;div&gt;+ setTitle(const QString&amp;amp; title);&amp;nbsp;&lt;span style=&quot;background-color: initial;&quot;&gt;void&lt;/span&gt;&lt;span style=&quot;background-color: initial;&quot;&gt;&amp;nbsp;&lt;/span&gt;&lt;/div&gt;&lt;div&gt;+ setLogo(const QString&amp;amp; path);&amp;nbsp;&lt;span style=&quot;background-color: initial;&quot;&gt;void&lt;/span&gt;&lt;span style=&quot;background-color: initial;&quot;&gt;&amp;nbsp;&lt;/span&gt;&lt;/div&gt;&lt;div&gt;+ addMinButton(const QString&amp;amp; path, const QString&amp;amp; hoverPath);&amp;nbsp;&lt;span style=&quot;background-color: initial;&quot;&gt;void&lt;/span&gt;&lt;span style=&quot;background-color: initial;&quot;&gt;&amp;nbsp;&lt;/span&gt;&lt;/div&gt;&lt;div&gt;+&amp;nbsp;&lt;span style=&quot;background-color: initial;&quot;&gt;addMaxButton(const QString&amp;amp; maxPath, const QString&amp;amp; maxPathHover,&lt;/span&gt;&lt;/div&gt;&lt;div&gt;&amp;nbsp; &amp;nbsp;&lt;span style=&quot;white-space: pre;&quot;&gt;&#x9;&lt;/span&gt;&lt;span style=&quot;white-space: pre;&quot;&gt;&#x9;&lt;/span&gt;&lt;span style=&quot;white-space: pre;&quot;&gt;&#x9;&lt;/span&gt;&amp;nbsp; &amp;nbsp; const QString&amp;amp; normalPath, const QString&amp;amp; normalPathHover);&amp;nbsp;&lt;span style=&quot;background-color: initial;&quot;&gt;void&lt;/span&gt;&lt;span style=&quot;background-color: initial;&quot;&gt;&amp;nbsp;&lt;/span&gt;&lt;/div&gt;&lt;div&gt;+ addButton(const QString&amp;amp; path, const QString&amp;amp; hoverPath);&amp;nbsp;&lt;span style=&quot;background-color: initial;&quot;&gt;QPushButton*&lt;/span&gt;&lt;/div&gt;&lt;div&gt;+ setButtonImage(QPushButton* btn, const QString&amp;amp; path, const QString&amp;amp; hoverPath);&amp;nbsp;&lt;span style=&quot;background-color: initial;&quot;&gt;void&lt;/span&gt;&lt;span style=&quot;background-color: initial;&quot;&gt;&amp;nbsp;&lt;/span&gt;&lt;/div&gt;&lt;div&gt;+ setAllButtonSize(int w=20);&amp;nbsp;&lt;span style=&quot;background-color: initial;&quot;&gt;void&lt;/span&gt;&lt;/div&gt;&lt;div&gt;+ setKeyDisabled();&amp;nbsp;&lt;span style=&quot;background-color: initial;&quot;&gt;void&lt;/span&gt;&lt;/div&gt;&lt;div&gt;&lt;div&gt;+ addTitleLine(int w=2);&amp;nbsp;&lt;span style=&quot;background-color: initial;&quot;&gt;void&lt;/span&gt;&lt;/div&gt;&lt;div&gt;&lt;br&gt;&lt;/div&gt;&lt;div&gt;#&amp;nbsp;&lt;i&gt;mousePressEvent&lt;/i&gt;(QMouseEvent* event);&amp;nbsp;&lt;span style=&quot;background-color: initial;&quot;&gt;void&lt;/span&gt;&lt;span style=&quot;background-color: initial;&quot;&gt;&amp;nbsp;&lt;/span&gt;&lt;/div&gt;&lt;div&gt;#&amp;nbsp;&lt;i&gt;mouseMoveEvent&lt;/i&gt;(QMouseEvent* event);&amp;nbsp;&lt;span style=&quot;background-color: initial;&quot;&gt;void&lt;/span&gt;&lt;span style=&quot;background-color: initial;&quot;&gt;&amp;nbsp;&lt;/span&gt;&lt;/div&gt;&lt;div&gt;#&amp;nbsp;&lt;i&gt;eventFilter&lt;/i&gt;(QObject *obj, QEvent * event);&amp;nbsp;&lt;span style=&quot;background-color: initial;&quot;&gt;bool&lt;/span&gt;&lt;span style=&quot;background-color: initial;&quot;&gt;&amp;nbsp;&lt;/span&gt;&lt;/div&gt;&lt;div&gt;# body();&amp;nbsp;&lt;span style=&quot;background-color: initial;&quot;&gt;QWidget*&lt;/span&gt;&lt;span style=&quot;background-color: initial;&quot;&gt;&amp;nbsp;&lt;/span&gt;&lt;/div&gt;&lt;div&gt;&lt;br&gt;&lt;/div&gt;&lt;div&gt;- addCloseButton(const QString&amp;amp; path, const QString&amp;amp; hoverPath);&lt;span style=&quot;background-color: initial;&quot;&gt;void&lt;/span&gt;&lt;span style=&quot;background-color: initial;&quot;&gt;&amp;nbsp;&lt;/span&gt;&lt;/div&gt;&lt;div&gt;- addWidget(QWidget* w);&amp;nbsp;&lt;span style=&quot;background-color: initial;&quot;&gt;void&lt;/span&gt;&lt;span style=&quot;background-color: initial;&quot;&gt;&amp;nbsp;&lt;/span&gt;&lt;/div&gt;&lt;/div&gt;" style="text;strokeColor=none;fillColor=none;align=left;verticalAlign=top;spacingLeft=4;spacingRight=4;overflow=hidden;rotatable=1;points=[[0,0.5],[1,0.5]];portConstraint=eastwest;whiteSpace=wrap;html=1;fontFamily=Helvetica;fontSize=16;fontColor=default;movable=1;resizable=1;deletable=1;editable=1;locked=0;connectable=1;" parent="vag4PeF_KKS5jh6nKsA_-8" vertex="1">
          <mxGeometry y="40" width="670" height="600" as="geometry" />
        </mxCell>
        <mxCell id="szkKv_FyPF_dywsFow12-1" value="fend/uicom（&lt;font color=&quot;#ff0000&quot;&gt;uiqosdialog.h/.cpp/.ui&lt;/font&gt;）&lt;b&gt;UiQosDialog&lt;/b&gt;: public UiBaseDialog" style="swimlane;fontStyle=0;childLayout=stackLayout;horizontal=1;startSize=30;fillColor=none;horizontalStack=0;resizeParent=1;resizeParentMax=0;resizeLast=0;collapsible=1;marginBottom=0;whiteSpace=wrap;html=1;strokeColor=default;align=center;verticalAlign=middle;fontFamily=Helvetica;fontSize=16;fontColor=default;movable=1;resizable=1;rotatable=1;deletable=1;editable=1;locked=0;connectable=1;" parent="1" vertex="1">
          <mxGeometry x="-200" y="-900" width="560" height="190" as="geometry">
            <mxRectangle x="-200" y="-1720" width="460" height="30" as="alternateBounds" />
          </mxGeometry>
        </mxCell>
        <mxCell id="szkKv_FyPF_dywsFow12-2" value="&lt;div&gt;&lt;span style=&quot;box-sizing: border-box; color: rgb(51, 51, 51); font-family: &amp;quot;Open Sans&amp;quot;, &amp;quot;Clear Sans&amp;quot;, &amp;quot;Helvetica Neue&amp;quot;, Helvetica, Arial, &amp;quot;Segoe UI Emoji&amp;quot;, sans-serif; orphans: 4; white-space-collapse: preserve;&quot;&gt;&lt;span style=&quot;background-color: initial;&quot;&gt;include：2&lt;/span&gt;&lt;/span&gt;&lt;/div&gt;&lt;div&gt;&lt;span style=&quot;box-sizing: border-box; color: rgb(51, 51, 51); font-family: &amp;quot;Open Sans&amp;quot;, &amp;quot;Clear Sans&amp;quot;, &amp;quot;Helvetica Neue&amp;quot;, Helvetica, Arial, &amp;quot;Segoe UI Emoji&amp;quot;, sans-serif; orphans: 4; white-space-collapse: preserve;&quot;&gt;&lt;span style=&quot;background-color: initial;&quot;&gt;当前产品通用窗口&lt;/span&gt;&lt;span style=&quot;background-color: initial;&quot;&gt;，（&lt;/span&gt;继承通用窗口，通用组件开发-基础窗口）&lt;/span&gt;&lt;br&gt;&lt;/div&gt;&lt;div&gt;&lt;br&gt;&lt;/div&gt;&lt;div&gt;- ui;&amp;nbsp;&lt;span style=&quot;background-color: initial;&quot;&gt;Ui::UiQosDialog *&lt;/span&gt;&lt;/div&gt;&lt;div&gt;&lt;br&gt;&lt;/div&gt;&lt;div&gt;+&amp;nbsp;&lt;span style=&quot;background-color: initial;&quot;&gt;UiQosDialog(QWidget *parent = nullptr);&amp;nbsp;&lt;/span&gt;&lt;span style=&quot;background-color: initial;&quot;&gt;explicit&lt;/span&gt;&lt;span style=&quot;background-color: initial;&quot;&gt;&amp;nbsp;&lt;/span&gt;&lt;/div&gt;&lt;div&gt;+ ~UiQosDialog();&lt;/div&gt;" style="text;strokeColor=none;fillColor=none;align=left;verticalAlign=top;spacingLeft=4;spacingRight=4;overflow=hidden;rotatable=1;points=[[0,0.5],[1,0.5]];portConstraint=eastwest;whiteSpace=wrap;html=1;fontFamily=Helvetica;fontSize=16;fontColor=default;movable=1;resizable=1;deletable=1;editable=1;locked=0;connectable=1;" parent="szkKv_FyPF_dywsFow12-1" vertex="1">
          <mxGeometry y="30" width="560" height="160" as="geometry" />
        </mxCell>
        <mxCell id="szkKv_FyPF_dywsFow12-5" value="" style="endArrow=block;endSize=16;endFill=0;html=1;fontFamily=Helvetica;fontSize=16;fontColor=default;movable=1;resizable=1;rotatable=1;deletable=1;editable=1;locked=0;connectable=1;exitX=-0.004;exitY=0.38;exitDx=0;exitDy=0;exitPerimeter=0;entryX=1.005;entryY=0.029;entryDx=0;entryDy=0;entryPerimeter=0;" parent="1" source="szkKv_FyPF_dywsFow12-2" target="vag4PeF_KKS5jh6nKsA_-8" edge="1">
          <mxGeometry x="0.6" y="-40" width="160" relative="1" as="geometry">
            <mxPoint x="44" y="-910" as="sourcePoint" />
            <mxPoint x="-420" y="-1555.63" as="targetPoint" />
            <mxPoint as="offset" />
          </mxGeometry>
        </mxCell>
        <mxCell id="voCUhh66q7dZ5Qkd7Wem-2" value="fend/uilogin（&lt;font color=&quot;#ff0000&quot;&gt;uilogindialog.h/.cpp/.ui&lt;/font&gt;）&lt;b&gt;UiLoginDialog&lt;/b&gt;: public&amp;nbsp;UiQosDialog" style="swimlane;fontStyle=0;childLayout=stackLayout;horizontal=1;startSize=26;fillColor=none;horizontalStack=0;resizeParent=1;resizeParentMax=0;resizeLast=0;collapsible=1;marginBottom=0;whiteSpace=wrap;html=1;strokeColor=default;align=center;verticalAlign=middle;fontFamily=Helvetica;fontSize=16;fontColor=default;" parent="1" vertex="1">
          <mxGeometry x="-810" y="880" width="570" height="330" as="geometry" />
        </mxCell>
        <mxCell id="voCUhh66q7dZ5Qkd7Wem-3" value="&lt;div&gt;&lt;span style=&quot;color: rgb(51, 51, 51); font-family: &amp;quot;Open Sans&amp;quot;, &amp;quot;Clear Sans&amp;quot;, &amp;quot;Helvetica Neue&amp;quot;, Helvetica, Arial, &amp;quot;Segoe UI Emoji&amp;quot;, sans-serif; orphans: 4; white-space-collapse: preserve;&quot;&gt;include：3&lt;/span&gt;&lt;/div&gt;&lt;span style=&quot;color: rgb(51, 51, 51); font-family: &amp;quot;Open Sans&amp;quot;, &amp;quot;Clear Sans&amp;quot;, &amp;quot;Helvetica Neue&amp;quot;, Helvetica, Arial, &amp;quot;Segoe UI Emoji&amp;quot;, sans-serif; orphans: 4; white-space-collapse: preserve;&quot;&gt;登陆窗口，&lt;/span&gt;当前产品通用窗口的子类（&lt;span style=&quot;white-space-collapse: preserve; color: rgb(51, 51, 51); font-family: &amp;quot;Open Sans&amp;quot;, &amp;quot;Clear Sans&amp;quot;, &amp;quot;Helvetica Neue&amp;quot;, Helvetica, Arial, &amp;quot;Segoe UI Emoji&amp;quot;, sans-serif; orphans: 4;&quot;&gt;适配&lt;/span&gt;登陆窗口）&lt;div&gt;&lt;br&gt;&lt;/div&gt;&lt;div&gt;- ui;&amp;nbsp;&lt;span style=&quot;background-color: initial;&quot;&gt;Ui::UiLoginDialog&amp;nbsp; *&lt;/span&gt;&lt;/div&gt;&lt;div&gt;&lt;br&gt;&lt;/div&gt;&lt;div&gt;+&amp;nbsp;&lt;span style=&quot;background-color: initial;&quot;&gt;UiLoginDialog(QWidget *parent = nullptr);&lt;/span&gt;&lt;/div&gt;&lt;div&gt;+ ~UiLoginDialog();&lt;/div&gt;&lt;div&gt;&lt;br&gt;&lt;/div&gt;&lt;div&gt;+ void updateLoginInfo();&lt;/div&gt;&lt;div&gt;&lt;br&gt;&lt;/div&gt;&lt;div&gt;# eventFilter(QObject *watched, QEvent *event);&amp;nbsp;&lt;span style=&quot;background-color: initial;&quot;&gt;bool&lt;/span&gt;&lt;span style=&quot;background-color: initial;&quot;&gt;&amp;nbsp;&lt;/span&gt;&lt;br&gt;&lt;/div&gt;&lt;div&gt;&lt;span style=&quot;background-color: initial;&quot;&gt;&lt;br&gt;&lt;/span&gt;&lt;/div&gt;&lt;div&gt;&lt;span style=&quot;background-color: initial;&quot;&gt;-&amp;nbsp;&lt;/span&gt;&lt;span style=&quot;background-color: initial;&quot;&gt;onBtnLoginClicked();&amp;nbsp;&lt;/span&gt;&lt;span style=&quot;background-color: initial;&quot;&gt;void&lt;/span&gt;&lt;span style=&quot;background-color: initial;&quot;&gt;&amp;nbsp;slots&lt;/span&gt;&lt;/div&gt;&lt;div&gt;- onLoginSucceed();&amp;nbsp;&lt;span style=&quot;background-color: initial;&quot;&gt;void&lt;/span&gt;&lt;span style=&quot;background-color: initial;&quot;&gt;&amp;nbsp;slots&lt;/span&gt;&lt;/div&gt;&lt;div&gt;- onLoginError(int api, const QString &amp;amp;msg, const QJsonValue &amp;amp;req);&amp;nbsp;&lt;span style=&quot;background-color: initial;&quot;&gt;void&lt;/span&gt;&lt;span style=&quot;background-color: initial;&quot;&gt;&amp;nbsp;slots&lt;/span&gt;&lt;/div&gt;" style="text;strokeColor=none;fillColor=none;align=left;verticalAlign=top;spacingLeft=4;spacingRight=4;overflow=hidden;rotatable=0;points=[[0,0.5],[1,0.5]];portConstraint=eastwest;whiteSpace=wrap;html=1;fontFamily=Helvetica;fontSize=16;fontColor=default;" parent="voCUhh66q7dZ5Qkd7Wem-2" vertex="1">
          <mxGeometry y="26" width="570" height="304" as="geometry" />
        </mxCell>
        <mxCell id="voCUhh66q7dZ5Qkd7Wem-6" value="" style="endArrow=block;endSize=16;endFill=0;html=1;fontFamily=Helvetica;fontSize=16;fontColor=default;rounded=0;exitX=0.481;exitY=0;exitDx=0;exitDy=0;exitPerimeter=0;entryX=0.5;entryY=1;entryDx=0;entryDy=0;" parent="1" source="do2LTJbjY-FYxFusSGwq-1" target="szkKv_FyPF_dywsFow12-1" edge="1">
          <mxGeometry width="160" relative="1" as="geometry">
            <mxPoint x="-5.684341886080802e-14" y="-673.3900000000001" as="sourcePoint" />
            <mxPoint x="125.19999999999999" y="-756" as="targetPoint" />
          </mxGeometry>
        </mxCell>
        <mxCell id="do2LTJbjY-FYxFusSGwq-1" value="fend/uimain（&lt;font color=&quot;#ff0000&quot;&gt;uimain.h/.cpp/.ui&lt;/font&gt;）&lt;b&gt;UiMain&lt;/b&gt;: public UiQosDialog" style="swimlane;fontStyle=0;childLayout=stackLayout;horizontal=1;startSize=26;fillColor=none;horizontalStack=0;resizeParent=1;resizeParentMax=0;resizeLast=0;collapsible=1;marginBottom=0;whiteSpace=wrap;html=1;strokeColor=default;align=center;verticalAlign=middle;fontFamily=Helvetica;fontSize=16;fontColor=default;" parent="1" vertex="1">
          <mxGeometry x="-190" y="130" width="540" height="310" as="geometry" />
        </mxCell>
        <mxCell id="do2LTJbjY-FYxFusSGwq-2" value="&lt;div&gt;include：5&lt;/div&gt;主窗口，继承当前产品通用窗口（&lt;span style=&quot;color: rgb(51, 51, 51); font-family: &amp;quot;Open Sans&amp;quot;, &amp;quot;Clear Sans&amp;quot;, &amp;quot;Helvetica Neue&amp;quot;, Helvetica, Arial, &amp;quot;Segoe UI Emoji&amp;quot;, sans-serif; orphans: 4; white-space-collapse: preserve;&quot;&gt;适配主窗口）&lt;/span&gt;&lt;div&gt;&lt;br&gt;&lt;/div&gt;&lt;div&gt;&lt;span style=&quot;background-color: initial;&quot;&gt;- ui;&amp;nbsp;&lt;/span&gt;&lt;span style=&quot;background-color: initial;&quot;&gt;Ui::UiMain *&lt;/span&gt;&lt;/div&gt;&lt;div&gt;- m_transfer = nullptr;&amp;nbsp;&lt;span style=&quot;background-color: initial;&quot;&gt;UiTransfer*&lt;/span&gt;&lt;span style=&quot;background-color: initial;&quot;&gt;&amp;nbsp;&lt;/span&gt;&lt;/div&gt;&lt;div&gt;&lt;br&gt;&lt;/div&gt;&lt;div&gt;+&amp;nbsp;&lt;span style=&quot;background-color: initial;&quot;&gt;UiMain(QWidget *parent = nullptr);&amp;nbsp;&lt;/span&gt;&lt;span style=&quot;background-color: initial;&quot;&gt;explicit&lt;/span&gt;&lt;span style=&quot;background-color: initial;&quot;&gt;&amp;nbsp;&lt;/span&gt;&lt;/div&gt;&lt;div&gt;+ ~UiMain();&lt;/div&gt;&lt;div&gt;&lt;br&gt;&lt;/div&gt;&lt;div&gt;&lt;div&gt;- onUnLogin();&amp;nbsp;&lt;span style=&quot;background-color: initial;&quot;&gt;void&lt;/span&gt;&lt;span style=&quot;background-color: initial;&quot;&gt;&amp;nbsp; slots&lt;/span&gt;&lt;/div&gt;&lt;div&gt;- onBucketsSuccess(const QList&amp;lt;MyBucket&amp;gt;&amp;amp; buckets);&amp;nbsp;&lt;span style=&quot;background-color: initial;&quot;&gt;void&lt;/span&gt;&lt;span style=&quot;background-color: initial;&quot;&gt;&amp;nbsp;slots&lt;/span&gt;&lt;/div&gt;&lt;div&gt;- onObjectsSuccess(const QList&amp;lt;MyObject&amp;gt;&amp;amp; objects);&amp;nbsp;&lt;span style=&quot;background-color: initial;&quot;&gt;void&lt;/span&gt;&lt;span style=&quot;background-color: initial;&quot;&gt;&amp;nbsp;slots&lt;/span&gt;&lt;/div&gt;&lt;div&gt;- showTransfer();&amp;nbsp;&lt;span style=&quot;background-color: initial;&quot;&gt;void&lt;/span&gt;&lt;span style=&quot;background-color: initial;&quot;&gt;&amp;nbsp;slots&lt;/span&gt;&lt;/div&gt;&lt;div&gt;- onError(int api, const QString&amp;amp; msg,&amp;nbsp; const QJsonValue &amp;amp;req); void slots&lt;/div&gt;&lt;/div&gt;" style="text;strokeColor=none;fillColor=none;align=left;verticalAlign=top;spacingLeft=4;spacingRight=4;overflow=hidden;rotatable=0;points=[[0,0.5],[1,0.5]];portConstraint=eastwest;whiteSpace=wrap;html=1;fontFamily=Helvetica;fontSize=16;fontColor=default;" parent="do2LTJbjY-FYxFusSGwq-1" vertex="1">
          <mxGeometry y="26" width="540" height="284" as="geometry" />
        </mxCell>
        <mxCell id="Rp9s1pVAKZDfm_oeclWv-1" value="" style="endArrow=block;endSize=16;endFill=0;html=1;fontFamily=Helvetica;fontSize=16;fontColor=default;rounded=0;exitX=0.5;exitY=0;exitDx=0;exitDy=0;entryX=0.008;entryY=0.993;entryDx=0;entryDy=0;entryPerimeter=0;" parent="1" source="voCUhh66q7dZ5Qkd7Wem-2" target="szkKv_FyPF_dywsFow12-2" edge="1">
          <mxGeometry width="160" relative="1" as="geometry">
            <mxPoint x="-315" y="-667" as="sourcePoint" />
            <mxPoint x="-190" y="-750" as="targetPoint" />
          </mxGeometry>
        </mxCell>
        <mxCell id="VGXskBBhL4Xn1owZoyve-1" value="fend/uicom（&lt;font color=&quot;#ff0000&quot;&gt;uibreadwidget.h/.cpp/.ui&lt;/font&gt;）&lt;b&gt;UiBreadWidget&lt;/b&gt;: public&amp;nbsp;QWidget" style="swimlane;fontStyle=0;childLayout=stackLayout;horizontal=1;startSize=26;fillColor=none;horizontalStack=0;resizeParent=1;resizeParentMax=0;resizeLast=0;collapsible=1;marginBottom=0;whiteSpace=wrap;html=1;strokeColor=default;align=center;verticalAlign=middle;fontFamily=Helvetica;fontSize=16;fontColor=default;" parent="1" vertex="1">
          <mxGeometry x="480" y="-900" width="590" height="560" as="geometry" />
        </mxCell>
        <mxCell id="VGXskBBhL4Xn1owZoyve-2" value="&lt;div&gt;include：0&lt;/div&gt;&lt;div&gt;&lt;span style=&quot;color: rgb(51, 51, 51); font-family: &amp;quot;Open Sans&amp;quot;, &amp;quot;Clear Sans&amp;quot;, &amp;quot;Helvetica Neue&amp;quot;, Helvetica, Arial, &amp;quot;Segoe UI Emoji&amp;quot;, sans-serif; orphans: 4; white-space-collapse: preserve;&quot;&gt;通用组件开发-面包屑导航控件&lt;/span&gt;&lt;br&gt;&lt;/div&gt;&lt;div&gt;&lt;span style=&quot;color: rgb(51, 51, 51); font-family: &amp;quot;Open Sans&amp;quot;, &amp;quot;Clear Sans&amp;quot;, &amp;quot;Helvetica Neue&amp;quot;, Helvetica, Arial, &amp;quot;Segoe UI Emoji&amp;quot;, sans-serif; orphans: 4; white-space-collapse: preserve;&quot;&gt;&lt;br&gt;&lt;/span&gt;&lt;/div&gt;&lt;div&gt;&lt;div&gt;- ui; Ui::UiBreadWidget*&lt;/div&gt;&lt;div&gt;- m_rootName; QString&lt;/div&gt;&lt;div&gt;- m_model = new QStandardItemModel(); QStandardItemModel*&lt;/div&gt;&lt;div&gt;&lt;br&gt;&lt;/div&gt;&lt;div&gt;+ UiBreadWidget(QWidget *parent = nullptr); explicit&amp;nbsp;&lt;/div&gt;&lt;div&gt;+ ~UiBreadWidget();&lt;/div&gt;&lt;div&gt;&lt;br&gt;&lt;/div&gt;&lt;div&gt;+ setPath(const QString&amp;amp; path); void&amp;nbsp;&lt;/div&gt;&lt;div&gt;+ setPath(const QStringList&amp;amp; names); void&amp;nbsp;&lt;/div&gt;&lt;div&gt;+ clear(); void&amp;nbsp;&lt;/div&gt;&lt;div&gt;&lt;br&gt;&lt;/div&gt;&lt;div&gt;+ currentPath() const; QString&amp;nbsp;&lt;/div&gt;&lt;div&gt;+ rootName() const; QString&amp;nbsp;&lt;/div&gt;&lt;div&gt;&lt;br&gt;&lt;/div&gt;&lt;div&gt;+ isEmpty() const; bool&amp;nbsp;&lt;/div&gt;&lt;div&gt;+ isRoot() const; bool&amp;nbsp;&lt;/div&gt;&lt;div&gt;&lt;br&gt;&lt;/div&gt;&lt;div&gt;- refresh(const QString&amp;amp; path); void signals&lt;/div&gt;&lt;div&gt;- pathChanged(const QString&amp;amp; newPath); void signals&lt;/div&gt;&lt;div&gt;&lt;br&gt;&lt;/div&gt;&lt;div&gt;- addNameButton(const QString&amp;amp; name); void&amp;nbsp;&lt;/div&gt;&lt;div&gt;- onItemClicked(const QModelIndex &amp;amp;index); void&amp;nbsp;&lt;/div&gt;&lt;div&gt;- currentItem() const; QStandardItem*&lt;/div&gt;&lt;div&gt;- getPath(QStandardItem *item=nullptr) const; QString&lt;/div&gt;&lt;/div&gt;" style="text;strokeColor=none;fillColor=none;align=left;verticalAlign=top;spacingLeft=4;spacingRight=4;overflow=hidden;rotatable=0;points=[[0,0.5],[1,0.5]];portConstraint=eastwest;whiteSpace=wrap;html=1;fontFamily=Helvetica;fontSize=16;fontColor=default;" parent="VGXskBBhL4Xn1owZoyve-1" vertex="1">
          <mxGeometry y="26" width="590" height="534" as="geometry" />
        </mxCell>
        <mxCell id="VGXskBBhL4Xn1owZoyve-5" value="fend/uicom（&lt;font color=&quot;#ff0000&quot;&gt;uicomboline.h/.cpp&lt;/font&gt;）&lt;b&gt;UiComboLine&lt;/b&gt;: public QLineEdit" style="swimlane;fontStyle=0;childLayout=stackLayout;horizontal=1;startSize=26;fillColor=none;horizontalStack=0;resizeParent=1;resizeParentMax=0;resizeLast=0;collapsible=1;marginBottom=0;whiteSpace=wrap;html=1;strokeColor=default;align=center;verticalAlign=middle;fontFamily=Helvetica;fontSize=16;fontColor=default;" parent="1" vertex="1">
          <mxGeometry x="1110" y="-900" width="540" height="310" as="geometry" />
        </mxCell>
        <mxCell id="VGXskBBhL4Xn1owZoyve-6" value="&lt;div&gt;include：0&lt;/div&gt;&lt;div&gt;&lt;span style=&quot;color: rgb(51, 51, 51); font-family: &amp;quot;Open Sans&amp;quot;, &amp;quot;Clear Sans&amp;quot;, &amp;quot;Helvetica Neue&amp;quot;, Helvetica, Arial, &amp;quot;Segoe UI Emoji&amp;quot;, sans-serif; orphans: 4; white-space-collapse: preserve;&quot;&gt;通用组件开发-输入提示框&lt;/span&gt;&lt;br&gt;&lt;/div&gt;&lt;div&gt;&lt;span style=&quot;color: rgb(51, 51, 51); font-family: &amp;quot;Open Sans&amp;quot;, &amp;quot;Clear Sans&amp;quot;, &amp;quot;Helvetica Neue&amp;quot;, Helvetica, Arial, &amp;quot;Segoe UI Emoji&amp;quot;, sans-serif; orphans: 4; white-space-collapse: preserve;&quot;&gt;&lt;br&gt;&lt;/span&gt;&lt;/div&gt;&lt;div&gt;&lt;div&gt;+ UiComboLine(QWidget* parent = nullptr);&lt;/div&gt;&lt;div&gt;+ UiComboLine(const QStringList&amp;amp; words, QWidget* parent = nullptr);&lt;/div&gt;&lt;div&gt;&lt;br&gt;&lt;/div&gt;&lt;div&gt;+ setWords(const QStringList&amp;amp; words); void&amp;nbsp;&lt;/div&gt;&lt;div&gt;+ setWords(const QList&amp;lt;int&amp;gt; words); void&amp;nbsp;&lt;/div&gt;&lt;div&gt;+ setWords(int start=1, int len=10); void&amp;nbsp;&lt;/div&gt;&lt;div&gt;+ getWords(); QStringList&amp;nbsp;&lt;/div&gt;&lt;div&gt;&lt;br&gt;&lt;/div&gt;&lt;div&gt;- itemSelected(const QString&amp;amp; text); void signals&lt;/div&gt;&lt;div&gt;&lt;br&gt;&lt;/div&gt;&lt;div&gt;# &lt;i&gt;mousePressEvent&lt;/i&gt;(QMouseEvent *) override;&amp;nbsp;&lt;span style=&quot;background-color: initial;&quot;&gt;void&lt;/span&gt;&lt;span style=&quot;background-color: initial;&quot;&gt;&amp;nbsp;&lt;/span&gt;&lt;/div&gt;&lt;/div&gt;" style="text;strokeColor=none;fillColor=none;align=left;verticalAlign=top;spacingLeft=4;spacingRight=4;overflow=hidden;rotatable=0;points=[[0,0.5],[1,0.5]];portConstraint=eastwest;whiteSpace=wrap;html=1;fontFamily=Helvetica;fontSize=16;fontColor=default;" parent="VGXskBBhL4Xn1owZoyve-5" vertex="1">
          <mxGeometry y="26" width="540" height="284" as="geometry" />
        </mxCell>
        <mxCell id="VGXskBBhL4Xn1owZoyve-9" value="fend/uicom（&lt;font color=&quot;#ff0000&quot;&gt;uipagewidget.h/.cpp/.ui&lt;/font&gt;）&lt;b&gt;UiPageWidget&lt;/b&gt;: public QWidget" style="swimlane;fontStyle=0;childLayout=stackLayout;horizontal=1;startSize=26;fillColor=none;horizontalStack=0;resizeParent=1;resizeParentMax=0;resizeLast=0;collapsible=1;marginBottom=0;whiteSpace=wrap;html=1;strokeColor=default;align=center;verticalAlign=middle;fontFamily=Helvetica;fontSize=16;fontColor=default;" parent="1" vertex="1">
          <mxGeometry x="1710" y="-900" width="580" height="690" as="geometry" />
        </mxCell>
        <mxCell id="VGXskBBhL4Xn1owZoyve-10" value="&lt;div&gt;include：0&lt;/div&gt;&lt;div&gt;&lt;span style=&quot;color: rgb(51, 51, 51); font-family: &amp;quot;Open Sans&amp;quot;, &amp;quot;Clear Sans&amp;quot;, &amp;quot;Helvetica Neue&amp;quot;, Helvetica, Arial, &amp;quot;Segoe UI Emoji&amp;quot;, sans-serif; orphans: 4; white-space-collapse: preserve;&quot;&gt;通用组件开发-翻页按钮控件&lt;/span&gt;&lt;br&gt;&lt;/div&gt;&lt;div&gt;&lt;span style=&quot;color: rgb(51, 51, 51); font-family: &amp;quot;Open Sans&amp;quot;, &amp;quot;Clear Sans&amp;quot;, &amp;quot;Helvetica Neue&amp;quot;, Helvetica, Arial, &amp;quot;Segoe UI Emoji&amp;quot;, sans-serif; orphans: 4; white-space-collapse: preserve;&quot;&gt;&lt;br&gt;&lt;/span&gt;&lt;/div&gt;&lt;div&gt;- ui;&amp;nbsp;&lt;span style=&quot;background-color: initial;&quot;&gt;Ui::UiPageWidget *&lt;/span&gt;&lt;/div&gt;&lt;div&gt;- m_totalRow = 0;&amp;nbsp;&lt;span style=&quot;background-color: initial;&quot;&gt;int&lt;/span&gt;&lt;span style=&quot;background-color: initial;&quot;&gt;&amp;nbsp;&lt;/span&gt;&lt;/div&gt;&lt;div&gt;- m_currentPage = 1;&amp;nbsp;&lt;span style=&quot;background-color: initial;&quot;&gt;&amp;nbsp;&lt;/span&gt;&lt;span style=&quot;background-color: initial;&quot;&gt;int&lt;/span&gt;&lt;/div&gt;&lt;div&gt;- m_maxRow = 10;&amp;nbsp;&lt;span style=&quot;background-color: initial;&quot;&gt;int&lt;/span&gt;&lt;span style=&quot;background-color: initial;&quot;&gt;&amp;nbsp;&lt;/span&gt;&lt;/div&gt;&lt;div&gt;&lt;br&gt;&lt;/div&gt;&lt;div&gt;+ UiPageWidget(QWidget *parent = nullptr); explicit&amp;nbsp;&lt;/div&gt;&lt;div&gt;+ ~UiPageWidget();&lt;/div&gt;&lt;div&gt;&lt;br&gt;&lt;/div&gt;&lt;div&gt;+ totalRow() const; int&lt;/div&gt;&lt;div&gt;+ maxRow() const; int&lt;/div&gt;&lt;div&gt;+ currentPage() const; int&lt;/div&gt;&lt;div&gt;+ pageCount() const; int&lt;/div&gt;&lt;div&gt;+ isFirstPage() const; int&lt;/div&gt;&lt;div&gt;+ isLastPage() const; int&lt;/div&gt;&lt;div&gt;&lt;br&gt;&lt;/div&gt;&lt;div&gt;+ setTotalRow(int newTotalRow); void&lt;/div&gt;&lt;div&gt;+ setMaxRow(int rows); void&lt;/div&gt;&lt;div&gt;+ setMaxRowList(const QList&amp;lt;int&amp;gt; rowList); void&lt;/div&gt;&lt;div&gt;&lt;br&gt;&lt;/div&gt;&lt;div&gt;&lt;span style=&quot;white-space: pre; white-space: normal;&quot;&gt;&#x9;&lt;/span&gt;&lt;/div&gt;&lt;div&gt;- pageNumChanged(int start, int maxLen); void signals&lt;/div&gt;&lt;div&gt;&lt;br&gt;&lt;/div&gt;&lt;div&gt;+ next(); void slots&lt;/div&gt;&lt;div&gt;+ pre(); void slots&lt;/div&gt;&lt;div&gt;+ jumpTo(int page); void slots&lt;/div&gt;&lt;div&gt;&lt;br&gt;&lt;/div&gt;&lt;div&gt;- onCurrentPageSelected(const QString&amp;amp; text); void slots&lt;/div&gt;&lt;div&gt;- onMaxRowsItemSelected(const QString &amp;amp;text); void slots&lt;/div&gt;&lt;div&gt;&lt;br&gt;&lt;/div&gt;&lt;div&gt;- setPageCount(); void&lt;/div&gt;&lt;div&gt;- reset(); void&lt;/div&gt;&lt;div&gt;- switchPage(int newCurrentPage); void&lt;/div&gt;" style="text;strokeColor=none;fillColor=none;align=left;verticalAlign=top;spacingLeft=4;spacingRight=4;overflow=hidden;rotatable=0;points=[[0,0.5],[1,0.5]];portConstraint=eastwest;whiteSpace=wrap;html=1;fontFamily=Helvetica;fontSize=16;fontColor=default;" parent="VGXskBBhL4Xn1owZoyve-9" vertex="1">
          <mxGeometry y="26" width="580" height="664" as="geometry" />
        </mxCell>
        <mxCell id="iM1Mg-FqhBsBKh7yVdD4-1" value="fend/uimain（&lt;font color=&quot;#ff0000&quot;&gt;uibucketslistwidget.h/.cpp/.ui&lt;/font&gt;）&lt;b&gt;UiBucketsListWidget&lt;/b&gt;: public QWidget" style="swimlane;fontStyle=0;childLayout=stackLayout;horizontal=1;startSize=26;fillColor=none;horizontalStack=0;resizeParent=1;resizeParentMax=0;resizeLast=0;collapsible=1;marginBottom=0;whiteSpace=wrap;html=1;strokeColor=default;align=center;verticalAlign=middle;fontFamily=Helvetica;fontSize=16;fontColor=default;" parent="1" vertex="1">
          <mxGeometry x="1400" y="130" width="620" height="270" as="geometry" />
        </mxCell>
        <mxCell id="iM1Mg-FqhBsBKh7yVdD4-2" value="&lt;div&gt;include：2&lt;/div&gt;桶列表窗口&lt;br&gt;&lt;div&gt;&lt;br&gt;&lt;/div&gt;&lt;div&gt;&lt;div style=&quot;position: relative;&quot; data-slate-node=&quot;element&quot;&gt;&lt;span data-slate-node=&quot;text&quot;&gt;- ui; &lt;/span&gt;&lt;span data-slate-node=&quot;text&quot;&gt;Ui::UiBucketsListWidget*&lt;/span&gt;&lt;/div&gt;&lt;div style=&quot;position: relative;&quot; data-slate-node=&quot;element&quot;&gt;&lt;span data-slate-node=&quot;text&quot;&gt;&lt;br&gt;&lt;/span&gt;&lt;/div&gt;&lt;div style=&quot;position: relative;&quot; data-slate-node=&quot;element&quot;&gt;&lt;span data-slate-node=&quot;text&quot;&gt;+ UiBucketsListWidget(QWidget *parent = nullptr); &lt;/span&gt;&lt;span data-slate-node=&quot;text&quot;&gt;explicit&lt;/span&gt;&lt;/div&gt;&lt;div style=&quot;position: relative;&quot; data-slate-node=&quot;element&quot;&gt;&lt;span data-slate-node=&quot;text&quot;&gt;+ ~UiBucketsListWidget();&lt;/span&gt;&lt;/div&gt;&lt;div style=&quot;position: relative;&quot; data-slate-node=&quot;element&quot;&gt;&lt;span data-slate-node=&quot;text&quot;&gt;&lt;br&gt;&lt;/span&gt;&lt;/div&gt;&lt;div style=&quot;position: relative;&quot; data-slate-node=&quot;element&quot;&gt;&lt;span data-slate-node=&quot;text&quot;&gt;- onBucketsSuccess(const QList&amp;lt;MyBucket&amp;gt; &amp;amp;buckets); &lt;/span&gt;&lt;span data-slate-node=&quot;text&quot;&gt;void slots&lt;/span&gt;&lt;/div&gt;&lt;div style=&quot;position: relative;&quot; data-slate-node=&quot;element&quot;&gt;&lt;span data-slate-node=&quot;text&quot;&gt;- on_listView_doubleClicked(const QModelIndex &amp;amp;index); &lt;/span&gt;&lt;span data-slate-node=&quot;text&quot;&gt;void slots&lt;/span&gt;&lt;/div&gt;&lt;div style=&quot;position: relative;&quot; data-slate-node=&quot;element&quot;&gt;&lt;span data-slate-node=&quot;text&quot;&gt;- showBucketObjects(const QString&amp;amp; bucketName); &lt;/span&gt;&lt;span data-slate-node=&quot;text&quot;&gt;void slots&lt;/span&gt;&lt;/div&gt;&lt;div data-slate-fragment=&quot;JTVCJTdCJTIydHlwZSUyMiUzQSUyMnBhcmFncmFwaCUyMiUyQyUyMmNoaWxkcmVuJTIyJTNBJTVCJTdCJTIyaWQlMjIlM0ElMjJCWHdsMHBiWlF6JTIyJTJDJTIycGFyYUlkeCUyMiUzQTglMkMlMjJzcmMlMjIlM0ElMjItJTIwdWklM0IlMjAlMjIlMkMlMjJkc3QlMjIlM0ElMjItdWklRUYlQkMlOUIlMjIlMkMlMjJtZXRhZGF0YSUyMiUzQSUyMiUyMiUyQyUyMm1ldGFEYXRhJTIyJTNBJTVCJTVEJTJDJTIydGV4dCUyMiUzQSUyMi0lMjB1aSUzQiUyMCUyMiU3RCUyQyU3QiUyMmlkJTIyJTNBJTIyZXhyYTR5cFFqeiUyMiUyQyUyMnBhcmFJZHglMjIlM0E4JTJDJTIyc3JjJTIyJTNBJTIyVWklM0ElM0FVaUJ1Y2tldHNMaXN0V2lkZ2V0KiUyMiUyQyUyMmRzdCUyMiUzQSUyMlVpJTNBJUVGJUJDJTlBVWlCdWNrZXRzTGlzdFdpZGdldColMjIlMkMlMjJtZXRhZGF0YSUyMiUzQSUyMiUyMiUyQyUyMm1ldGFEYXRhJTIyJTNBJTVCJTVEJTJDJTIydGV4dCUyMiUzQSUyMlVpJTNBJTNBVWlCdWNrZXRzTGlzdFdpZGdldColMjIlN0QlNUQlN0QlMkMlN0IlMjJ0eXBlJTIyJTNBJTIycGFyYWdyYXBoJTIyJTJDJTIyY2hpbGRyZW4lMjIlM0ElNUIlN0IlMjJpZCUyMiUzQSUyMmV4cmE0eXBRanolMjIlMkMlMjJwYXJhSWR4JTIyJTNBOCUyQyUyMnNyYyUyMiUzQSUyMlVpJTNBJTNBVWlCdWNrZXRzTGlzdFdpZGdldColMjIlMkMlMjJkc3QlMjIlM0ElMjJVaSUzQSVFRiVCQyU5QVVpQnVja2V0c0xpc3RXaWRnZXQqJTIyJTJDJTIybWV0YWRhdGElMjIlM0ElMjIlMjIlMkMlMjJtZXRhRGF0YSUyMiUzQSU1QiU1RCUyQyUyMnRleHQlMjIlM0ElMjIlMjIlN0QlNUQlN0QlMkMlN0IlMjJ0eXBlJTIyJTNBJTIycGFyYWdyYXBoJTIyJTJDJTIyY2hpbGRyZW4lMjIlM0ElNUIlN0IlMjJpZCUyMiUzQSUyMlY3b2RyRXgzclYlMjIlMkMlMjJwYXJhSWR4JTIyJTNBMCUyQyUyMnNyYyUyMiUzQSUyMiUyQiUyMFVpQnVja2V0c0xpc3RXaWRnZXQoUVdpZGdldCUyMCpwYXJlbnQlMjAlM0QlMjBudWxscHRyKSUzQiUyMCUyMiUyQyUyMmRzdCUyMiUzQSUyMiUyQlVpQnVja2V0c0xpc3RXaWRnZXQlRUYlQkMlODhRV2lkZ2V0KnBhcmVudCUzRG51bGxwdHIlRUYlQkMlODklRUYlQkMlOUIlMjIlMkMlMjJtZXRhZGF0YSUyMiUzQSUyMiUyMiUyQyUyMm1ldGFEYXRhJTIyJTNBJTVCJTVEJTJDJTIydGV4dCUyMiUzQSUyMiUyQiUyMFVpQnVja2V0c0xpc3RXaWRnZXQoUVdpZGdldCUyMCpwYXJlbnQlMjAlM0QlMjBudWxscHRyKSUzQiUyMCUyMiU3RCUyQyU3QiUyMmlkJTIyJTNBJTIyQjRrbDk3eHlqeiUyMiUyQyUyMnBhcmFJZHglMjIlM0EwJTJDJTIyc3JjJTIyJTNBJTIyZXhwbGljaXQlMjIlMkMlMjJkc3QlMjIlM0ElMjIlRTYlOTglOEUlRTclQTElQUUlRTclOUElODQlMjIlMkMlMjJtZXRhZGF0YSUyMiUzQSUyMiUyMiUyQyUyMm1ldGFEYXRhJTIyJTNBJTVCJTVEJTJDJTIydGV4dCUyMiUzQSUyMmV4cGxpY2l0JTIyJTdEJTVEJTdEJTJDJTdCJTIydHlwZSUyMiUzQSUyMnBhcmFncmFwaCUyMiUyQyUyMmNoaWxkcmVuJTIyJTNBJTVCJTdCJTIyaWQlMjIlM0ElMjJWQVlOVzd4RDhWJTIyJTJDJTIycGFyYUlkeCUyMiUzQTElMkMlMjJzcmMlMjIlM0ElMjIlMkIlMjB+VWlCdWNrZXRzTGlzdFdpZGdldCgpJTNCJTIyJTJDJTIyZHN0JTIyJTNBJTIyJTJCflVpQnVja2V0c0xpc3RXaWRnZXQlRUYlQkMlODglRUYlQkMlODklRUYlQkMlOUIlMjIlMkMlMjJtZXRhZGF0YSUyMiUzQSUyMiUyMiUyQyUyMm1ldGFEYXRhJTIyJTNBJTVCJTVEJTJDJTIydGV4dCUyMiUzQSUyMiUyQiUyMH5VaUJ1Y2tldHNMaXN0V2lkZ2V0KCklM0IlMjIlN0QlNUQlN0QlMkMlN0IlMjJ0eXBlJTIyJTNBJTIycGFyYWdyYXBoJTIyJTJDJTIyY2hpbGRyZW4lMjIlM0ElNUIlN0IlMjJpZCUyMiUzQSUyMmVHZ0tuN3hxZ2UlMjIlMkMlMjJwYXJhSWR4JTIyJTNBMiUyQyUyMnNyYyUyMiUzQSUyMiUyMiUyQyUyMmRzdCUyMiUzQSUyMiUyMiUyQyUyMm1ldGFkYXRhJTIyJTNBJTIyJTIyJTJDJTIybWV0YURhdGElMjIlM0ElNUIlNUQlMkMlMjJ0ZXh0JTIyJTNBJTIyJTIyJTdEJTVEJTdEJTJDJTdCJTIydHlwZSUyMiUzQSUyMnBhcmFncmFwaCUyMiUyQyUyMmNoaWxkcmVuJTIyJTNBJTVCJTdCJTIyaWQlMjIlM0ElMjJlNm5MZzd4WVdlJTIyJTJDJTIycGFyYUlkeCUyMiUzQTMlMkMlMjJzcmMlMjIlM0ElMjItJTIwb25CdWNrZXRzU3VjY2Vzcyhjb25zdCUyMFFMaXN0JTNDTXlCdWNrZXQlM0UlMjAlMjZidWNrZXRzKSUzQiUyMCUyMiUyQyUyMmRzdCUyMiUzQSUyMi1vbkJ1Y2tldHMlRTYlODglOTAlRTUlOEElOUYlRUYlQkMlODhjb25zdCUyMFFMaXN0JTNDTXlCdWNrZXQlM0UlRTUlOTIlOENidWNrZXRzJUVGJUJDJTg5JUVGJUJDJTlCJTIyJTJDJTIybWV0YWRhdGElMjIlM0ElMjIlMjIlMkMlMjJtZXRhRGF0YSUyMiUzQSU1QiU1RCUyQyUyMnRleHQlMjIlM0ElMjItJTIwb25CdWNrZXRzU3VjY2Vzcyhjb25zdCUyMFFMaXN0JTNDTXlCdWNrZXQlM0UlMjAlMjZidWNrZXRzKSUzQiUyMCUyMiU3RCUyQyU3QiUyMmlkJTIyJTNBJTIyVlJQd1JEck02QiUyMiUyQyUyMnBhcmFJZHglMjIlM0EzJTJDJTIyc3JjJTIyJTNBJTIydm9pZCUyMHNsb3RzJTIyJTJDJTIyZHN0JTIyJTNBJTIyJUU3JUE5JUJBJUU2JUE3JUJEJTIyJTJDJTIybWV0YWRhdGElMjIlM0ElMjIlMjIlMkMlMjJtZXRhRGF0YSUyMiUzQSU1QiU1RCUyQyUyMnRleHQlMjIlM0ElMjJ2b2lkJTIwc2xvdHMlMjIlN0QlNUQlN0QlMkMlN0IlMjJ0eXBlJTIyJTNBJTIycGFyYWdyYXBoJTIyJTJDJTIyY2hpbGRyZW4lMjIlM0ElNUIlN0IlMjJpZCUyMiUzQSUyMlY1WERhN3hxQWUlMjIlMkMlMjJwYXJhSWR4JTIyJTNBNCUyQyUyMnNyYyUyMiUzQSUyMi0lMjBvbl9saXN0Vmlld19kb3VibGVDbGlja2VkKGNvbnN0JTIwUU1vZGVsSW5kZXglMjAlMjZpbmRleCklM0IlMjAlMjIlMkMlMjJkc3QlMjIlM0ElMjItb25fbGlzdFZpZXdfZG91YmxlQ2xpY2tlZCVFRiVCQyU4OCVFNSVCOCVCOCVFOSU4NyU4RlFNb2RlbEluZGV4JTI2aW5kZXglRUYlQkMlODklRUYlQkMlOUIlMjIlMkMlMjJtZXRhZGF0YSUyMiUzQSUyMiUyMiUyQyUyMm1ldGFEYXRhJTIyJTNBJTVCJTVEJTJDJTIydGV4dCUyMiUzQSUyMi0lMjBvbl9saXN0Vmlld19kb3VibGVDbGlja2VkKGNvbnN0JTIwUU1vZGVsSW5kZXglMjAlMjZpbmRleCklM0IlMjAlMjIlN0QlMkMlN0IlMjJpZCUyMiUzQSUyMnp5S2dBd1dwYmUlMjIlMkMlMjJwYXJhSWR4JTIyJTNBNCUyQyUyMnNyYyUyMiUzQSUyMnZvaWQlMjBzbG90cyUyMiUyQyUyMmRzdCUyMiUzQSUyMiVFNyVBOSVCQSVFNiVBNyVCRCUyMiUyQyUyMm1ldGFkYXRhJTIyJTNBJTIyJTIyJTJDJTIybWV0YURhdGElMjIlM0ElNUIlNUQlMkMlMjJ0ZXh0JTIyJTNBJTIydm9pZCUyMHNsb3RzJTIyJTdEJTVEJTdEJTJDJTdCJTIydHlwZSUyMiUzQSUyMnBhcmFncmFwaCUyMiUyQyUyMmNoaWxkcmVuJTIyJTNBJTVCJTdCJTIyaWQlMjIlM0ElMjJlMjdyM0V4dkpWJTIyJTJDJTIycGFyYUlkeCUyMiUzQTUlMkMlMjJzcmMlMjIlM0ElMjItJTIwc2hvd0J1Y2tldE9iamVjdHMoY29uc3QlMjBRU3RyaW5nJTI2JTIwYnVja2V0TmFtZSklM0IlMjAlMjIlMkMlMjJkc3QlMjIlM0ElMjItc2hvd0J1Y2tldE9iamVjdHMlRUYlQkMlODglRTUlQjglQjglRTklODclOEZRU3RyaW5nJUU1JTkyJThDYnVja2V0TmFtZSVFRiVCQyU4OSVFRiVCQyU5QiUyMiUyQyUyMm1ldGFkYXRhJTIyJTNBJTIyJTIyJTJDJTIybWV0YURhdGElMjIlM0ElNUIlNUQlMkMlMjJ0ZXh0JTIyJTNBJTIyLSUyMHNob3dCdWNrZXRPYmplY3RzKGNvbnN0JTIwUVN0cmluZyUyNiUyMGJ1Y2tldE5hbWUpJTNCJTIwJTIyJTdEJTJDJTdCJTIyaWQlMjIlM0ElMjJlRU5tajR4UDJWJTIyJTJDJTIycGFyYUlkeCUyMiUzQTUlMkMlMjJzcmMlMjIlM0ElMjJ2b2lkJTIwc2xvdHMlMjIlMkMlMjJkc3QlMjIlM0ElMjIlRTclQTklQkElRTYlQTclQkQlMjIlMkMlMjJtZXRhZGF0YSUyMiUzQSUyMiUyMiUyQyUyMm1ldGFEYXRhJTIyJTNBJTVCJTVEJTJDJTIydGV4dCUyMiUzQSUyMnZvaWQlMjBzbG90cyUyMiU3RCU1RCU3RCUyQyU3QiUyMnR5cGUlMjIlM0ElMjJwYXJhZ3JhcGglMjIlMkMlMjJjaGlsZHJlbiUyMiUzQSU1QiU3QiUyMmlkJTIyJTNBJTIyQm8xR2p5cmdkViUyMiUyQyUyMnBhcmFJZHglMjIlM0E2JTJDJTIyc3JjJTIyJTNBJTIyLSUyMG9uVGV4dEVkaXRlZChjb25zdCUyMFFTdHJpbmclMjYlMjB0ZXh0KSUzQiUyMCUyMiUyQyUyMmRzdCUyMiUzQSUyMi1vblRleHRFZGl0ZWQlRUYlQkMlODhjb25zdCUyMFFTdHJpbmclMjZ0ZXh0JUVGJUJDJTg5JUVGJUJDJTlCJTIyJTJDJTIybWV0YWRhdGElMjIlM0ElMjIlMjIlMkMlMjJtZXRhRGF0YSUyMiUzQSU1QiU1RCUyQyUyMnRleHQlMjIlM0ElMjItJTIwb25UZXh0RWRpdGVkKGNvbnN0JTIwUVN0cmluZyUyNiUyMHRleHQpJTNCJTIwJTIyJTdEJTJDJTdCJTIyaWQlMjIlM0ElMjJWMHJhWEVBODZCJTIyJTJDJTIycGFyYUlkeCUyMiUzQTYlMkMlMjJzcmMlMjIlM0ElMjJ2b2lkJTIwc2xvdHMlMjIlMkMlMjJkc3QlMjIlM0ElMjIlRTclQTklQkElRTYlQTclQkQlMjIlMkMlMjJtZXRhZGF0YSUyMiUzQSUyMiUyMiUyQyUyMm1ldGFEYXRhJTIyJTNBJTVCJTVEJTJDJTIydGV4dCUyMiUzQSUyMnZvaWQlMjBzbG90cyUyMiU3RCU1RCU3RCU1RA==&quot; style=&quot;position: relative;&quot; data-slate-node=&quot;element&quot;&gt;&lt;span data-slate-node=&quot;text&quot;&gt;- onTextEdited(const QString&amp;amp; text); &lt;/span&gt;&lt;span data-slate-node=&quot;text&quot;&gt;void slots&lt;/span&gt;&lt;/div&gt;&lt;/div&gt;" style="text;strokeColor=none;fillColor=none;align=left;verticalAlign=top;spacingLeft=4;spacingRight=4;overflow=hidden;rotatable=0;points=[[0,0.5],[1,0.5]];portConstraint=eastwest;whiteSpace=wrap;html=1;fontFamily=Helvetica;fontSize=16;fontColor=default;" parent="iM1Mg-FqhBsBKh7yVdD4-1" vertex="1">
          <mxGeometry y="26" width="620" height="244" as="geometry" />
        </mxCell>
        <mxCell id="bUyf_h_fu0fvgD6pbiVa-10" value="&lt;span style=&quot;background-color: initial;&quot;&gt;fend/uimain（&lt;/span&gt;&lt;font style=&quot;background-color: initial;&quot; color=&quot;#ff0000&quot;&gt;uibucketstablewidget.h/.cpp/.ui&lt;/font&gt;&lt;span style=&quot;background-color: initial;&quot;&gt;）&lt;/span&gt;&lt;b style=&quot;background-color: initial;&quot;&gt;UiBucketsTableWidget&lt;/b&gt;&lt;span style=&quot;background-color: initial;&quot;&gt;: public QWidget&lt;/span&gt;" style="swimlane;fontStyle=0;childLayout=stackLayout;horizontal=1;startSize=26;fillColor=none;horizontalStack=0;resizeParent=1;resizeParentMax=0;resizeLast=0;collapsible=1;marginBottom=0;whiteSpace=wrap;html=1;strokeColor=default;align=center;verticalAlign=middle;fontFamily=Helvetica;fontSize=16;fontColor=default;" parent="1" vertex="1">
          <mxGeometry x="2070" y="130" width="660" height="350" as="geometry" />
        </mxCell>
        <mxCell id="bUyf_h_fu0fvgD6pbiVa-11" value="&lt;div&gt;include：3&lt;/div&gt;桶表格窗口&lt;br&gt;&lt;div&gt;&lt;br&gt;&lt;/div&gt;&lt;div&gt;&lt;div style=&quot;position: relative;&quot; data-slate-node=&quot;element&quot;&gt;&lt;div style=&quot;position: relative;&quot; data-slate-node=&quot;element&quot;&gt;- ui; Ui::UiBucketsTableWidget*&lt;/div&gt;&lt;div style=&quot;position: relative;&quot; data-slate-node=&quot;element&quot;&gt;&lt;br&gt;&lt;/div&gt;&lt;div style=&quot;position: relative;&quot; data-slate-node=&quot;element&quot;&gt;+ UiBucketsTableWidget(QWidget *parent = nullptr); explicit&lt;/div&gt;&lt;div style=&quot;position: relative;&quot; data-slate-node=&quot;element&quot;&gt;+ ~UiBucketsTableWidget();&lt;/div&gt;&lt;div style=&quot;position: relative;&quot; data-slate-node=&quot;element&quot;&gt;&lt;br&gt;&lt;/div&gt;&lt;div style=&quot;position: relative;&quot; data-slate-node=&quot;element&quot;&gt;- on_tableView_doubleClicked(const QModelIndex &amp;amp;index); void slots&lt;/div&gt;&lt;div style=&quot;position: relative;&quot; data-slate-node=&quot;element&quot;&gt;- onBucketsSuccess(const QList &amp;amp;buckets); void slots&lt;/div&gt;&lt;div style=&quot;position: relative;&quot; data-slate-node=&quot;element&quot;&gt;- onPageNumChanged(int start, int maxLen); void slots&lt;/div&gt;&lt;div style=&quot;position: relative;&quot; data-slate-node=&quot;element&quot;&gt;&lt;br&gt;&lt;/div&gt;&lt;div style=&quot;position: relative;&quot; data-slate-node=&quot;element&quot;&gt;- on_btnCreateBucket_clicked(); void slots&lt;/div&gt;&lt;div style=&quot;position: relative;&quot; data-slate-node=&quot;element&quot;&gt;- onDelBucket(); void slots&lt;/div&gt;&lt;div style=&quot;position: relative;&quot; data-slate-node=&quot;element&quot;&gt;- on_btnRefresh_clicked(); void slots&lt;/div&gt;&lt;/div&gt;&lt;/div&gt;" style="text;strokeColor=none;fillColor=none;align=left;verticalAlign=top;spacingLeft=4;spacingRight=4;overflow=hidden;rotatable=0;points=[[0,0.5],[1,0.5]];portConstraint=eastwest;whiteSpace=wrap;html=1;fontFamily=Helvetica;fontSize=16;fontColor=default;" parent="bUyf_h_fu0fvgD6pbiVa-10" vertex="1">
          <mxGeometry y="26" width="660" height="324" as="geometry" />
        </mxCell>
        <mxCell id="bUyf_h_fu0fvgD6pbiVa-12" value="&lt;span style=&quot;text-wrap: wrap;&quot;&gt;&lt;font style=&quot;font-size: 150px;&quot;&gt;fend/uimain&lt;/font&gt;&lt;/span&gt;" style="text;html=1;align=center;verticalAlign=middle;resizable=0;points=[];autosize=1;strokeColor=none;fillColor=none;" parent="1" vertex="1">
          <mxGeometry x="-2170" y="135" width="800" height="190" as="geometry" />
        </mxCell>
        <mxCell id="bUyf_h_fu0fvgD6pbiVa-13" value="&lt;span style=&quot;text-wrap: wrap;&quot;&gt;&lt;font style=&quot;font-size: 150px;&quot;&gt;fend/uicom&lt;/font&gt;&lt;/span&gt;" style="text;html=1;align=center;verticalAlign=middle;resizable=0;points=[];autosize=1;strokeColor=none;fillColor=none;" parent="1" vertex="1">
          <mxGeometry x="-2150" y="-750" width="760" height="190" as="geometry" />
        </mxCell>
        <mxCell id="bUyf_h_fu0fvgD6pbiVa-14" value="&lt;span style=&quot;text-wrap: wrap;&quot;&gt;&lt;font style=&quot;font-size: 150px;&quot;&gt;fend/uilogin&lt;/font&gt;&lt;/span&gt;" style="text;html=1;align=center;verticalAlign=middle;resizable=0;points=[];autosize=1;strokeColor=none;fillColor=none;" parent="1" vertex="1">
          <mxGeometry x="-2160" y="930" width="790" height="190" as="geometry" />
        </mxCell>
        <mxCell id="bUyf_h_fu0fvgD6pbiVa-15" value="fend/uimain（&lt;font color=&quot;#ff0000&quot;&gt;uiobjectstablewidget.h/.cpp/.ui&lt;/font&gt;）&lt;b&gt;UiObjectsTableWidget&lt;/b&gt;: public QWidget" style="swimlane;fontStyle=0;childLayout=stackLayout;horizontal=1;startSize=26;fillColor=none;horizontalStack=0;resizeParent=1;resizeParentMax=0;resizeLast=0;collapsible=1;marginBottom=0;whiteSpace=wrap;html=1;strokeColor=default;align=center;verticalAlign=middle;fontFamily=Helvetica;fontSize=16;fontColor=default;" parent="1" vertex="1">
          <mxGeometry x="2770" y="130" width="650" height="500" as="geometry" />
        </mxCell>
        <mxCell id="bUyf_h_fu0fvgD6pbiVa-16" value="&lt;div&gt;include：6&lt;/div&gt;&lt;div&gt;&lt;br&gt;&lt;/div&gt;&lt;div&gt;- ui; Ui::UiObjectsTableWidget*&lt;/div&gt;&lt;div&gt;&lt;br&gt;&lt;/div&gt;&lt;div&gt;+ UiObjectsTableWidget(QWidget *parent = nullptr); explicit&lt;/div&gt;&lt;div&gt;+ ~UiObjectsTableWidget();&lt;/div&gt;&lt;div&gt;&lt;br&gt;&lt;/div&gt;&lt;div&gt;- on_btnBuckets_clicked(); void slots&lt;/div&gt;&lt;div&gt;- on_tableView_doubleClicked(const QModelIndex &amp;amp;index); void slots&lt;/div&gt;&lt;div&gt;&lt;br&gt;&lt;/div&gt;&lt;div&gt;- onObjectsSuccess(const QList&amp;lt;MyObject&amp;gt;&amp;amp; objects); void slots&lt;/div&gt;&lt;div&gt;- onPathChanged(const QString&amp;amp; newPath); void slots&lt;/div&gt;&lt;div&gt;- onPageNumChanged(int start, int maxLen); void slots&lt;/div&gt;&lt;div&gt;&lt;br&gt;&lt;/div&gt;&lt;div&gt;- on_btnRefresh_clicked(); void slots&lt;/div&gt;&lt;div&gt;&lt;br&gt;&lt;/div&gt;&lt;div&gt;- on_btnUpload_clicked(); void slots&lt;/div&gt;&lt;div&gt;- onUploadSuccess(const QString&amp;amp; jobId); void slots&lt;/div&gt;&lt;div&gt;- onDownloadSuccess(const QString&amp;amp; jobId); void slots&lt;/div&gt;&lt;div&gt;&lt;br&gt;&lt;/div&gt;&lt;div&gt;- on_btnDownload_clicked(); void slots&lt;/div&gt;&lt;div&gt;&lt;br&gt;&lt;/div&gt;&lt;div&gt;- showMessage(const QString&amp;amp; title, const QString&amp;amp; info); void slots&lt;/div&gt;" style="text;strokeColor=none;fillColor=none;align=left;verticalAlign=top;spacingLeft=4;spacingRight=4;overflow=hidden;rotatable=0;points=[[0,0.5],[1,0.5]];portConstraint=eastwest;whiteSpace=wrap;html=1;fontFamily=Helvetica;fontSize=16;fontColor=default;" parent="bUyf_h_fu0fvgD6pbiVa-15" vertex="1">
          <mxGeometry y="26" width="650" height="474" as="geometry" />
        </mxCell>
        <mxCell id="jXg8koRfv7n7E3zIWO1i-1" value="&lt;span style=&quot;&quot;&gt;fend/uimain（&lt;/span&gt;&lt;font style=&quot;&quot; color=&quot;#ff0000&quot;&gt;uicreatebucketdialog.h/.cpp/.ui&lt;/font&gt;&lt;span style=&quot;&quot;&gt;）&lt;/span&gt;&lt;b style=&quot;&quot;&gt;UiCreateBucketDialog&lt;/b&gt;&lt;span style=&quot;&quot;&gt;: public&amp;nbsp;&lt;/span&gt;UiQosDialog" style="swimlane;fontStyle=0;childLayout=stackLayout;horizontal=1;startSize=26;fillColor=none;horizontalStack=0;resizeParent=1;resizeParentMax=0;resizeLast=0;collapsible=1;marginBottom=0;whiteSpace=wrap;html=1;strokeColor=default;align=center;verticalAlign=middle;fontFamily=Helvetica;fontSize=16;fontColor=default;" parent="1" vertex="1">
          <mxGeometry x="600" y="130" width="680" height="200" as="geometry" />
        </mxCell>
        <mxCell id="jXg8koRfv7n7E3zIWO1i-2" value="&lt;div&gt;include：2&lt;/div&gt;&lt;div&gt;&lt;br&gt;&lt;/div&gt;&lt;div&gt;+ UiCreateBucketDialog(QWidget *parent = nullptr); explicit&lt;/div&gt;&lt;div&gt;+ ~UiCreateBucketDialog();&lt;/div&gt;&lt;div&gt;&lt;br&gt;&lt;/div&gt;&lt;div&gt;+ getBucket(); MyBucket&lt;/div&gt;&lt;div&gt;&lt;br&gt;&lt;/div&gt;&lt;div&gt;- ui; Ui::UiCreateBucketDialog*&lt;/div&gt;&lt;div&gt;&lt;br&gt;&lt;/div&gt;" style="text;strokeColor=none;fillColor=none;align=left;verticalAlign=top;spacingLeft=4;spacingRight=4;overflow=hidden;rotatable=0;points=[[0,0.5],[1,0.5]];portConstraint=eastwest;whiteSpace=wrap;html=1;fontFamily=Helvetica;fontSize=16;fontColor=default;" parent="jXg8koRfv7n7E3zIWO1i-1" vertex="1">
          <mxGeometry y="26" width="680" height="174" as="geometry" />
        </mxCell>
        <mxCell id="jXg8koRfv7n7E3zIWO1i-6" value="" style="endArrow=block;endSize=16;endFill=0;html=1;fontFamily=Helvetica;fontSize=16;fontColor=default;rounded=0;exitX=0.25;exitY=0;exitDx=0;exitDy=0;entryX=0.643;entryY=1.01;entryDx=0;entryDy=0;entryPerimeter=0;" parent="1" source="jXg8koRfv7n7E3zIWO1i-1" target="szkKv_FyPF_dywsFow12-2" edge="1">
          <mxGeometry width="160" relative="1" as="geometry">
            <mxPoint x="500" y="-190" as="sourcePoint" />
            <mxPoint x="230" y="-310" as="targetPoint" />
          </mxGeometry>
        </mxCell>
        <mxCell id="jXg8koRfv7n7E3zIWO1i-7" value="&lt;span style=&quot;text-wrap: wrap;&quot;&gt;&lt;font style=&quot;font-size: 150px;&quot;&gt;fend/uitransfer&lt;/font&gt;&lt;/span&gt;" style="text;html=1;align=center;verticalAlign=middle;resizable=0;points=[];autosize=1;strokeColor=none;fillColor=none;" parent="1" vertex="1">
          <mxGeometry x="-2200" y="1860" width="980" height="190" as="geometry" />
        </mxCell>
        <mxCell id="jXg8koRfv7n7E3zIWO1i-8" value="fend/uitransfer（&lt;font color=&quot;#ff0000&quot;&gt;uiupload.h/.cpp/.ui&lt;/font&gt;）&lt;b&gt;UiUpload&lt;/b&gt;: public&amp;nbsp;QWidget" style="swimlane;fontStyle=0;childLayout=stackLayout;horizontal=1;startSize=26;fillColor=none;horizontalStack=0;resizeParent=1;resizeParentMax=0;resizeLast=0;collapsible=1;marginBottom=0;whiteSpace=wrap;html=1;strokeColor=default;align=center;verticalAlign=middle;fontFamily=Helvetica;fontSize=16;fontColor=default;" parent="1" vertex="1">
          <mxGeometry x="-880" y="1815" width="750" height="310" as="geometry" />
        </mxCell>
        <mxCell id="jXg8koRfv7n7E3zIWO1i-9" value="&lt;div style=&quot;orphans: 4;&quot;&gt;&lt;font face=&quot;Open Sans, Clear Sans, Helvetica Neue, Helvetica, Arial, Segoe UI Emoji, sans-serif&quot; color=&quot;#333333&quot;&gt;&lt;span style=&quot;white-space-collapse: preserve;&quot;&gt;include：2&lt;/span&gt;&lt;/font&gt;&lt;/div&gt;&lt;div&gt;&lt;br&gt;&lt;/div&gt;&lt;div&gt;- ui; Ui::UiUpload*&lt;br&gt;&lt;/div&gt;&lt;div&gt;&lt;br&gt;&lt;/div&gt;&lt;div&gt;&lt;div&gt;+ UiUpload(QWidget *parent = nullptr); explicit&lt;/div&gt;&lt;div&gt;+ ~UiUpload();&lt;/div&gt;&lt;div&gt;&lt;br&gt;&lt;/div&gt;&lt;div&gt;- onStartUpload(const QString&amp;amp; jobId, const QString&amp;amp; key, const QString&amp;amp; localPath); void slots&lt;/div&gt;&lt;div&gt;- onUploadProcess(const QString&amp;amp; jobId, qulonglong transferedSize, qulonglong totalSize); void slots&lt;/div&gt;&lt;div&gt;- onUploadSuccess(const QString&amp;amp; jobId); void slots&lt;/div&gt;&lt;div&gt;- onError(int api, const QString&amp;amp; msg, const QJsonValue &amp;amp;req); void slots&lt;/div&gt;&lt;div&gt;&lt;br&gt;&lt;/div&gt;&lt;div&gt;- findTableWidgetItem(const QString&amp;amp; jobId); UiProgressWidget*&lt;/div&gt;&lt;div&gt;- initHeader(); void&lt;/div&gt;&lt;div&gt;&lt;br&gt;&lt;/div&gt;&lt;div&gt;&lt;br&gt;&lt;/div&gt;&lt;/div&gt;&lt;div&gt;&lt;br&gt;&lt;/div&gt;" style="text;strokeColor=none;fillColor=none;align=left;verticalAlign=top;spacingLeft=4;spacingRight=4;overflow=hidden;rotatable=0;points=[[0,0.5],[1,0.5]];portConstraint=eastwest;whiteSpace=wrap;html=1;fontFamily=Helvetica;fontSize=16;fontColor=default;" parent="jXg8koRfv7n7E3zIWO1i-8" vertex="1">
          <mxGeometry y="26" width="750" height="284" as="geometry" />
        </mxCell>
        <mxCell id="jXg8koRfv7n7E3zIWO1i-10" value="fend/uitransfer（&lt;font color=&quot;#ff0000&quot;&gt;uidownload.h/.cpp/.ui&lt;/font&gt;）&lt;b&gt;UiDownload&lt;/b&gt;: public&amp;nbsp;QWidget" style="swimlane;fontStyle=0;childLayout=stackLayout;horizontal=1;startSize=26;fillColor=none;horizontalStack=0;resizeParent=1;resizeParentMax=0;resizeLast=0;collapsible=1;marginBottom=0;whiteSpace=wrap;html=1;strokeColor=default;align=center;verticalAlign=middle;fontFamily=Helvetica;fontSize=16;fontColor=default;" parent="1" vertex="1">
          <mxGeometry x="-30" y="1815" width="540" height="350" as="geometry" />
        </mxCell>
        <mxCell id="jXg8koRfv7n7E3zIWO1i-11" value="&lt;div style=&quot;orphans: 4;&quot;&gt;&lt;font face=&quot;Open Sans, Clear Sans, Helvetica Neue, Helvetica, Arial, Segoe UI Emoji, sans-serif&quot; color=&quot;#333333&quot;&gt;&lt;span style=&quot;white-space-collapse: preserve;&quot;&gt;include：2&lt;/span&gt;&lt;/font&gt;&lt;/div&gt;&lt;div&gt;&lt;br&gt;&lt;/div&gt;&lt;div&gt;- ui; Ui::UiDownload*&lt;br&gt;&lt;/div&gt;&lt;div&gt;&lt;br&gt;&lt;/div&gt;&lt;div&gt;&lt;div&gt;+ UiDownload(QWidget *parent = nullptr); explicit&lt;/div&gt;&lt;div&gt;+ ~UiDownload();&lt;/div&gt;&lt;div&gt;&lt;br&gt;&lt;/div&gt;&lt;div&gt;- onStartDownload(const QString&amp;amp; jobId, const QString&amp;amp; key,&amp;nbsp;&lt;/div&gt;&lt;div&gt;&lt;span style=&quot;white-space: pre;&quot;&gt;&#x9;&lt;/span&gt;&lt;span style=&quot;white-space: pre;&quot;&gt;&#x9;&lt;/span&gt;&lt;span style=&quot;white-space: pre;&quot;&gt;&#x9;&lt;/span&gt;&amp;nbsp; &amp;nbsp; &amp;nbsp; &amp;nbsp;const QString&amp;amp; localPath, qulonglong total); void slots&lt;/div&gt;&lt;div&gt;- onDownloadProcess(const QString&amp;amp; jobId, qulonglong transferedSize,&amp;nbsp;&lt;/div&gt;&lt;div&gt;&lt;span style=&quot;white-space: pre;&quot;&gt;&#x9;&lt;/span&gt;&lt;span style=&quot;white-space: pre;&quot;&gt;&#x9;&lt;/span&gt;&lt;span style=&quot;white-space: pre;&quot;&gt;&#x9;&lt;/span&gt;&lt;span style=&quot;white-space: pre;&quot;&gt;&#x9;&lt;/span&gt;&amp;nbsp; &amp;nbsp; &amp;nbsp;qulonglong totalSize); void slots&lt;/div&gt;&lt;div&gt;- onDownloadSuccess(const QString&amp;amp; jobId); void slots&lt;/div&gt;&lt;div&gt;- onError(int api, const QString &amp;amp;msg, const QJsonValue &amp;amp;req); void slots&lt;/div&gt;&lt;div&gt;&lt;br&gt;&lt;/div&gt;&lt;div&gt;- findTableWidgetItem(const QString&amp;amp; jobId); UiProgressWidget*&lt;/div&gt;&lt;div&gt;- initHeader(); void&lt;/div&gt;&lt;/div&gt;" style="text;strokeColor=none;fillColor=none;align=left;verticalAlign=top;spacingLeft=4;spacingRight=4;overflow=hidden;rotatable=0;points=[[0,0.5],[1,0.5]];portConstraint=eastwest;whiteSpace=wrap;html=1;fontFamily=Helvetica;fontSize=16;fontColor=default;" parent="jXg8koRfv7n7E3zIWO1i-10" vertex="1">
          <mxGeometry y="26" width="540" height="324" as="geometry" />
        </mxCell>
        <mxCell id="jXg8koRfv7n7E3zIWO1i-13" value="fend/uitransfer（&lt;font color=&quot;#ff0000&quot;&gt;uitransfer.h/.cpp/.ui&lt;/font&gt;）&lt;b&gt;UiTransfer&lt;/b&gt;: public&amp;nbsp;UiQosDialog" style="swimlane;fontStyle=0;childLayout=stackLayout;horizontal=1;startSize=26;fillColor=none;horizontalStack=0;resizeParent=1;resizeParentMax=0;resizeLast=0;collapsible=1;marginBottom=0;whiteSpace=wrap;html=1;strokeColor=default;align=center;verticalAlign=middle;fontFamily=Helvetica;fontSize=16;fontColor=default;" parent="1" vertex="1">
          <mxGeometry x="600" y="1815" width="540" height="160" as="geometry" />
        </mxCell>
        <mxCell id="jXg8koRfv7n7E3zIWO1i-14" value="&lt;div style=&quot;orphans: 4;&quot;&gt;&lt;font face=&quot;Open Sans, Clear Sans, Helvetica Neue, Helvetica, Arial, Segoe UI Emoji, sans-serif&quot; color=&quot;#333333&quot;&gt;&lt;span style=&quot;white-space-collapse: preserve;&quot;&gt;include：2&lt;/span&gt;&lt;/font&gt;&lt;/div&gt;&lt;div&gt;&lt;br&gt;&lt;/div&gt;&lt;div&gt;&lt;div&gt;+ UiTransfer(QWidget *parent = nullptr); explicit&lt;/div&gt;&lt;div&gt;+ ~UiTransfer();&lt;/div&gt;&lt;div&gt;&lt;br&gt;&lt;/div&gt;&lt;div&gt;- ui; Ui::UiTransfer*&lt;/div&gt;&lt;/div&gt;&lt;div&gt;&lt;br&gt;&lt;/div&gt;&lt;div&gt;&lt;div&gt;&lt;br&gt;&lt;/div&gt;&lt;div&gt;&lt;br&gt;&lt;/div&gt;&lt;/div&gt;&lt;div&gt;&lt;br&gt;&lt;/div&gt;&lt;div&gt;&lt;div&gt;&lt;br&gt;&lt;/div&gt;&lt;div&gt;&lt;br&gt;&lt;/div&gt;&lt;/div&gt;&lt;div&gt;&lt;br&gt;&lt;/div&gt;" style="text;strokeColor=none;fillColor=none;align=left;verticalAlign=top;spacingLeft=4;spacingRight=4;overflow=hidden;rotatable=0;points=[[0,0.5],[1,0.5]];portConstraint=eastwest;whiteSpace=wrap;html=1;fontFamily=Helvetica;fontSize=16;fontColor=default;" parent="jXg8koRfv7n7E3zIWO1i-13" vertex="1">
          <mxGeometry y="26" width="540" height="134" as="geometry" />
        </mxCell>
        <mxCell id="jXg8koRfv7n7E3zIWO1i-15" value="" style="endArrow=block;endSize=16;endFill=0;html=1;fontFamily=Helvetica;fontSize=16;fontColor=default;rounded=0;exitX=0.5;exitY=0;exitDx=0;exitDy=0;entryX=0.566;entryY=1.068;entryDx=0;entryDy=0;entryPerimeter=0;" parent="1" source="jXg8koRfv7n7E3zIWO1i-13" target="szkKv_FyPF_dywsFow12-2" edge="1">
          <mxGeometry width="160" relative="1" as="geometry">
            <mxPoint x="1260" y="1680" as="sourcePoint" />
            <mxPoint x="1130" y="370" as="targetPoint" />
          </mxGeometry>
        </mxCell>
        <mxCell id="TGIYVPHgT18B1LuSgayI-1" value="fend/uicom（&lt;font color=&quot;#ff0000&quot;&gt;uiprogresswidget.h/.cpp/.ui&lt;/font&gt;）&lt;b&gt;UiProgressWidget&lt;/b&gt;: public QWidget" style="swimlane;fontStyle=0;childLayout=stackLayout;horizontal=1;startSize=26;fillColor=none;horizontalStack=0;resizeParent=1;resizeParentMax=0;resizeLast=0;collapsible=1;marginBottom=0;whiteSpace=wrap;html=1;strokeColor=default;align=center;verticalAlign=middle;fontFamily=Helvetica;fontSize=16;fontColor=default;" parent="1" vertex="1">
          <mxGeometry x="2370" y="-900" width="590" height="330" as="geometry" />
        </mxCell>
        <mxCell id="TGIYVPHgT18B1LuSgayI-2" value="&lt;div&gt;include：1&lt;/div&gt;&lt;div&gt;&lt;span style=&quot;color: rgb(51, 51, 51); font-family: &amp;quot;Open Sans&amp;quot;, &amp;quot;Clear Sans&amp;quot;, &amp;quot;Helvetica Neue&amp;quot;, Helvetica, Arial, &amp;quot;Segoe UI Emoji&amp;quot;, sans-serif; orphans: 4; white-space-collapse: preserve;&quot;&gt;进度条&lt;/span&gt;&lt;br&gt;&lt;/div&gt;&lt;div&gt;&lt;span style=&quot;color: rgb(51, 51, 51); font-family: &amp;quot;Open Sans&amp;quot;, &amp;quot;Clear Sans&amp;quot;, &amp;quot;Helvetica Neue&amp;quot;, Helvetica, Arial, &amp;quot;Segoe UI Emoji&amp;quot;, sans-serif; orphans: 4; white-space-collapse: preserve;&quot;&gt;&lt;br&gt;&lt;/span&gt;&lt;/div&gt;&lt;div&gt;&lt;div&gt;&lt;div&gt;- ui; Ui::UiProgressWidget*&lt;/div&gt;&lt;div&gt;- m_time; QElapsedTimer&lt;/div&gt;&lt;/div&gt;&lt;div&gt;&lt;br&gt;&lt;/div&gt;&lt;div&gt;+ UiProgressWidget(QWidget *parent = nullptr); explicit&lt;/div&gt;&lt;div&gt;+ ~UiProgressWidget();&lt;/div&gt;&lt;div&gt;&lt;br&gt;&lt;/div&gt;&lt;div&gt;+ setRange(qulonglong minValue, qulonglong maxValue); void&lt;/div&gt;&lt;div&gt;+ setValue(qulonglong value); void&lt;/div&gt;&lt;div&gt;&lt;br&gt;&lt;/div&gt;&lt;div&gt;+ stop(); void&lt;/div&gt;&lt;div&gt;+ setFinished(const QString&amp;amp; msg); void&lt;/div&gt;&lt;div&gt;+ setError(const QString&amp;amp; msg); void&lt;/div&gt;&lt;div&gt;&lt;span style=&quot;background-color: initial;&quot;&gt;&amp;nbsp;&lt;/span&gt;&lt;br&gt;&lt;/div&gt;&lt;/div&gt;" style="text;strokeColor=none;fillColor=none;align=left;verticalAlign=top;spacingLeft=4;spacingRight=4;overflow=hidden;rotatable=0;points=[[0,0.5],[1,0.5]];portConstraint=eastwest;whiteSpace=wrap;html=1;fontFamily=Helvetica;fontSize=16;fontColor=default;" parent="TGIYVPHgT18B1LuSgayI-1" vertex="1">
          <mxGeometry y="26" width="590" height="304" as="geometry" />
        </mxCell>
        <mxCell id="TGIYVPHgT18B1LuSgayI-3" value="fend/uicom（&lt;font color=&quot;#ff0000&quot;&gt;uimessagebox.h/.cpp/.ui&lt;/font&gt;）&lt;b&gt;UiMessageBox&lt;/b&gt;: public UiQosDialog" style="swimlane;fontStyle=0;childLayout=stackLayout;horizontal=1;startSize=26;fillColor=none;horizontalStack=0;resizeParent=1;resizeParentMax=0;resizeLast=0;collapsible=1;marginBottom=0;whiteSpace=wrap;html=1;strokeColor=default;align=center;verticalAlign=middle;fontFamily=Helvetica;fontSize=16;fontColor=default;" parent="1" vertex="1">
          <mxGeometry x="3080" y="-900" width="630" height="290" as="geometry" />
        </mxCell>
        <mxCell id="TGIYVPHgT18B1LuSgayI-4" value="&lt;div&gt;include：1&lt;/div&gt;&lt;div&gt;&lt;span style=&quot;color: rgb(51, 51, 51); font-family: &amp;quot;Open Sans&amp;quot;, &amp;quot;Clear Sans&amp;quot;, &amp;quot;Helvetica Neue&amp;quot;, Helvetica, Arial, &amp;quot;Segoe UI Emoji&amp;quot;, sans-serif; orphans: 4; white-space-collapse: preserve;&quot;&gt;自定义消息框&lt;/span&gt;&lt;br&gt;&lt;/div&gt;&lt;div&gt;&lt;span style=&quot;color: rgb(51, 51, 51); font-family: &amp;quot;Open Sans&amp;quot;, &amp;quot;Clear Sans&amp;quot;, &amp;quot;Helvetica Neue&amp;quot;, Helvetica, Arial, &amp;quot;Segoe UI Emoji&amp;quot;, sans-serif; orphans: 4; white-space-collapse: preserve;&quot;&gt;&lt;br&gt;&lt;/span&gt;&lt;/div&gt;&lt;div&gt;&lt;div&gt;&lt;div&gt;- ui; Ui::UiMessageBox*&lt;/div&gt;&lt;div&gt;- m_text; QString&lt;/div&gt;&lt;/div&gt;&lt;div&gt;&lt;br&gt;&lt;/div&gt;&lt;/div&gt;&lt;div&gt;&lt;div&gt;+ UiMessageBox(QWidget *parent = nullptr); explicit&lt;/div&gt;&lt;div&gt;+ ~UiMessageBox();&lt;/div&gt;&lt;div&gt;&lt;br&gt;&lt;/div&gt;&lt;div&gt;+ showMessage(const QString&amp;amp; title, const QString&amp;amp; text,&amp;nbsp;&lt;/div&gt;&lt;div&gt;&lt;span style=&quot;white-space: pre;&quot;&gt;&#x9;&lt;/span&gt;&lt;span style=&quot;white-space: pre;&quot;&gt;&#x9;&lt;/span&gt;&amp;nbsp; &amp;nbsp;&lt;span style=&quot;white-space: pre;&quot;&gt;&#x9;&lt;/span&gt;&amp;nbsp; &amp;nbsp;const QStringList&amp;amp; btnTextList = QStringList(QString(&quot;确定&quot;))); QString&lt;/div&gt;&lt;div&gt;&lt;br&gt;&lt;/div&gt;&lt;div&gt;- createBtns(const QStringList&amp;amp; textList); void&lt;/div&gt;&lt;div&gt;&lt;br&gt;&lt;/div&gt;&lt;div&gt;&lt;br&gt;&lt;/div&gt;&lt;/div&gt;&lt;div&gt;&lt;div&gt;&lt;br&gt;&lt;/div&gt;&lt;/div&gt;&lt;div&gt;&lt;br&gt;&lt;/div&gt;" style="text;strokeColor=none;fillColor=none;align=left;verticalAlign=top;spacingLeft=4;spacingRight=4;overflow=hidden;rotatable=0;points=[[0,0.5],[1,0.5]];portConstraint=eastwest;whiteSpace=wrap;html=1;fontFamily=Helvetica;fontSize=16;fontColor=default;" parent="TGIYVPHgT18B1LuSgayI-3" vertex="1">
          <mxGeometry y="26" width="630" height="264" as="geometry" />
        </mxCell>
        <mxCell id="TGIYVPHgT18B1LuSgayI-5" value="" style="endArrow=block;endSize=16;endFill=0;html=1;fontFamily=Helvetica;fontSize=16;fontColor=default;rounded=0;exitX=0.5;exitY=0;exitDx=0;exitDy=0;edgeStyle=orthogonalEdgeStyle;elbow=vertical;curved=1;entryX=0.75;entryY=0;entryDx=0;entryDy=0;" parent="1" source="TGIYVPHgT18B1LuSgayI-3" target="szkKv_FyPF_dywsFow12-1" edge="1">
          <mxGeometry width="160" relative="1" as="geometry">
            <mxPoint x="3280" y="-950" as="sourcePoint" />
            <mxPoint x="170" y="-1040" as="targetPoint" />
            <Array as="points">
              <mxPoint x="3395" y="-1040" />
              <mxPoint x="220" y="-1040" />
            </Array>
          </mxGeometry>
        </mxCell>
        <mxCell id="NOzYqoz2jfJxmxpT4Zhj-1" value="fend/uicom（&lt;font color=&quot;#ff0000&quot;&gt;uilineedit.h/.cpp&lt;/font&gt;）&lt;b&gt;UiLineEdit&lt;/b&gt;: public QLineEidt" style="swimlane;fontStyle=0;childLayout=stackLayout;horizontal=1;startSize=26;fillColor=none;horizontalStack=0;resizeParent=1;resizeParentMax=0;resizeLast=0;collapsible=1;marginBottom=0;whiteSpace=wrap;html=1;strokeColor=default;align=center;verticalAlign=middle;fontFamily=Helvetica;fontSize=16;fontColor=default;" parent="1" vertex="1">
          <mxGeometry x="3780" y="-900" width="460" height="160" as="geometry" />
        </mxCell>
        <mxCell id="NOzYqoz2jfJxmxpT4Zhj-2" value="&lt;div&gt;include：0&lt;/div&gt;&lt;div&gt;&lt;span style=&quot;color: rgb(51, 51, 51); font-family: &amp;quot;Open Sans&amp;quot;, &amp;quot;Clear Sans&amp;quot;, &amp;quot;Helvetica Neue&amp;quot;, Helvetica, Arial, &amp;quot;Segoe UI Emoji&amp;quot;, sans-serif; orphans: 4; white-space-collapse: preserve;&quot;&gt;自定义输入提示框&lt;/span&gt;&lt;br&gt;&lt;/div&gt;&lt;div&gt;&lt;br&gt;&lt;/div&gt;&lt;div&gt;&lt;div&gt;+&amp;nbsp;&lt;span style=&quot;text-align: center;&quot;&gt;UiLineEdit&lt;/span&gt;(QWidget *parent = nullptr); explicit&lt;/div&gt;&lt;div&gt;&lt;br&gt;&lt;/div&gt;&lt;div&gt;#&amp;nbsp;&lt;i&gt;keyPressEvent&lt;/i&gt;(QKeyEvent *event); void&lt;/div&gt;&lt;div&gt;&lt;br&gt;&lt;/div&gt;&lt;div&gt;&lt;br&gt;&lt;/div&gt;&lt;/div&gt;&lt;div&gt;&lt;div&gt;&lt;br&gt;&lt;/div&gt;&lt;/div&gt;&lt;div&gt;&lt;br&gt;&lt;/div&gt;" style="text;strokeColor=none;fillColor=none;align=left;verticalAlign=top;spacingLeft=4;spacingRight=4;overflow=hidden;rotatable=0;points=[[0,0.5],[1,0.5]];portConstraint=eastwest;whiteSpace=wrap;html=1;fontFamily=Helvetica;fontSize=16;fontColor=default;" parent="NOzYqoz2jfJxmxpT4Zhj-1" vertex="1">
          <mxGeometry y="26" width="460" height="134" as="geometry" />
        </mxCell>
        <mxCell id="NOzYqoz2jfJxmxpT4Zhj-3" value="fend/uimain（&lt;font color=&quot;#ff0000&quot;&gt;uitoolbarwidget.h/.cpp/.ui&lt;/font&gt;）&lt;b&gt;UiToolBarWidget&lt;/b&gt;: public QWidget" style="swimlane;fontStyle=0;childLayout=stackLayout;horizontal=1;startSize=26;fillColor=none;horizontalStack=0;resizeParent=1;resizeParentMax=0;resizeLast=0;collapsible=1;marginBottom=0;whiteSpace=wrap;html=1;strokeColor=default;align=center;verticalAlign=middle;fontFamily=Helvetica;fontSize=16;fontColor=default;" parent="1" vertex="1">
          <mxGeometry x="3460" y="130" width="570" height="200" as="geometry" />
        </mxCell>
        <mxCell id="NOzYqoz2jfJxmxpT4Zhj-4" value="&lt;div&gt;include：1&lt;/div&gt;&lt;div&gt;&lt;br&gt;&lt;/div&gt;&lt;div&gt;- ui; Ui::UiToolBarWidget*&lt;br&gt;&lt;/div&gt;&lt;div&gt;&lt;br&gt;&lt;/div&gt;&lt;div&gt;&lt;div&gt;+ UiToolBarWidget(QWidget *parent = nullptr); explicit&lt;/div&gt;&lt;div&gt;+ ~UiToolBarWidget();&lt;/div&gt;&lt;div&gt;&lt;br&gt;&lt;/div&gt;&lt;div&gt;- on_btnQuit_clicked(); void slots&lt;/div&gt;&lt;/div&gt;" style="text;strokeColor=none;fillColor=none;align=left;verticalAlign=top;spacingLeft=4;spacingRight=4;overflow=hidden;rotatable=0;points=[[0,0.5],[1,0.5]];portConstraint=eastwest;whiteSpace=wrap;html=1;fontFamily=Helvetica;fontSize=16;fontColor=default;" parent="NOzYqoz2jfJxmxpT4Zhj-3" vertex="1">
          <mxGeometry y="26" width="570" height="174" as="geometry" />
        </mxCell>
        <mxCell id="35ddwTAHWgaAMXpD3uY1-1" value="fend/uicom（&lt;font color=&quot;#ff0000&quot;&gt;uipushbutton.h/.cpp&lt;/font&gt;）&lt;b&gt;UiPushButton&lt;/b&gt;: public QPushButton" style="swimlane;fontStyle=0;childLayout=stackLayout;horizontal=1;startSize=26;fillColor=none;horizontalStack=0;resizeParent=1;resizeParentMax=0;resizeLast=0;collapsible=1;marginBottom=0;whiteSpace=wrap;html=1;strokeColor=default;align=center;verticalAlign=middle;fontFamily=Helvetica;fontSize=16;fontColor=default;" vertex="1" parent="1">
          <mxGeometry x="4280" y="-900" width="530" height="210" as="geometry" />
        </mxCell>
        <mxCell id="35ddwTAHWgaAMXpD3uY1-2" value="&lt;div&gt;include：0&lt;/div&gt;&lt;div&gt;&lt;span style=&quot;color: rgb(51, 51, 51); font-family: &amp;quot;Open Sans&amp;quot;, &amp;quot;Clear Sans&amp;quot;, &amp;quot;Helvetica Neue&amp;quot;, Helvetica, Arial, &amp;quot;Segoe UI Emoji&amp;quot;, sans-serif; orphans: 4; white-space-collapse: preserve;&quot;&gt;自定义按钮，设置鼠标移动到按钮上时显示的形状&lt;/span&gt;&lt;br&gt;&lt;/div&gt;&lt;div&gt;&lt;br&gt;&lt;/div&gt;&lt;div&gt;&lt;p data-pm-slice=&quot;1 1 []&quot;&gt;+ UiPushButton(QWidget* parent=nullptr);&lt;/p&gt;&lt;p data-pm-slice=&quot;1 1 []&quot;&gt;# enterEvent(QEvent *event); virtual void&lt;/p&gt;&lt;p data-pm-slice=&quot;1 1 []&quot;&gt;# leaveEvent(QEvent *event); virtual void&lt;/p&gt;&lt;/div&gt;&lt;div&gt;&lt;div&gt;&lt;br&gt;&lt;/div&gt;&lt;/div&gt;&lt;div&gt;&lt;br&gt;&lt;/div&gt;" style="text;strokeColor=none;fillColor=none;align=left;verticalAlign=top;spacingLeft=4;spacingRight=4;overflow=hidden;rotatable=0;points=[[0,0.5],[1,0.5]];portConstraint=eastwest;whiteSpace=wrap;html=1;fontFamily=Helvetica;fontSize=16;fontColor=default;" vertex="1" parent="35ddwTAHWgaAMXpD3uY1-1">
          <mxGeometry y="26" width="530" height="184" as="geometry" />
        </mxCell>
        <mxCell id="35ddwTAHWgaAMXpD3uY1-3" value="fend/uicom（&lt;font color=&quot;#ff0000&quot;&gt;uitableview.h/.cpp&lt;/font&gt;）&lt;b&gt;UiTableView&lt;/b&gt;: public QTableView" style="swimlane;fontStyle=0;childLayout=stackLayout;horizontal=1;startSize=26;fillColor=none;horizontalStack=0;resizeParent=1;resizeParentMax=0;resizeLast=0;collapsible=1;marginBottom=0;whiteSpace=wrap;html=1;strokeColor=default;align=center;verticalAlign=middle;fontFamily=Helvetica;fontSize=16;fontColor=default;" vertex="1" parent="1">
          <mxGeometry x="4860" y="-900" width="530" height="140" as="geometry" />
        </mxCell>
        <mxCell id="35ddwTAHWgaAMXpD3uY1-4" value="&lt;div&gt;include：0&lt;/div&gt;&lt;div&gt;&lt;span style=&quot;color: rgb(51, 51, 51); font-family: &amp;quot;Open Sans&amp;quot;, &amp;quot;Clear Sans&amp;quot;, &amp;quot;Helvetica Neue&amp;quot;, Helvetica, Arial, &amp;quot;Segoe UI Emoji&amp;quot;, sans-serif; orphans: 4; white-space-collapse: preserve;&quot;&gt;表视图代理设置&lt;/span&gt;&lt;br&gt;&lt;/div&gt;&lt;div&gt;&lt;br&gt;&lt;/div&gt;&lt;div&gt;&lt;div&gt;&lt;br&gt;&lt;/div&gt;&lt;/div&gt;&lt;div&gt;&lt;div&gt;+ UiTableView(QWidget* parent=nullptr);&lt;/div&gt;&lt;/div&gt;&lt;div&gt;&lt;br&gt;&lt;/div&gt;" style="text;strokeColor=none;fillColor=none;align=left;verticalAlign=top;spacingLeft=4;spacingRight=4;overflow=hidden;rotatable=0;points=[[0,0.5],[1,0.5]];portConstraint=eastwest;whiteSpace=wrap;html=1;fontFamily=Helvetica;fontSize=16;fontColor=default;" vertex="1" parent="35ddwTAHWgaAMXpD3uY1-3">
          <mxGeometry y="26" width="530" height="114" as="geometry" />
        </mxCell>
      </root>
    </mxGraphModel>
  </diagram>
  <diagram id="-qfBS6exfi4YRAqH8sOW" name="middle">
    <mxGraphModel dx="2369" dy="2914" grid="1" gridSize="10" guides="1" tooltips="1" connect="1" arrows="1" fold="1" page="0" pageScale="1" pageWidth="827" pageHeight="1169" math="0" shadow="0">
      <root>
        <mxCell id="0" />
        <mxCell id="1" parent="0" />
        <mxCell id="wd8XevwhrWErxxZBxHDC-1" value="middle（&lt;font color=&quot;#ff0000&quot;&gt;manglobal.h/.cpp&lt;/font&gt;）&lt;b&gt;ManGlobal&lt;/b&gt;: public QObject" style="swimlane;fontStyle=0;childLayout=stackLayout;horizontal=1;startSize=26;fillColor=none;horizontalStack=0;resizeParent=1;resizeParentMax=0;resizeLast=0;collapsible=1;marginBottom=0;whiteSpace=wrap;html=1;strokeColor=default;align=center;verticalAlign=middle;fontFamily=Helvetica;fontSize=16;fontColor=default;" parent="1" vertex="1">
          <mxGeometry x="80" y="-80" width="920" height="490" as="geometry" />
        </mxCell>
        <mxCell id="wd8XevwhrWErxxZBxHDC-2" value="&lt;div&gt;include：9&lt;/div&gt;&lt;div&gt;&lt;br&gt;&lt;/div&gt;&lt;div&gt;+ mLog = nullptr;&amp;nbsp;&lt;span style=&quot;background-color: initial;&quot;&gt;LoggerProxy*&lt;/span&gt;&lt;span style=&quot;background-color: initial;&quot;&gt;&amp;nbsp;&lt;/span&gt;&lt;/div&gt;&lt;div&gt;+ mCloud = nullptr;&amp;nbsp;&lt;span style=&quot;background-color: initial;&quot;&gt;ManCloud*&lt;/span&gt;&lt;span style=&quot;background-color: initial;&quot;&gt;&amp;nbsp;&lt;/span&gt;&lt;/div&gt;&lt;div&gt;+ mDb = nullptr;&amp;nbsp;&lt;span style=&quot;background-color: initial;&quot;&gt;ManDB*&lt;/span&gt;&lt;span style=&quot;background-color: initial;&quot;&gt;&amp;nbsp;&lt;/span&gt;&lt;/div&gt;&lt;div&gt;+ mPlugin = nullptr;&amp;nbsp;&lt;span style=&quot;background-color: initial;&quot;&gt;ManPlugin*&lt;/span&gt;&lt;span style=&quot;background-color: initial;&quot;&gt;&amp;nbsp;&lt;/span&gt;&lt;/div&gt;&lt;div&gt;+ mGate = nullptr;&amp;nbsp;&lt;span style=&quot;background-color: initial;&quot;&gt;GateWay*&lt;/span&gt;&lt;span style=&quot;background-color: initial;&quot;&gt;&amp;nbsp;&lt;/span&gt;&lt;/div&gt;&lt;div&gt;+ mSignal = nullptr;&amp;nbsp;&lt;span style=&quot;background-color: initial;&quot;&gt;ManSignals*&lt;/span&gt;&lt;span style=&quot;background-color: initial;&quot;&gt;&amp;nbsp;&lt;/span&gt;&lt;/div&gt;&lt;div&gt;+ mModels = nullptr;&amp;nbsp;&lt;span style=&quot;background-color: initial;&quot;&gt;ManModels*&lt;/span&gt;&lt;span style=&quot;background-color: initial;&quot;&gt;&amp;nbsp;&lt;/span&gt;&lt;/div&gt;&lt;div&gt;&lt;br&gt;&lt;/div&gt;&lt;div&gt;&lt;div&gt;+ ManGlobal(QObject *parent = nullptr);&amp;nbsp;&lt;span style=&quot;background-color: initial;&quot;&gt;explicit&lt;/span&gt;&lt;span style=&quot;background-color: initial;&quot;&gt;&amp;nbsp;&lt;/span&gt;&lt;/div&gt;&lt;div&gt;+ ~ManGlobal();&lt;/div&gt;&lt;div&gt;+ ManGlobal* instance();&amp;nbsp;&lt;span style=&quot;background-color: initial;&quot;&gt;static&lt;/span&gt;&lt;span style=&quot;background-color: initial;&quot;&gt;&amp;nbsp;&lt;/span&gt;&lt;/div&gt;&lt;div&gt;+ init(int argc, char *argv[]);&amp;nbsp;&lt;span style=&quot;background-color: initial;&quot;&gt;void&lt;/span&gt;&lt;span style=&quot;background-color: initial;&quot;&gt;&amp;nbsp;&lt;/span&gt;&lt;/div&gt;&lt;/div&gt;&lt;div&gt;&lt;span style=&quot;background-color: initial;&quot;&gt;&lt;br&gt;&lt;/span&gt;&lt;/div&gt;&lt;div&gt;&lt;span style=&quot;background-color: initial;&quot;&gt;&lt;div&gt;#define MG ManGlobal::instance()&lt;/div&gt;&lt;div&gt;#define mLogIns MG-&amp;gt;mLog&lt;/div&gt;&lt;div&gt;#define mTotle mLogIns-&amp;gt;reset(QT_MESSAGELOG_FILE, QT_MESSAGELOG_LINE, QT_MESSAGELOG_FUNC).total&lt;/div&gt;&lt;div&gt;#define mDebug mLogIns-&amp;gt;reset(QT_MESSAGELOG_FILE, QT_MESSAGELOG_LINE, QT_MESSAGELOG_FUNC).debug&lt;/div&gt;&lt;div&gt;#define mInfo mLogIns-&amp;gt;reset(QT_MESSAGELOG_FILE, QT_MESSAGELOG_LINE, QT_MESSAGELOG_FUNC).info&lt;/div&gt;&lt;div&gt;#define mWarning mLogIns-&amp;gt;reset(QT_MESSAGELOG_FILE, QT_MESSAGELOG_LINE, QT_MESSAGELOG_FUNC).warning&lt;/div&gt;&lt;div&gt;#define mError mLogIns-&amp;gt;reset(QT_MESSAGELOG_FILE, QT_MESSAGELOG_LINE, QT_MESSAGELOG_FUNC).error&lt;/div&gt;&lt;div&gt;#define mFatal mLogIns-&amp;gt;reset(QT_MESSAGELOG_FILE, QT_MESSAGELOG_LINE, QT_MESSAGELOG_FUNC).fatal&lt;/div&gt;&lt;/span&gt;&lt;/div&gt;" style="text;strokeColor=none;fillColor=none;align=left;verticalAlign=top;spacingLeft=4;spacingRight=4;overflow=hidden;rotatable=0;points=[[0,0.5],[1,0.5]];portConstraint=eastwest;whiteSpace=wrap;html=1;fontFamily=Helvetica;fontSize=16;fontColor=default;" parent="wd8XevwhrWErxxZBxHDC-1" vertex="1">
          <mxGeometry y="26" width="920" height="464" as="geometry" />
        </mxCell>
        <mxCell id="wd8XevwhrWErxxZBxHDC-5" value="middle/signals（&lt;font color=&quot;#ff0000&quot;&gt;mansignals.h/.cpp&lt;/font&gt;）&lt;b&gt;ManSignals&lt;/b&gt;: public QObject" style="swimlane;fontStyle=0;childLayout=stackLayout;horizontal=1;startSize=26;fillColor=none;horizontalStack=0;resizeParent=1;resizeParentMax=0;resizeLast=0;collapsible=1;marginBottom=0;whiteSpace=wrap;html=1;strokeColor=default;align=center;verticalAlign=middle;fontFamily=Helvetica;fontSize=16;fontColor=default;" parent="1" vertex="1">
          <mxGeometry x="80" y="-600" width="690" height="430" as="geometry" />
        </mxCell>
        <mxCell id="wd8XevwhrWErxxZBxHDC-6" value="&lt;div&gt;include：1&lt;/div&gt;&lt;div&gt;&lt;br&gt;&lt;/div&gt;&lt;div&gt;+&amp;nbsp;&lt;span style=&quot;background-color: initial;&quot;&gt;ManSignals(QObject *parent = nullptr);&amp;nbsp;&lt;/span&gt;&lt;span style=&quot;background-color: initial;&quot;&gt;explicit&lt;/span&gt;&lt;span style=&quot;background-color: initial;&quot;&gt;&amp;nbsp;&lt;/span&gt;&lt;/div&gt;&lt;div&gt;+ ~ManSignals();&lt;/div&gt;&lt;div&gt;&lt;br&gt;&lt;/div&gt;&lt;div&gt;&lt;div&gt;- loginSuccess();&amp;nbsp;&lt;span style=&quot;background-color: initial;&quot;&gt;void&lt;/span&gt;&lt;span style=&quot;background-color: initial;&quot;&gt;&amp;nbsp;signals&lt;/span&gt;&lt;/div&gt;&lt;div&gt;- error(int api, const QString&amp;amp; msg,&amp;nbsp; const QJsonValue &amp;amp;req);&amp;nbsp;&lt;span style=&quot;background-color: initial;&quot;&gt;void&lt;/span&gt;&lt;span style=&quot;background-color: initial;&quot;&gt;&amp;nbsp;signals&lt;/span&gt;&lt;/div&gt;&lt;div&gt;- unLogin();&amp;nbsp;&lt;span style=&quot;background-color: initial;&quot;&gt;void&lt;/span&gt;&lt;span style=&quot;background-color: initial;&quot;&gt;&amp;nbsp; signals&lt;/span&gt;&lt;/div&gt;&lt;div&gt;&lt;span style=&quot;background-color: initial;&quot;&gt;&lt;br&gt;&lt;/span&gt;&lt;/div&gt;&lt;div&gt;- bucketsSuccess(const QList&amp;lt;MyBucket&amp;gt;&amp;amp; buckets);&amp;nbsp;&lt;span style=&quot;background-color: initial;&quot;&gt;void&lt;/span&gt;&lt;span style=&quot;background-color: initial;&quot;&gt;&amp;nbsp;signals&lt;/span&gt;&lt;/div&gt;&lt;div&gt;- objectsSuccess(const QList&amp;lt;MyObject&amp;gt;&amp;amp; objects);&amp;nbsp;&lt;span style=&quot;background-color: initial;&quot;&gt;void&lt;/span&gt;&lt;span style=&quot;background-color: initial;&quot;&gt;&amp;nbsp;signals&lt;/span&gt;&lt;/div&gt;&lt;div&gt;&lt;span style=&quot;background-color: initial;&quot;&gt;&lt;br&gt;&lt;/span&gt;&lt;/div&gt;&lt;div&gt;- startDownload(const QString &amp;amp;jobId, const QString &amp;amp;key, const QString &amp;amp;localPath,&amp;nbsp;&lt;/div&gt;&lt;div&gt;&amp;nbsp; &lt;span style=&quot;white-space: pre;&quot;&gt;&#x9;&lt;/span&gt;&lt;span style=&quot;white-space: pre;&quot;&gt;&#x9;&lt;/span&gt;&lt;span style=&quot;white-space: pre;&quot;&gt;&#x9;&lt;/span&gt;&amp;nbsp; &amp;nbsp;qulonglong total);&amp;nbsp;&lt;span style=&quot;background-color: initial;&quot;&gt;void&lt;/span&gt;&lt;span style=&quot;background-color: initial;&quot;&gt;&amp;nbsp;signals&lt;/span&gt;&lt;/div&gt;&lt;div&gt;- downloadProcess(const QString&amp;amp; jobId, qulonglong transferred, qulonglong total);&amp;nbsp;&lt;span style=&quot;background-color: initial;&quot;&gt;void signals&lt;/span&gt;&lt;/div&gt;&lt;div&gt;&lt;span style=&quot;background-color: initial;&quot;&gt;- downloadSuccess(const QString&amp;amp; jobId);&amp;nbsp;&lt;/span&gt;&lt;span style=&quot;background-color: initial;&quot;&gt;void&lt;/span&gt;&lt;span style=&quot;background-color: initial;&quot;&gt;&amp;nbsp;signals&lt;/span&gt;&lt;/div&gt;&lt;div&gt;&lt;span style=&quot;background-color: initial;&quot;&gt;&lt;br&gt;&lt;/span&gt;&lt;/div&gt;&lt;div&gt;- startUpload(const QString &amp;amp;jobId, const QString &amp;amp;key, const QString &amp;amp;localPath);&amp;nbsp;&lt;span style=&quot;background-color: initial;&quot;&gt;void&lt;/span&gt;&lt;span style=&quot;background-color: initial;&quot;&gt;&amp;nbsp;signals&lt;/span&gt;&lt;/div&gt;&lt;div&gt;&lt;span style=&quot;background-color: initial;&quot;&gt;- uploadProcess(const QString&amp;amp; jobId, qulonglong transferred, qulonglong total);&amp;nbsp;&lt;/span&gt;&lt;span style=&quot;background-color: initial;&quot;&gt;void&lt;/span&gt;&lt;span style=&quot;background-color: initial;&quot;&gt;&amp;nbsp;signals&lt;/span&gt;&lt;/div&gt;&lt;div&gt;- uploadSuccess(const QString&amp;amp; jobId);&amp;nbsp;&lt;span style=&quot;background-color: initial;&quot;&gt;void&lt;/span&gt;&lt;span style=&quot;background-color: initial;&quot;&gt;&amp;nbsp;signals&lt;/span&gt;&lt;/div&gt;&lt;/div&gt;" style="text;strokeColor=none;fillColor=none;align=left;verticalAlign=top;spacingLeft=4;spacingRight=4;overflow=hidden;rotatable=0;points=[[0,0.5],[1,0.5]];portConstraint=eastwest;whiteSpace=wrap;html=1;fontFamily=Helvetica;fontSize=16;fontColor=default;" parent="wd8XevwhrWErxxZBxHDC-5" vertex="1">
          <mxGeometry y="26" width="690" height="404" as="geometry" />
        </mxCell>
        <mxCell id="c3OfBlb40NaTLD5Hj0UT-1" value="middle/models（&lt;font color=&quot;#ff0000&quot;&gt;cloudmodels.h/.cpp）&lt;/font&gt;" style="swimlane;fontStyle=0;childLayout=stackLayout;horizontal=1;startSize=26;fillColor=none;horizontalStack=0;resizeParent=1;resizeParentMax=0;resizeLast=0;collapsible=1;marginBottom=0;whiteSpace=wrap;html=1;strokeColor=default;align=center;verticalAlign=middle;fontFamily=Helvetica;fontSize=16;fontColor=default;" parent="1" vertex="1">
          <mxGeometry x="80" y="-1200" width="660" height="480" as="geometry" />
        </mxCell>
        <mxCell id="c3OfBlb40NaTLD5Hj0UT-2" value="&lt;div&gt;include：0&lt;/div&gt;&lt;div&gt;云对象存储的数据结构/模型（该文件用来定义数据模型/数据结构）&lt;/div&gt;&lt;div&gt;&lt;br&gt;&lt;/div&gt;&lt;div&gt;&lt;div&gt;struct BaseObject{&lt;/div&gt;&lt;div&gt;&amp;nbsp; &amp;nbsp; bool isValid() const {return !isInvalid();}&lt;/div&gt;&lt;div&gt;&amp;nbsp; &amp;nbsp; bool isInvalid() const {return name.isNull() || name.isEmpty();}&lt;/div&gt;&lt;div&gt;&amp;nbsp; &amp;nbsp; QString name;&lt;/div&gt;&lt;div&gt;};&lt;/div&gt;&lt;div&gt;&lt;br&gt;&lt;/div&gt;&lt;div&gt;struct MyBucket: public BaseObject{&lt;/div&gt;&lt;div&gt;&amp;nbsp; &amp;nbsp; MyBucket();&lt;/div&gt;&lt;div&gt;&amp;nbsp; &amp;nbsp; QString location;&lt;/div&gt;&lt;div&gt;&amp;nbsp; &amp;nbsp; QString createDate;&lt;/div&gt;&lt;div&gt;};&lt;/div&gt;&lt;div&gt;&lt;br&gt;&lt;/div&gt;&lt;div&gt;struct MyObject: public BaseObject{&lt;/div&gt;&lt;div&gt;&amp;nbsp; &amp;nbsp; bool isDir() const {return isValid() &amp;amp;&amp;amp; name.endsWith(&quot;/&quot;);}&lt;/div&gt;&lt;div&gt;&amp;nbsp; &amp;nbsp; bool isFile() const {return isValid() &amp;amp;&amp;amp; !name.endsWith(&quot;/&quot;);}&lt;/div&gt;&lt;div&gt;&amp;nbsp; &amp;nbsp; QString lastmodified;&lt;/div&gt;&lt;div&gt;&amp;nbsp; &amp;nbsp; qulonglong size = 0;&lt;/div&gt;&lt;div&gt;&amp;nbsp; &amp;nbsp; QString dir;&lt;/div&gt;&lt;div&gt;&amp;nbsp; &amp;nbsp; QString key;&lt;/div&gt;&lt;div&gt;};&lt;/div&gt;&lt;/div&gt;&lt;div&gt;&lt;br&gt;&lt;/div&gt;" style="text;strokeColor=none;fillColor=none;align=left;verticalAlign=top;spacingLeft=4;spacingRight=4;overflow=hidden;rotatable=0;points=[[0,0.5],[1,0.5]];portConstraint=eastwest;whiteSpace=wrap;html=1;fontFamily=Helvetica;fontSize=16;fontColor=default;" parent="c3OfBlb40NaTLD5Hj0UT-1" vertex="1">
          <mxGeometry y="26" width="660" height="454" as="geometry" />
        </mxCell>
        <mxCell id="0vo9jdCpdICnBUe3obCX-1" value="&lt;span style=&quot;&quot;&gt;middle/models（&lt;/span&gt;&lt;font style=&quot;&quot; color=&quot;#ff0000&quot;&gt;dbmodels.h）&lt;/font&gt;" style="swimlane;fontStyle=0;childLayout=stackLayout;horizontal=1;startSize=26;fillColor=none;horizontalStack=0;resizeParent=1;resizeParentMax=0;resizeLast=0;collapsible=1;marginBottom=0;whiteSpace=wrap;html=1;strokeColor=default;align=center;verticalAlign=middle;fontFamily=Helvetica;fontSize=16;fontColor=default;" parent="1" vertex="1">
          <mxGeometry x="800" y="-1200" width="250" height="200" as="geometry" />
        </mxCell>
        <mxCell id="0vo9jdCpdICnBUe3obCX-2" value="&lt;div&gt;&lt;br&gt;&lt;/div&gt;&lt;div&gt;struct LoginInfo {&lt;/div&gt;&lt;div&gt;&amp;nbsp; &amp;nbsp; QString name;&lt;/div&gt;&lt;div&gt;&amp;nbsp; &amp;nbsp; QString secret_id;&lt;/div&gt;&lt;div&gt;&amp;nbsp; &amp;nbsp; QString secret_key;&lt;/div&gt;&lt;div&gt;&amp;nbsp; &amp;nbsp; QString remark;&lt;/div&gt;&lt;div&gt;&amp;nbsp; &amp;nbsp; uint timestamp;&lt;/div&gt;&lt;div&gt;};&lt;/div&gt;" style="text;strokeColor=none;fillColor=none;align=left;verticalAlign=top;spacingLeft=4;spacingRight=4;overflow=hidden;rotatable=0;points=[[0,0.5],[1,0.5]];portConstraint=eastwest;whiteSpace=wrap;html=1;fontFamily=Helvetica;fontSize=16;fontColor=default;" parent="0vo9jdCpdICnBUe3obCX-1" vertex="1">
          <mxGeometry y="26" width="250" height="174" as="geometry" />
        </mxCell>
        <mxCell id="0vo9jdCpdICnBUe3obCX-5" value="&lt;span style=&quot;text-wrap: wrap;&quot;&gt;&lt;font style=&quot;font-size: 36px;&quot;&gt;middle/models&lt;/font&gt;&lt;/span&gt;" style="text;html=1;align=center;verticalAlign=middle;resizable=0;points=[];autosize=1;strokeColor=none;fillColor=none;" parent="1" vertex="1">
          <mxGeometry x="-235" y="-1020" width="260" height="60" as="geometry" />
        </mxCell>
        <mxCell id="0vo9jdCpdICnBUe3obCX-6" value="&lt;span style=&quot;text-wrap: wrap;&quot;&gt;&lt;font style=&quot;font-size: 36px;&quot;&gt;middle/signals&lt;/font&gt;&lt;/span&gt;" style="text;html=1;align=center;verticalAlign=middle;resizable=0;points=[];autosize=1;strokeColor=none;fillColor=none;" parent="1" vertex="1">
          <mxGeometry x="-230" y="-430" width="250" height="60" as="geometry" />
        </mxCell>
        <mxCell id="0vo9jdCpdICnBUe3obCX-7" value="&lt;span style=&quot;text-wrap: wrap;&quot;&gt;&lt;font style=&quot;font-size: 36px;&quot;&gt;middle&lt;/font&gt;&lt;/span&gt;" style="text;html=1;align=center;verticalAlign=middle;resizable=0;points=[];autosize=1;strokeColor=none;fillColor=none;" parent="1" vertex="1">
          <mxGeometry x="-170" y="160" width="130" height="60" as="geometry" />
        </mxCell>
        <mxCell id="0vo9jdCpdICnBUe3obCX-8" value="&lt;span style=&quot;&quot;&gt;middle（&lt;/span&gt;&lt;font style=&quot;&quot; color=&quot;#ff0000&quot;&gt;manmodels.h/.cpp&lt;/font&gt;&lt;span style=&quot;&quot;&gt;）&lt;/span&gt;&lt;b style=&quot;&quot;&gt;ManModels&lt;/b&gt;&lt;span style=&quot;&quot;&gt;: public QObject&lt;/span&gt;" style="swimlane;fontStyle=0;childLayout=stackLayout;horizontal=1;startSize=26;fillColor=none;horizontalStack=0;resizeParent=1;resizeParentMax=0;resizeLast=0;collapsible=1;marginBottom=0;whiteSpace=wrap;html=1;strokeColor=default;align=center;verticalAlign=middle;fontFamily=Helvetica;fontSize=16;fontColor=default;" parent="1" vertex="1">
          <mxGeometry x="1040" y="-80" width="450" height="330" as="geometry" />
        </mxCell>
        <mxCell id="0vo9jdCpdICnBUe3obCX-9" value="&lt;div&gt;&lt;div&gt;include：4&lt;/div&gt;&lt;div&gt;管理桶模型和对象模型&lt;/div&gt;&lt;div&gt;&lt;br&gt;&lt;/div&gt;&lt;div&gt;- m_modelBuckets = nullptr; QStandardItemModel*&lt;/div&gt;&lt;div&gt;- m_modelObjects = nullptr; QStandardItemModel*&lt;/div&gt;&lt;/div&gt;&lt;div&gt;&lt;br&gt;&lt;/div&gt;&lt;div&gt;&lt;div&gt;+ ManModels(QObject *parent = nullptr); explicit&lt;/div&gt;&lt;div&gt;+ modelBuckets() const; QStandardItemModel*&lt;/div&gt;&lt;div&gt;+ modelObjects() const; QStandardItemModel*&lt;/div&gt;&lt;div&gt;&lt;br&gt;&lt;/div&gt;&lt;div&gt;- setBuckets(const QList&amp;lt;MyBucket&amp;gt;&amp;amp; buckets); void slots&lt;/div&gt;&lt;div&gt;- setObjects(const QList&amp;lt;MyObject&amp;gt;&amp;amp; objects); void slots&lt;/div&gt;&lt;div&gt;&lt;br&gt;&lt;/div&gt;&lt;div&gt;- initBucketsTable(); void&lt;/div&gt;&lt;div&gt;- initObjectsTable(); void&lt;/div&gt;&lt;div&gt;&lt;br&gt;&lt;/div&gt;&lt;div&gt;&lt;br&gt;&lt;/div&gt;&lt;/div&gt;" style="text;strokeColor=none;fillColor=none;align=left;verticalAlign=top;spacingLeft=4;spacingRight=4;overflow=hidden;rotatable=0;points=[[0,0.5],[1,0.5]];portConstraint=eastwest;whiteSpace=wrap;html=1;fontFamily=Helvetica;fontSize=16;fontColor=default;" parent="0vo9jdCpdICnBUe3obCX-8" vertex="1">
          <mxGeometry y="26" width="450" height="304" as="geometry" />
        </mxCell>
      </root>
    </mxGraphModel>
  </diagram>
  <diagram id="jvrPwBJKeNIMcUWOR0Dj" name="bend">
    <mxGraphModel dx="6193" dy="4000" grid="1" gridSize="10" guides="1" tooltips="1" connect="1" arrows="1" fold="1" page="0" pageScale="1" pageWidth="827" pageHeight="1169" math="0" shadow="0">
      <root>
        <mxCell id="0" />
        <mxCell id="1" parent="0" />
        <mxCell id="LQdvcm_Z_vgDUFAD_OHd-1" value="bend/dao/clouds（&lt;font color=&quot;#ff0000&quot;&gt;daocloudscos.h/.cpp&lt;/font&gt;）&lt;b&gt;DaoCloudsCos&lt;/b&gt;: DaoClouds" style="swimlane;fontStyle=0;childLayout=stackLayout;horizontal=1;startSize=26;fillColor=none;horizontalStack=0;resizeParent=1;resizeParentMax=0;resizeLast=0;collapsible=1;marginBottom=0;whiteSpace=wrap;html=1;strokeColor=default;align=center;verticalAlign=middle;fontFamily=Helvetica;fontSize=16;fontColor=default;" parent="1" vertex="1">
          <mxGeometry x="-120" y="230" width="640" height="620" as="geometry" />
        </mxCell>
        <mxCell id="LQdvcm_Z_vgDUFAD_OHd-2" value="include：3&lt;div&gt;云对象存储类&lt;/div&gt;&lt;div&gt;&lt;br&gt;&lt;/div&gt;&lt;div&gt;&lt;div&gt;- m_config = nullptr;&amp;nbsp;&lt;span style=&quot;background-color: initial;&quot;&gt;qcloud_cos::CosConfig*&lt;/span&gt;&lt;span style=&quot;background-color: initial;&quot;&gt;&amp;nbsp;&lt;/span&gt;&lt;/div&gt;&lt;div&gt;&lt;br&gt;&lt;/div&gt;&lt;div&gt;+ DaoCloudsCos();&lt;/div&gt;&lt;div&gt;+ ~DaoCloudsCos();&lt;/div&gt;&lt;div&gt;&lt;br&gt;&lt;/div&gt;&lt;div&gt;+ &lt;i&gt;buckets&lt;/i&gt;(); virtual QList&amp;lt;MyBucket&amp;gt;&amp;nbsp;&lt;/div&gt;&lt;div&gt;+ &lt;i&gt;login&lt;/i&gt;(const QString&amp;amp; secretId, const QString&amp;amp; secretKey); virtual QList&amp;lt;MyBucket&amp;gt;&amp;nbsp;&lt;/div&gt;&lt;div&gt;&lt;br&gt;&lt;/div&gt;&lt;div&gt;+ &lt;i&gt;isBucketExists&lt;/i&gt;(const QString&amp;amp; bucketName); virtual bool&amp;nbsp;&lt;/div&gt;&lt;div&gt;+ &lt;i&gt;getBucketLocation&lt;/i&gt;(const QString&amp;amp; bucketName) ; virtual QString&amp;nbsp;&lt;/div&gt;&lt;div&gt;&lt;br&gt;&lt;/div&gt;&lt;div&gt;+ &lt;i&gt;putBucket&lt;/i&gt;(const QString&amp;amp; bucketName, const QString&amp;amp; location); virtual void&amp;nbsp;&lt;/div&gt;&lt;div&gt;+ &lt;i&gt;deleteBucket&lt;/i&gt;(const QString&amp;amp; bucketName); virtual void&amp;nbsp;&lt;/div&gt;&lt;div&gt;&lt;br&gt;&lt;/div&gt;&lt;div&gt;+ &lt;i&gt;getObjects&lt;/i&gt;(const QString &amp;amp;bucketName, const QString &amp;amp;dir); QList&amp;lt;MyObject&amp;gt;&amp;nbsp;&lt;/div&gt;&lt;div&gt;+ isObjectExists(const QString &amp;amp;bucketName, const QString &amp;amp;key); bool&amp;nbsp;&lt;/div&gt;&lt;div&gt;&lt;br&gt;&lt;/div&gt;&lt;div&gt;+ &lt;i&gt;putObject&lt;/i&gt;(const QString &amp;amp;bucketName, const QString&amp;amp; key, const QString &amp;amp;localPath,&amp;nbsp;&lt;/div&gt;&lt;div&gt;&amp;nbsp; &amp;nbsp;&lt;span style=&quot;white-space: pre;&quot;&gt;&#x9;&lt;/span&gt;&lt;span style=&quot;white-space: pre;&quot;&gt;&#x9;&lt;/span&gt;&amp;nbsp; &amp;nbsp; const TransProgressCallback&amp;amp; callback); virtual void&amp;nbsp;&lt;/div&gt;&lt;div&gt;&lt;br&gt;&lt;/div&gt;&lt;div&gt;+ &lt;i&gt;getObject&lt;/i&gt;(const QString&amp;amp; bucketName, const QString&amp;amp; key, const QString&amp;amp;localPath,&amp;nbsp;&lt;/div&gt;&lt;div&gt;&amp;nbsp; &amp;nbsp;&lt;span style=&quot;white-space: pre;&quot;&gt;&#x9;&lt;/span&gt;&lt;span style=&quot;white-space: pre;&quot;&gt;&#x9;&lt;/span&gt;&amp;nbsp; &amp;nbsp; const TransProgressCallback&amp;amp; callback); virtual void&amp;nbsp;&lt;/div&gt;&lt;div&gt;&lt;br&gt;&lt;/div&gt;&lt;div&gt;- getDirList(qcloud_cos::GetBucketResp &amp;amp;resp, const QString &amp;amp;dir); QList&amp;lt;MyObject&amp;gt;&amp;nbsp;&lt;/div&gt;&lt;div&gt;- getFileList(qcloud_cos::GetBucketResp &amp;amp;resp, const QString &amp;amp;dir); QList&amp;lt;MyObject&amp;gt;&amp;nbsp;&lt;/div&gt;&lt;div&gt;- throwError(const QString &amp;amp;code, qcloud_cos::CosResult &amp;amp;result); void&amp;nbsp;&lt;/div&gt;&lt;div&gt;- getBucketByName(const QString&amp;amp; bucketName); MyBucket&amp;nbsp;&lt;/div&gt;&lt;/div&gt;" style="text;strokeColor=none;fillColor=none;align=left;verticalAlign=top;spacingLeft=4;spacingRight=4;overflow=hidden;rotatable=0;points=[[0,0.5],[1,0.5]];portConstraint=eastwest;whiteSpace=wrap;html=1;fontFamily=Helvetica;fontSize=16;fontColor=default;" parent="LQdvcm_Z_vgDUFAD_OHd-1" vertex="1">
          <mxGeometry y="26" width="640" height="594" as="geometry" />
        </mxCell>
        <mxCell id="LQdvcm_Z_vgDUFAD_OHd-5" value="bend/dao/clouds（&lt;font color=&quot;#ff0000&quot;&gt;daoclouds.h&lt;/font&gt;）&lt;b&gt;DaoClouds&lt;/b&gt;" style="swimlane;fontStyle=0;childLayout=stackLayout;horizontal=1;startSize=26;fillColor=none;horizontalStack=0;resizeParent=1;resizeParentMax=0;resizeLast=0;collapsible=1;marginBottom=0;whiteSpace=wrap;html=1;strokeColor=default;align=center;verticalAlign=middle;fontFamily=Helvetica;fontSize=16;fontColor=default;" parent="1" vertex="1">
          <mxGeometry x="-920" y="270" width="670" height="440" as="geometry" />
        </mxCell>
        <mxCell id="LQdvcm_Z_vgDUFAD_OHd-6" value="include：1&lt;div&gt;数据来源基类，（云对象存储、Mock测试数据）&lt;/div&gt;&lt;div&gt;&lt;br&gt;&lt;/div&gt;&lt;div&gt;&lt;div&gt;+ DaoClouds(){}&lt;/div&gt;&lt;div&gt;&lt;br&gt;&lt;/div&gt;&lt;div&gt;+ &lt;i&gt;buckets&lt;/i&gt;() = 0; virtual QList&amp;lt;MyBucket&amp;gt;&amp;nbsp;&lt;/div&gt;&lt;div&gt;+ &lt;i&gt;login&lt;/i&gt;(const QString&amp;amp; secretId, const QString&amp;amp; secretKey) = 0; virtual QList&amp;lt;MyBucket&amp;gt;&amp;nbsp;&lt;/div&gt;&lt;div&gt;&lt;br&gt;&lt;/div&gt;&lt;div&gt;+ &lt;i&gt;isBucketExists&lt;/i&gt;(const QString&amp;amp; bucketName) = 0; virtual bool&amp;nbsp;&lt;/div&gt;&lt;div&gt;+ &lt;i&gt;getBucketLocation&lt;/i&gt;(const QString&amp;amp; bucketName) = 0; virtual QString&amp;nbsp;&lt;/div&gt;&lt;div&gt;+ &lt;i&gt;putBucket&lt;/i&gt;(const QString&amp;amp; bucketName, const QString&amp;amp; location) = 0; virtual void&amp;nbsp;&lt;/div&gt;&lt;div&gt;+ &lt;i&gt;deleteBucket&lt;/i&gt;(const QString&amp;amp; bucketName) = 0; virtual void&amp;nbsp;&lt;/div&gt;&lt;div&gt;+ &lt;i&gt;getObjects&lt;/i&gt;(const QString &amp;amp;bucketName, const QString &amp;amp;dir) = 0; virtual QList&amp;lt;MyObject&amp;gt;&amp;nbsp;&lt;/div&gt;&lt;div&gt;&lt;br&gt;&lt;/div&gt;&lt;div&gt;+ &lt;i&gt;putObject&lt;/i&gt;(const QString &amp;amp;bucketName, const QString&amp;amp; key, const QString &amp;amp;localPath,&lt;/div&gt;&lt;div&gt;&amp;nbsp; &amp;nbsp;const TransProgressCallback&amp;amp; callback) = 0; virtual void&amp;nbsp;&lt;/div&gt;&lt;div&gt;&lt;span style=&quot;white-space: pre; white-space: normal;&quot;&gt;&#x9;&lt;/span&gt;&lt;/div&gt;&lt;div&gt;+ &lt;i&gt;getObject&lt;/i&gt;(const QString&amp;amp; bucketName, const QString&amp;amp; key, const QString&amp;amp; localPath,&amp;nbsp;&lt;/div&gt;&lt;div&gt;&amp;nbsp; &amp;nbsp;const TransProgressCallback&amp;amp; callback) = 0; virtual void&amp;nbsp;&lt;/div&gt;&lt;/div&gt;&lt;div&gt;&lt;br&gt;&lt;/div&gt;&lt;div&gt;&lt;div&gt;using TransProgressCallback = std::function&amp;lt;&lt;span style=&quot;background-color: initial;&quot;&gt;void(uint64_t transferred_size, uint64_t &lt;span style=&quot;white-space: pre;&quot;&gt;&#x9;&lt;/span&gt;&lt;span style=&quot;white-space: pre;&quot;&gt;&#x9;&lt;/span&gt;&lt;span style=&quot;white-space: pre;&quot;&gt;&#x9;&lt;/span&gt;&lt;span style=&quot;white-space: pre;&quot;&gt;&#x9;&lt;/span&gt;&lt;span style=&quot;white-space: pre;&quot;&gt;&#x9;&lt;/span&gt;&lt;span style=&quot;white-space: pre;&quot;&gt;&#x9;&lt;/span&gt;&lt;span style=&quot;white-space: pre;&quot;&gt;&#x9;&lt;/span&gt;&lt;span style=&quot;white-space: pre;&quot;&gt;&#x9;&lt;/span&gt;&lt;span style=&quot;white-space: pre;&quot;&gt;&#x9;&lt;/span&gt;&amp;nbsp;total_size, void*)&amp;gt;;&lt;/span&gt;&lt;/div&gt;&lt;/div&gt;" style="text;strokeColor=none;fillColor=none;align=left;verticalAlign=top;spacingLeft=4;spacingRight=4;overflow=hidden;rotatable=0;points=[[0,0.5],[1,0.5]];portConstraint=eastwest;whiteSpace=wrap;html=1;fontFamily=Helvetica;fontSize=16;fontColor=default;" parent="LQdvcm_Z_vgDUFAD_OHd-5" vertex="1">
          <mxGeometry y="26" width="670" height="414" as="geometry" />
        </mxCell>
        <mxCell id="YpzwAN9SQixq-4dIBGft-1" value="bend/dao/dbs（&lt;font color=&quot;#ff0000&quot;&gt;daologininfo.h/.cpp&lt;/font&gt;）&lt;b&gt;DaoLoginInfo&lt;/b&gt;" style="swimlane;fontStyle=0;childLayout=stackLayout;horizontal=1;startSize=26;fillColor=none;horizontalStack=0;resizeParent=1;resizeParentMax=0;resizeLast=0;collapsible=1;marginBottom=0;whiteSpace=wrap;html=1;strokeColor=default;align=center;verticalAlign=middle;fontFamily=Helvetica;fontSize=16;fontColor=default;" parent="1" vertex="1">
          <mxGeometry x="-920" y="1570" width="480" height="290" as="geometry" />
        </mxCell>
        <mxCell id="YpzwAN9SQixq-4dIBGft-2" value="&lt;div&gt;include：2&lt;/div&gt;&lt;div&gt;数据库的基类（存储登陆信息的类）&lt;/div&gt;&lt;div&gt;&lt;br&gt;&lt;/div&gt;&lt;div&gt;&lt;div&gt;+ DaoLoginInfo();&lt;/div&gt;&lt;div&gt;&lt;br&gt;&lt;/div&gt;&lt;div&gt;+ &lt;i&gt;exists&lt;/i&gt;(const QString&amp;amp; secretId) = 0 ; virtual bool&lt;/div&gt;&lt;div&gt;+ &lt;i&gt;insert&lt;/i&gt;(const LoginInfo&amp;amp; info) = 0; virtual void&lt;/div&gt;&lt;div&gt;+ &lt;i&gt;update&lt;/i&gt;(const LoginInfo&amp;amp; info) = 0; virtual void&lt;/div&gt;&lt;div&gt;+ &lt;i&gt;remove&lt;/i&gt;(const QString&amp;amp; secretId) = 0; virtual void&lt;/div&gt;&lt;div&gt;+ &lt;i&gt;select&lt;/i&gt;() = 0; virtual QList&amp;lt;LoginInfo&amp;gt;&lt;/div&gt;&lt;div&gt;&lt;br&gt;&lt;/div&gt;&lt;div&gt;+ &lt;i&gt;connect&lt;/i&gt;() = 0; virtual void&lt;/div&gt;&lt;div&gt;+ &lt;i&gt;createTable&lt;/i&gt;() = 0; virtual void&lt;/div&gt;&lt;/div&gt;&lt;div&gt;&lt;br&gt;&lt;/div&gt;" style="text;strokeColor=none;fillColor=none;align=left;verticalAlign=top;spacingLeft=4;spacingRight=4;overflow=hidden;rotatable=0;points=[[0,0.5],[1,0.5]];portConstraint=eastwest;whiteSpace=wrap;html=1;fontFamily=Helvetica;fontSize=16;fontColor=default;" parent="YpzwAN9SQixq-4dIBGft-1" vertex="1">
          <mxGeometry y="26" width="480" height="264" as="geometry" />
        </mxCell>
        <mxCell id="YpzwAN9SQixq-4dIBGft-5" value="&lt;span style=&quot;&quot;&gt;bend/dao/dbs（&lt;/span&gt;&lt;font style=&quot;&quot; color=&quot;#ff0000&quot;&gt;daologininfosqlite.h/.cpp&lt;/font&gt;&lt;span style=&quot;&quot;&gt;）&lt;/span&gt;&lt;b&gt;DaoLoginInfoSqlite&lt;/b&gt;: DaoLoginInfo" style="swimlane;fontStyle=0;childLayout=stackLayout;horizontal=1;startSize=26;fillColor=none;horizontalStack=0;resizeParent=1;resizeParentMax=0;resizeLast=0;collapsible=1;marginBottom=0;whiteSpace=wrap;html=1;strokeColor=default;align=center;verticalAlign=middle;fontFamily=Helvetica;fontSize=16;fontColor=default;" parent="1" vertex="1">
          <mxGeometry x="-200" y="1570" width="600" height="330" as="geometry" />
        </mxCell>
        <mxCell id="YpzwAN9SQixq-4dIBGft-6" value="&lt;div&gt;include：2&lt;/div&gt;&lt;div&gt;Sqlite数据库插件&lt;/div&gt;&lt;div&gt;&lt;br&gt;&lt;/div&gt;&lt;div&gt;- m_db; DbSqlite&lt;/div&gt;&lt;div&gt;&lt;br&gt;&lt;/div&gt;&lt;div&gt;+ DaoLoginInfoSqlite();&lt;/div&gt;&lt;div&gt;&lt;br&gt;&lt;/div&gt;&lt;div&gt;+ &lt;i&gt;exists&lt;/i&gt;(const QString&amp;amp; secretId); bool&lt;/div&gt;&lt;div&gt;+ &lt;i&gt;insert&lt;/i&gt;(const LoginInfo&amp;amp; info); void&lt;/div&gt;&lt;div&gt;+ &lt;i&gt;update&lt;/i&gt;(const LoginInfo&amp;amp; info); void&lt;/div&gt;&lt;div&gt;+ &lt;i&gt;remove&lt;/i&gt;(const QString&amp;amp; secretId); void&lt;/div&gt;&lt;div&gt;+ &lt;i&gt;select&lt;/i&gt;(); QList&amp;lt;LoginInfo&amp;gt;&lt;/div&gt;&lt;div&gt;&lt;br&gt;&lt;/div&gt;&lt;div&gt;+ &lt;i&gt;connect&lt;/i&gt;(); void&lt;/div&gt;&lt;div&gt;+ &lt;i&gt;createTable&lt;/i&gt;(); void&lt;/div&gt;" style="text;strokeColor=none;fillColor=none;align=left;verticalAlign=top;spacingLeft=4;spacingRight=4;overflow=hidden;rotatable=0;points=[[0,0.5],[1,0.5]];portConstraint=eastwest;whiteSpace=wrap;html=1;fontFamily=Helvetica;fontSize=16;fontColor=default;" parent="YpzwAN9SQixq-4dIBGft-5" vertex="1">
          <mxGeometry y="26" width="600" height="304" as="geometry" />
        </mxCell>
        <mxCell id="YpzwAN9SQixq-4dIBGft-12" value="&lt;font style=&quot;font-size: 72px;&quot;&gt;bend/dao/dbs&lt;/font&gt;" style="text;html=1;align=center;verticalAlign=middle;resizable=0;points=[];autosize=1;strokeColor=none;fillColor=none;" parent="1" vertex="1">
          <mxGeometry x="-1555" y="1630" width="460" height="100" as="geometry" />
        </mxCell>
        <mxCell id="uNcx56R5XC0g83WSaLm--5" value="&lt;span style=&quot;&quot;&gt;bend（&lt;/span&gt;&lt;font style=&quot;&quot; color=&quot;#ff0000&quot;&gt;gateway.h/.cpp&lt;/font&gt;&lt;span style=&quot;&quot;&gt;）&lt;/span&gt;&lt;b style=&quot;&quot;&gt;GateWay&lt;/b&gt;&lt;span style=&quot;&quot;&gt;: QObject&lt;/span&gt;" style="swimlane;fontStyle=0;childLayout=stackLayout;horizontal=1;startSize=26;fillColor=none;horizontalStack=0;resizeParent=1;resizeParentMax=0;resizeLast=0;collapsible=1;marginBottom=0;whiteSpace=wrap;html=1;strokeColor=default;align=center;verticalAlign=middle;fontFamily=Helvetica;fontSize=16;fontColor=default;" parent="1" vertex="1">
          <mxGeometry x="-920" y="3215" width="620" height="390" as="geometry" />
        </mxCell>
        <mxCell id="uNcx56R5XC0g83WSaLm--6" value="&lt;div&gt;include：5&lt;/div&gt;&lt;div&gt;&lt;br&gt;&lt;/div&gt;&lt;div&gt;&lt;div&gt;+ GateWay(QObject *parent = nullptr); explicit&lt;/div&gt;&lt;div&gt;+ ~GateWay();&lt;/div&gt;&lt;div&gt;+ send(int api, const QJsonValue&amp;amp; params=QJsonValue()); void&lt;/div&gt;&lt;div&gt;&lt;br&gt;&lt;/div&gt;&lt;div&gt;- dispach(int api, const QJsonValue&amp;amp; params); void&lt;/div&gt;&lt;div&gt;- apiLogin(const QJsonValue&amp;amp; params); void&lt;/div&gt;&lt;div&gt;&lt;br&gt;&lt;/div&gt;&lt;div&gt;- apiGetBuckets(const QJsonValue&amp;amp;); void&lt;/div&gt;&lt;div&gt;- apiPutBucket(const QJsonValue&amp;amp; params); void&lt;/div&gt;&lt;div&gt;- apiDeleteBucket(const QJsonValue&amp;amp; params); void&lt;/div&gt;&lt;div&gt;&lt;br&gt;&lt;/div&gt;&lt;div&gt;- apiGetObjects(const QJsonValue&amp;amp; params); void&lt;/div&gt;&lt;div&gt;- apiGetObject(const QJsonValue&amp;amp; params); void&lt;/div&gt;&lt;div&gt;- apiPutObject(const QJsonValue&amp;amp; params); void&lt;/div&gt;&lt;/div&gt;" style="text;strokeColor=none;fillColor=none;align=left;verticalAlign=top;spacingLeft=4;spacingRight=4;overflow=hidden;rotatable=0;points=[[0,0.5],[1,0.5]];portConstraint=eastwest;whiteSpace=wrap;html=1;fontFamily=Helvetica;fontSize=16;fontColor=default;" parent="uNcx56R5XC0g83WSaLm--5" vertex="1">
          <mxGeometry y="26" width="620" height="364" as="geometry" />
        </mxCell>
        <mxCell id="RGL-u7KMQ2Ltm05zp5QX-1" value="&lt;span style=&quot;&quot;&gt;bend/man（&lt;/span&gt;&lt;font style=&quot;&quot; color=&quot;#ff0000&quot;&gt;mancloud.h/.cpp&lt;/font&gt;&lt;span style=&quot;&quot;&gt;）&lt;/span&gt;&lt;b style=&quot;&quot;&gt;ManCloud&lt;/b&gt;&lt;span style=&quot;&quot;&gt;: QObject&lt;/span&gt;" style="swimlane;fontStyle=0;childLayout=stackLayout;horizontal=1;startSize=26;fillColor=none;horizontalStack=0;resizeParent=1;resizeParentMax=0;resizeLast=0;collapsible=1;marginBottom=0;whiteSpace=wrap;html=1;strokeColor=default;align=center;verticalAlign=middle;fontFamily=Helvetica;fontSize=16;fontColor=default;shadow=0;" parent="1" vertex="1">
          <mxGeometry x="-920" y="2560" width="610" height="500" as="geometry" />
        </mxCell>
        <mxCell id="RGL-u7KMQ2Ltm05zp5QX-2" value="&lt;div&gt;include：5&lt;/div&gt;&lt;div&gt;&lt;br&gt;&lt;/div&gt;&lt;div&gt;- m_currentBucketName; QString&lt;/div&gt;&lt;div&gt;- m_currentDir; QString&lt;/div&gt;&lt;div&gt;&lt;br&gt;&lt;/div&gt;&lt;div&gt;+ ManCloud(QObject *parent = nullptr); explicit&lt;/div&gt;&lt;div&gt;+ ~ManCloud();&lt;/div&gt;&lt;div&gt;&lt;br&gt;&lt;/div&gt;&lt;div&gt;+ login(QString secretId, QString secretKey); void&lt;/div&gt;&lt;div&gt;&lt;br&gt;&lt;/div&gt;&lt;div&gt;+ getBuckets(); void&lt;/div&gt;&lt;div&gt;+ putBucket(const QString&amp;amp; bucketName, const QString&amp;amp; location); void&lt;/div&gt;&lt;div&gt;+ deleteBucket(const QString&amp;amp; bucketName); void&lt;/div&gt;&lt;div&gt;&lt;br&gt;&lt;/div&gt;&lt;div&gt;+ getObjects(const QString&amp;amp; bucketName, const QString&amp;amp; dir=&quot;&quot;); void&lt;/div&gt;&lt;div&gt;+ getObject(const QString&amp;amp; jobId, const QString&amp;amp; bucketName, const QString&amp;amp; key,&lt;/div&gt;&lt;div&gt;&amp;nbsp; &amp;nbsp;&lt;span style=&quot;white-space: pre;&quot;&gt;&#x9;&lt;/span&gt;&lt;span style=&quot;white-space: pre;&quot;&gt;&#x9;&lt;/span&gt;&amp;nbsp; &amp;nbsp; const QString&amp;amp;localPath); void&lt;/div&gt;&lt;div&gt;+ putObject(const QString&amp;amp; jobId, const QString &amp;amp;bucketName, const QString&amp;amp; key,&amp;nbsp;&lt;/div&gt;&lt;div&gt;&amp;nbsp; &amp;nbsp;&lt;span style=&quot;white-space: pre;&quot;&gt;&#x9;&lt;/span&gt;&lt;span style=&quot;white-space: pre;&quot;&gt;&#x9;&lt;/span&gt;&amp;nbsp; &amp;nbsp; const QString &amp;amp;localPath); void&lt;/div&gt;&lt;div&gt;+ currentBucketName() const; QString&lt;/div&gt;&lt;div&gt;&lt;br&gt;&lt;/div&gt;&lt;div&gt;+ currentDir() const; QString&lt;/div&gt;&lt;div&gt;&lt;br&gt;&lt;/div&gt;&lt;div&gt;- bucketsAlready(const QList&amp;lt;MyBucket&amp;gt; &amp;amp;buckets); void&lt;/div&gt;" style="text;strokeColor=none;fillColor=none;align=left;verticalAlign=top;spacingLeft=4;spacingRight=4;overflow=hidden;rotatable=0;points=[[0,0.5],[1,0.5]];portConstraint=eastwest;whiteSpace=wrap;html=1;fontFamily=Helvetica;fontSize=16;fontColor=default;" parent="RGL-u7KMQ2Ltm05zp5QX-1" vertex="1">
          <mxGeometry y="26" width="610" height="474" as="geometry" />
        </mxCell>
        <mxCell id="xOmfRqFRs6O0bROnwfov-1" value="&lt;span style=&quot;text-wrap: wrap;&quot;&gt;&lt;font style=&quot;font-size: 72px;&quot;&gt;bend/man&lt;/font&gt;&lt;/span&gt;" style="text;html=1;align=center;verticalAlign=middle;resizable=0;points=[];autosize=1;strokeColor=none;fillColor=none;" parent="1" vertex="1">
          <mxGeometry x="-1555" y="2773" width="340" height="100" as="geometry" />
        </mxCell>
        <mxCell id="xOmfRqFRs6O0bROnwfov-2" value="&lt;span style=&quot;&quot;&gt;bend/man（&lt;/span&gt;&lt;font style=&quot;&quot; color=&quot;#ff0000&quot;&gt;mandb.h/.cpp&lt;/font&gt;&lt;span style=&quot;&quot;&gt;）&lt;/span&gt;&lt;b style=&quot;&quot;&gt;ManDB&lt;/b&gt;&lt;span style=&quot;&quot;&gt;: public QObject&lt;/span&gt;" style="swimlane;fontStyle=0;childLayout=stackLayout;horizontal=1;startSize=26;fillColor=none;horizontalStack=0;resizeParent=1;resizeParentMax=0;resizeLast=0;collapsible=1;marginBottom=0;whiteSpace=wrap;html=1;strokeColor=default;align=center;verticalAlign=middle;fontFamily=Helvetica;fontSize=16;fontColor=default;shadow=0;" parent="1" vertex="1">
          <mxGeometry x="-210" y="2560" width="780" height="330" as="geometry" />
        </mxCell>
        <mxCell id="xOmfRqFRs6O0bROnwfov-3" value="&lt;div&gt;include：2&lt;/div&gt;&lt;div&gt;&lt;br&gt;&lt;/div&gt;&lt;div&gt;&lt;div&gt;- m_daoLoginInfo; DaoLoginInfoSqlite&lt;/div&gt;&lt;div&gt;- m_loginInfoList; QList&amp;lt;LoginInfo&amp;gt;&lt;/div&gt;&lt;/div&gt;&lt;div&gt;&lt;br&gt;&lt;/div&gt;&lt;div&gt;&lt;div&gt;+ ManDB(QObject *parent = nullptr); explicit&lt;/div&gt;&lt;div&gt;+ ~ManDB();&lt;/div&gt;&lt;div&gt;&lt;br&gt;&lt;/div&gt;&lt;div&gt;+ init(); void&lt;/div&gt;&lt;div&gt;&lt;br&gt;&lt;/div&gt;&lt;div&gt;+ saveLoginInfo(const QString&amp;amp; name, const QString&amp;amp; id, const QString&amp;amp; key, const QString&amp;amp; remark); void&lt;/div&gt;&lt;div&gt;+ removeLoginInfo(const QString&amp;amp; id); void&lt;/div&gt;&lt;div&gt;+ indexOfLoginInfo(const QString&amp;amp; secretId); int&lt;/div&gt;&lt;div&gt;+ loginNameList(); QStringList&lt;/div&gt;&lt;div&gt;+ loginInfoByName(const QString&amp;amp; name); LoginInfo&lt;/div&gt;&lt;div&gt;&lt;br&gt;&lt;/div&gt;&lt;div&gt;&lt;br&gt;&lt;/div&gt;&lt;/div&gt;&lt;div&gt;&lt;br&gt;&lt;/div&gt;" style="text;strokeColor=none;fillColor=none;align=left;verticalAlign=top;spacingLeft=4;spacingRight=4;overflow=hidden;rotatable=0;points=[[0,0.5],[1,0.5]];portConstraint=eastwest;whiteSpace=wrap;html=1;fontFamily=Helvetica;fontSize=16;fontColor=default;" parent="xOmfRqFRs6O0bROnwfov-2" vertex="1">
          <mxGeometry y="26" width="780" height="304" as="geometry" />
        </mxCell>
        <mxCell id="SavEhPv5y4I3fp-Wnloa-1" value="" style="endArrow=block;endSize=16;endFill=0;html=1;fontFamily=Helvetica;fontSize=16;fontColor=default;rounded=0;entryX=0.75;entryY=0;entryDx=0;entryDy=0;edgeStyle=orthogonalEdgeStyle;curved=1;exitX=0.406;exitY=0;exitDx=0;exitDy=0;exitPerimeter=0;" edge="1" parent="1" source="LQdvcm_Z_vgDUFAD_OHd-1" target="LQdvcm_Z_vgDUFAD_OHd-5">
          <mxGeometry width="160" relative="1" as="geometry">
            <mxPoint x="130" y="220" as="sourcePoint" />
            <mxPoint x="-10" y="20" as="targetPoint" />
            <Array as="points">
              <mxPoint x="140" y="170" />
              <mxPoint x="-417" y="170" />
            </Array>
          </mxGeometry>
        </mxCell>
        <mxCell id="SavEhPv5y4I3fp-Wnloa-2" value="&lt;span style=&quot;text-wrap: wrap;&quot;&gt;&lt;font style=&quot;font-size: 72px;&quot;&gt;bend/dao/clouds&lt;/font&gt;&lt;/span&gt;" style="text;html=1;align=center;verticalAlign=middle;resizable=0;points=[];autosize=1;strokeColor=none;fillColor=none;" vertex="1" parent="1">
          <mxGeometry x="-1555" y="350" width="550" height="100" as="geometry" />
        </mxCell>
        <mxCell id="SavEhPv5y4I3fp-Wnloa-3" value="&lt;font style=&quot;font-size: 72px;&quot;&gt;bend&lt;/font&gt;" style="text;html=1;align=center;verticalAlign=middle;resizable=0;points=[];autosize=1;strokeColor=none;fillColor=none;" vertex="1" parent="1">
          <mxGeometry x="-1555" y="3360" width="180" height="100" as="geometry" />
        </mxCell>
        <mxCell id="SavEhPv5y4I3fp-Wnloa-5" value="" style="endArrow=block;endSize=16;endFill=0;html=1;fontFamily=Helvetica;fontSize=16;fontColor=default;rounded=0;exitX=0.343;exitY=-0.003;exitDx=0;exitDy=0;entryX=0.75;entryY=0;entryDx=0;entryDy=0;exitPerimeter=0;edgeStyle=orthogonalEdgeStyle;elbow=vertical;curved=1;" edge="1" parent="1" source="YpzwAN9SQixq-4dIBGft-5" target="YpzwAN9SQixq-4dIBGft-1">
          <mxGeometry width="160" relative="1" as="geometry">
            <mxPoint x="-17" y="1530" as="sourcePoint" />
            <mxPoint x="-539.96" y="1525.94" as="targetPoint" />
            <Array as="points">
              <mxPoint x="6" y="1530" />
              <mxPoint x="-560" y="1530" />
            </Array>
          </mxGeometry>
        </mxCell>
        <mxCell id="SavEhPv5y4I3fp-Wnloa-6" value="&lt;span style=&quot;text-wrap: wrap;&quot;&gt;&lt;font style=&quot;font-size: 72px;&quot;&gt;bend/dao/configs&lt;/font&gt;&lt;/span&gt;" style="text;html=1;align=center;verticalAlign=middle;resizable=0;points=[];autosize=1;strokeColor=none;fillColor=none;" vertex="1" parent="1">
          <mxGeometry x="-1555" y="1080" width="570" height="100" as="geometry" />
        </mxCell>
        <mxCell id="SavEhPv5y4I3fp-Wnloa-7" value="&lt;font style=&quot;font-size: 72px;&quot;&gt;bend/dao/logs&lt;/font&gt;" style="text;html=1;align=center;verticalAlign=middle;resizable=0;points=[];autosize=1;strokeColor=none;fillColor=none;" vertex="1" parent="1">
          <mxGeometry x="-1555" y="2135" width="480" height="100" as="geometry" />
        </mxCell>
        <mxCell id="SavEhPv5y4I3fp-Wnloa-8" value="bend/dao/clouds（&lt;font color=&quot;#ff0000&quot;&gt;daocloudsmock.h/.cpp&lt;/font&gt;）&lt;b&gt;DaoCloudsMock&lt;/b&gt;: DaoClouds" style="swimlane;fontStyle=0;childLayout=stackLayout;horizontal=1;startSize=26;fillColor=none;horizontalStack=0;resizeParent=1;resizeParentMax=0;resizeLast=0;collapsible=1;marginBottom=0;whiteSpace=wrap;html=1;strokeColor=default;align=center;verticalAlign=middle;fontFamily=Helvetica;fontSize=16;fontColor=default;" vertex="1" parent="1">
          <mxGeometry x="630" y="230" width="650" height="460" as="geometry" />
        </mxCell>
        <mxCell id="SavEhPv5y4I3fp-Wnloa-9" value="include：5&lt;div&gt;云对象存储类&lt;/div&gt;&lt;div&gt;&lt;br&gt;&lt;/div&gt;&lt;div&gt;&lt;div&gt;- m_mock; QJsonValue&lt;/div&gt;&lt;div&gt;&lt;br&gt;&lt;/div&gt;&lt;div&gt;+ DaoCloudsMock(const QString&amp;amp; path);&lt;/div&gt;&lt;div&gt;&lt;br&gt;&lt;/div&gt;&lt;div&gt;+ &lt;i&gt;buckets&lt;/i&gt;(); virtual QList&amp;lt;MyBucket&amp;gt;&lt;/div&gt;&lt;div&gt;+ &lt;i&gt;login&lt;/i&gt;(const QString&amp;amp; secretId, const QString&amp;amp; secretKey); virtual QList&amp;lt;MyBucket&amp;gt;&lt;/div&gt;&lt;div&gt;&lt;br&gt;&lt;/div&gt;&lt;div&gt;+ &lt;i&gt;isBucketExists&lt;/i&gt;(const QString&amp;amp; bucketName); virtual bool&lt;/div&gt;&lt;div&gt;&lt;br&gt;&lt;/div&gt;&lt;div&gt;+ &lt;i&gt;getBucketLocation&lt;/i&gt;(const QString&amp;amp; bucketName); virtual QString&lt;/div&gt;&lt;div&gt;+ &lt;i&gt;putBucket&lt;/i&gt;(const QString&amp;amp; bucketName, const QString&amp;amp; location); virtual void&lt;/div&gt;&lt;div&gt;+ &lt;i&gt;deleteBucket&lt;/i&gt;(const QString&amp;amp; bucketName); virtual void&lt;/div&gt;&lt;div&gt;&lt;br&gt;&lt;/div&gt;&lt;div&gt;+ &lt;i&gt;getObjects&lt;/i&gt;(const QString &amp;amp;bucketName, const QString &amp;amp;dir); virtual QList&amp;lt;MyObject&amp;gt;&lt;/div&gt;&lt;div&gt;+ &lt;i&gt;putObject&lt;/i&gt;(const QString &amp;amp;bucketName, const QString&amp;amp; key, const QString &amp;amp;localPath,&amp;nbsp;&lt;/div&gt;&lt;div&gt;&lt;span style=&quot;white-space: pre;&quot;&gt;&#x9;&lt;/span&gt;&lt;span style=&quot;white-space: pre;&quot;&gt;&#x9;&lt;/span&gt;&amp;nbsp; &amp;nbsp; const TransProgressCallback&amp;amp; callback); virtual void&lt;/div&gt;&lt;div&gt;+ &lt;i&gt;getObject&lt;/i&gt;(const QString&amp;amp; bucketName, const QString&amp;amp; key, const QString&amp;amp;localPath,&amp;nbsp;&lt;/div&gt;&lt;div&gt;&lt;span style=&quot;white-space: pre;&quot;&gt;&#x9;&lt;/span&gt;&lt;span style=&quot;white-space: pre;&quot;&gt;&#x9;&lt;/span&gt;&amp;nbsp; &amp;nbsp; const TransProgressCallback&amp;amp; callback); virtual void&lt;/div&gt;&lt;/div&gt;&lt;div&gt;&lt;br&gt;&lt;/div&gt;" style="text;strokeColor=none;fillColor=none;align=left;verticalAlign=top;spacingLeft=4;spacingRight=4;overflow=hidden;rotatable=0;points=[[0,0.5],[1,0.5]];portConstraint=eastwest;whiteSpace=wrap;html=1;fontFamily=Helvetica;fontSize=16;fontColor=default;" vertex="1" parent="SavEhPv5y4I3fp-Wnloa-8">
          <mxGeometry y="26" width="650" height="434" as="geometry" />
        </mxCell>
        <mxCell id="SavEhPv5y4I3fp-Wnloa-10" value="bend/dao/configs（&lt;font color=&quot;#ff0000&quot;&gt;version.h/.cpp&lt;/font&gt;）&lt;b&gt;Version&lt;/b&gt;" style="swimlane;fontStyle=0;childLayout=stackLayout;horizontal=1;startSize=26;fillColor=none;horizontalStack=0;resizeParent=1;resizeParentMax=0;resizeLast=0;collapsible=1;marginBottom=0;whiteSpace=wrap;html=1;strokeColor=default;align=center;verticalAlign=middle;fontFamily=Helvetica;fontSize=16;fontColor=default;" vertex="1" parent="1">
          <mxGeometry x="-920" y="990" width="430" height="310" as="geometry" />
        </mxCell>
        <mxCell id="SavEhPv5y4I3fp-Wnloa-11" value="include：0&lt;div&gt;&lt;br&gt;&lt;/div&gt;&lt;div&gt;&lt;div&gt;# m_major; QString&lt;/div&gt;&lt;div&gt;# m_env; QString&lt;/div&gt;&lt;div&gt;# m_v1; int&lt;/div&gt;&lt;div&gt;# m_v2; int&lt;/div&gt;&lt;div&gt;# m_v3; int&lt;/div&gt;&lt;div&gt;&lt;br&gt;&lt;/div&gt;&lt;div&gt;+ Version();&lt;/div&gt;&lt;div&gt;+ &lt;i&gt;setVersion&lt;/i&gt;() = 0; virtual void&lt;/div&gt;&lt;div&gt;&lt;br&gt;&lt;/div&gt;&lt;div&gt;+ version(); QString&lt;/div&gt;&lt;div&gt;+ versionNum(); QString&lt;/div&gt;&lt;div&gt;+ major() const; QString&lt;/div&gt;&lt;/div&gt;&lt;div&gt;&lt;br&gt;&lt;/div&gt;" style="text;strokeColor=none;fillColor=none;align=left;verticalAlign=top;spacingLeft=4;spacingRight=4;overflow=hidden;rotatable=0;points=[[0,0.5],[1,0.5]];portConstraint=eastwest;whiteSpace=wrap;html=1;fontFamily=Helvetica;fontSize=16;fontColor=default;" vertex="1" parent="SavEhPv5y4I3fp-Wnloa-10">
          <mxGeometry y="26" width="430" height="284" as="geometry" />
        </mxCell>
        <mxCell id="SavEhPv5y4I3fp-Wnloa-12" value="bend/dao/configs（&lt;font color=&quot;#ff0000&quot;&gt;versioncmd.h/.cpp&lt;/font&gt;）&lt;b&gt;VersionCmd&lt;/b&gt;: public Version" style="swimlane;fontStyle=0;childLayout=stackLayout;horizontal=1;startSize=26;fillColor=none;horizontalStack=0;resizeParent=1;resizeParentMax=0;resizeLast=0;collapsible=1;marginBottom=0;whiteSpace=wrap;html=1;strokeColor=default;align=center;verticalAlign=middle;fontFamily=Helvetica;fontSize=16;fontColor=default;" vertex="1" parent="1">
          <mxGeometry x="-420" y="990" width="520" height="310" as="geometry" />
        </mxCell>
        <mxCell id="SavEhPv5y4I3fp-Wnloa-13" value="include：1&lt;div&gt;&lt;br&gt;&lt;/div&gt;&lt;div&gt;&lt;div&gt;# m_major; QString&lt;/div&gt;&lt;div&gt;# m_env; QString&lt;/div&gt;&lt;div&gt;# m_v1; int&lt;/div&gt;&lt;div&gt;# m_v2; int&lt;/div&gt;&lt;div&gt;# m_v3; int&lt;/div&gt;&lt;div&gt;&lt;br&gt;&lt;/div&gt;&lt;div&gt;+ Version();&lt;/div&gt;&lt;div&gt;+ &lt;i&gt;setVersion&lt;/i&gt;() = 0; virtual void&lt;/div&gt;&lt;div&gt;&lt;br&gt;&lt;/div&gt;&lt;div&gt;+ version(); QString&lt;/div&gt;&lt;div&gt;+ versionNum(); QString&lt;/div&gt;&lt;div&gt;+ major() const; QString&lt;/div&gt;&lt;/div&gt;&lt;div&gt;&lt;br&gt;&lt;/div&gt;" style="text;strokeColor=none;fillColor=none;align=left;verticalAlign=top;spacingLeft=4;spacingRight=4;overflow=hidden;rotatable=0;points=[[0,0.5],[1,0.5]];portConstraint=eastwest;whiteSpace=wrap;html=1;fontFamily=Helvetica;fontSize=16;fontColor=default;" vertex="1" parent="SavEhPv5y4I3fp-Wnloa-12">
          <mxGeometry y="26" width="520" height="284" as="geometry" />
        </mxCell>
        <mxCell id="SavEhPv5y4I3fp-Wnloa-16" value="" style="endArrow=block;endSize=16;endFill=0;html=1;fontFamily=Helvetica;fontSize=16;fontColor=default;rounded=0;entryX=0.86;entryY=0;entryDx=0;entryDy=0;entryPerimeter=0;exitX=0.231;exitY=0;exitDx=0;exitDy=0;exitPerimeter=0;edgeStyle=orthogonalEdgeStyle;curved=1;" edge="1" parent="1" source="SavEhPv5y4I3fp-Wnloa-12" target="SavEhPv5y4I3fp-Wnloa-10">
          <mxGeometry width="160" relative="1" as="geometry">
            <mxPoint x="-520" y="930" as="sourcePoint" />
            <mxPoint x="-360" y="930" as="targetPoint" />
            <Array as="points">
              <mxPoint x="-300" y="950" />
              <mxPoint x="-550" y="950" />
            </Array>
          </mxGeometry>
        </mxCell>
        <mxCell id="SavEhPv5y4I3fp-Wnloa-17" value="" style="endArrow=block;endSize=16;endFill=0;html=1;fontFamily=Helvetica;fontSize=16;fontColor=default;rounded=0;entryX=0.75;entryY=0;entryDx=0;entryDy=0;exitX=0.349;exitY=0.003;exitDx=0;exitDy=0;exitPerimeter=0;edgeStyle=orthogonalEdgeStyle;curved=1;" edge="1" parent="1" source="SavEhPv5y4I3fp-Wnloa-8" target="LQdvcm_Z_vgDUFAD_OHd-5">
          <mxGeometry width="160" relative="1" as="geometry">
            <mxPoint x="680" as="sourcePoint" />
            <mxPoint x="-387" y="230" as="targetPoint" />
            <Array as="points">
              <mxPoint x="857" y="150" />
              <mxPoint x="-417" y="150" />
            </Array>
          </mxGeometry>
        </mxCell>
        <mxCell id="SavEhPv5y4I3fp-Wnloa-18" value="bend/dao/configs（&lt;font color=&quot;#ff0000&quot;&gt;versionjson.h/.cpp&lt;/font&gt;）&lt;b&gt;VersionJson&lt;/b&gt;: public Version" style="swimlane;fontStyle=0;childLayout=stackLayout;horizontal=1;startSize=26;fillColor=none;horizontalStack=0;resizeParent=1;resizeParentMax=0;resizeLast=0;collapsible=1;marginBottom=0;whiteSpace=wrap;html=1;strokeColor=default;align=center;verticalAlign=middle;fontFamily=Helvetica;fontSize=16;fontColor=default;" vertex="1" parent="1">
          <mxGeometry x="160" y="990" width="520" height="170" as="geometry" />
        </mxCell>
        <mxCell id="SavEhPv5y4I3fp-Wnloa-19" value="include：2&lt;div&gt;&lt;br&gt;&lt;/div&gt;&lt;div&gt;&lt;div&gt;- m_path : QString&lt;/div&gt;&lt;div&gt;&lt;br&gt;&lt;/div&gt;&lt;div&gt;+ VersionJson(const QString&amp;amp; path);&lt;/div&gt;&lt;div&gt;&lt;br&gt;&lt;/div&gt;&lt;div&gt;+ setVersion(); void&lt;/div&gt;&lt;/div&gt;&lt;div&gt;&lt;br&gt;&lt;/div&gt;&lt;div&gt;&lt;br&gt;&lt;/div&gt;" style="text;strokeColor=none;fillColor=none;align=left;verticalAlign=top;spacingLeft=4;spacingRight=4;overflow=hidden;rotatable=0;points=[[0,0.5],[1,0.5]];portConstraint=eastwest;whiteSpace=wrap;html=1;fontFamily=Helvetica;fontSize=16;fontColor=default;" vertex="1" parent="SavEhPv5y4I3fp-Wnloa-18">
          <mxGeometry y="26" width="520" height="144" as="geometry" />
        </mxCell>
        <mxCell id="SavEhPv5y4I3fp-Wnloa-20" value="" style="endArrow=block;endSize=16;endFill=0;html=1;fontFamily=Helvetica;fontSize=16;fontColor=default;rounded=0;exitX=0.204;exitY=-0.009;exitDx=0;exitDy=0;exitPerimeter=0;edgeStyle=orthogonalEdgeStyle;curved=1;" edge="1" parent="1" source="SavEhPv5y4I3fp-Wnloa-18">
          <mxGeometry width="160" relative="1" as="geometry">
            <mxPoint x="263.39999999999964" y="945.9199999999998" as="sourcePoint" />
            <mxPoint x="-550" y="990" as="targetPoint" />
            <Array as="points">
              <mxPoint x="266" y="930" />
              <mxPoint x="-550" y="930" />
            </Array>
          </mxGeometry>
        </mxCell>
        <mxCell id="SavEhPv5y4I3fp-Wnloa-21" value="bend/dao/logs（&lt;font color=&quot;#ff0000&quot;&gt;basiclogger.h/.cpp&lt;/font&gt;）&lt;b&gt;BasicLogger&lt;/b&gt;: QObject" style="swimlane;fontStyle=0;childLayout=stackLayout;horizontal=1;startSize=26;fillColor=none;horizontalStack=0;resizeParent=1;resizeParentMax=0;resizeLast=0;collapsible=1;marginBottom=0;whiteSpace=wrap;html=1;strokeColor=default;align=center;verticalAlign=middle;fontFamily=Helvetica;fontSize=16;fontColor=default;" vertex="1" parent="1">
          <mxGeometry x="-920" y="2053" width="530" height="330" as="geometry" />
        </mxCell>
        <mxCell id="SavEhPv5y4I3fp-Wnloa-22" value="&lt;div&gt;include：1&lt;/div&gt;&lt;div&gt;日志的基类&lt;/div&gt;&lt;div&gt;&lt;br&gt;&lt;/div&gt;&lt;div&gt;&lt;div&gt;- m_td : QThread*&amp;nbsp;&lt;/div&gt;&lt;div&gt;&lt;br&gt;&lt;/div&gt;&lt;div&gt;+ BasicLogger(QObject *parent = nullptr); explicit&lt;/div&gt;&lt;div&gt;+ ~BasicLogger();&lt;/div&gt;&lt;div&gt;&lt;br&gt;&lt;/div&gt;&lt;div&gt;+ onLog(const QString &amp;amp;file, int line, const QString &amp;amp;func, void* tid,&amp;nbsp;&lt;/div&gt;&lt;div&gt;&lt;span style=&quot;white-space: pre;&quot;&gt;&#x9;&lt;/span&gt;&amp;nbsp; &amp;nbsp; &amp;nbsp; int level,&amp;nbsp;&lt;span style=&quot;background-color: initial;&quot;&gt;const QVariant&amp;amp; var, bool up); void&amp;nbsp;&lt;/span&gt;&lt;span style=&quot;background-color: initial;&quot;&gt;slots&lt;/span&gt;&lt;span style=&quot;background-color: initial;&quot;&gt;&amp;nbsp;&lt;/span&gt;&lt;/div&gt;&lt;div&gt;&lt;span style=&quot;background-color: initial;&quot;&gt;&lt;br&gt;&lt;/span&gt;&lt;/div&gt;&lt;div&gt;# &lt;i&gt;print&lt;/i&gt;(const QString&amp;amp; file, int line, const QString&amp;amp; func, void* tid,&lt;/div&gt;&lt;div&gt;&amp;nbsp; &amp;nbsp; &amp;nbsp; &amp;nbsp; &amp;nbsp; &amp;nbsp; int level, const QVariant&amp;amp; var, bool up) = 0; virtual void&lt;/div&gt;&lt;div&gt;# filePath(); static QString&lt;/div&gt;&lt;/div&gt;&lt;div&gt;&lt;br&gt;&lt;/div&gt;&lt;div&gt;&lt;br&gt;&lt;/div&gt;" style="text;strokeColor=none;fillColor=none;align=left;verticalAlign=top;spacingLeft=4;spacingRight=4;overflow=hidden;rotatable=0;points=[[0,0.5],[1,0.5]];portConstraint=eastwest;whiteSpace=wrap;html=1;fontFamily=Helvetica;fontSize=16;fontColor=default;" vertex="1" parent="SavEhPv5y4I3fp-Wnloa-21">
          <mxGeometry y="26" width="530" height="304" as="geometry" />
        </mxCell>
        <mxCell id="SavEhPv5y4I3fp-Wnloa-23" value="bend/dao/logs（&lt;font color=&quot;#ff0000&quot;&gt;loggerqdebug.h/.cpp&lt;/font&gt;）&lt;b&gt;LoggerQDebug&lt;/b&gt;: public BasicLogger" style="swimlane;fontStyle=0;childLayout=stackLayout;horizontal=1;startSize=26;fillColor=none;horizontalStack=0;resizeParent=1;resizeParentMax=0;resizeLast=0;collapsible=1;marginBottom=0;whiteSpace=wrap;html=1;strokeColor=default;align=center;verticalAlign=middle;fontFamily=Helvetica;fontSize=16;fontColor=default;" vertex="1" parent="1">
          <mxGeometry x="-320" y="2053" width="590" height="290" as="geometry" />
        </mxCell>
        <mxCell id="SavEhPv5y4I3fp-Wnloa-24" value="&lt;div&gt;include：2&lt;/div&gt;&lt;div&gt;&lt;br&gt;&lt;/div&gt;&lt;div&gt;&lt;div&gt;- m_td = nullptr: QThread*&lt;/div&gt;&lt;div&gt;&lt;br&gt;&lt;/div&gt;&lt;div&gt;+ LoggerQDebug(QObject *parent = nullptr) ; explicit&lt;/div&gt;&lt;div&gt;+ ~LoggerQDebug() ;&amp;nbsp;&lt;/div&gt;&lt;div&gt;&lt;br&gt;&lt;/div&gt;&lt;div&gt;# &lt;i&gt;print&lt;/i&gt;(const QString&amp;amp; file, int line, const QString&amp;amp; func, void* tid,&lt;/div&gt;&lt;div&gt;&amp;nbsp; &amp;nbsp; &amp;nbsp; &amp;nbsp; &amp;nbsp; &amp;nbsp; int level, const QVariant&amp;amp; var, bool up) ; virtual void&lt;/div&gt;&lt;div&gt;&lt;br&gt;&lt;/div&gt;&lt;div&gt;- handle(QtMsgType type, const QMessageLogContext &amp;amp;contex,&amp;nbsp;&lt;/div&gt;&lt;div&gt;&lt;span style=&quot;white-space: pre;&quot;&gt;&#x9;&lt;/span&gt;&amp;nbsp; &amp;nbsp; &amp;nbsp; &amp;nbsp;const QString &amp;amp;msg) ; static void&lt;/div&gt;&lt;/div&gt;&lt;div&gt;&lt;br&gt;&lt;/div&gt;&lt;div&gt;&lt;br&gt;&lt;/div&gt;" style="text;strokeColor=none;fillColor=none;align=left;verticalAlign=top;spacingLeft=4;spacingRight=4;overflow=hidden;rotatable=0;points=[[0,0.5],[1,0.5]];portConstraint=eastwest;whiteSpace=wrap;html=1;fontFamily=Helvetica;fontSize=16;fontColor=default;" vertex="1" parent="SavEhPv5y4I3fp-Wnloa-23">
          <mxGeometry y="26" width="590" height="264" as="geometry" />
        </mxCell>
        <mxCell id="SavEhPv5y4I3fp-Wnloa-25" value="Extends" style="endArrow=block;endSize=16;endFill=0;html=1;fontFamily=Helvetica;fontSize=16;fontColor=default;rounded=0;" edge="1" parent="1">
          <mxGeometry width="160" relative="1" as="geometry">
            <mxPoint x="-200" y="2250" as="sourcePoint" />
            <mxPoint x="-40" y="2250" as="targetPoint" />
          </mxGeometry>
        </mxCell>
        <mxCell id="SavEhPv5y4I3fp-Wnloa-27" value="" style="endArrow=block;endSize=16;endFill=0;html=1;fontFamily=Helvetica;fontSize=16;fontColor=default;rounded=0;entryX=0.846;entryY=-0.004;entryDx=0;entryDy=0;entryPerimeter=0;edgeStyle=orthogonalEdgeStyle;curved=1;exitX=0.068;exitY=-0.005;exitDx=0;exitDy=0;exitPerimeter=0;" edge="1" parent="1" source="SavEhPv5y4I3fp-Wnloa-23">
          <mxGeometry width="160" relative="1" as="geometry">
            <mxPoint x="-300" y="2000" as="sourcePoint" />
            <mxPoint x="-481.6199999999999" y="2051.6800000000003" as="targetPoint" />
            <Array as="points">
              <mxPoint x="-280" y="2020" />
              <mxPoint x="-482" y="2020" />
            </Array>
          </mxGeometry>
        </mxCell>
      </root>
    </mxGraphModel>
  </diagram>
  <diagram id="rZVc1935aFW2ixAz_RD_" name="plugins">
    <mxGraphModel dx="1379" dy="857" grid="1" gridSize="10" guides="1" tooltips="1" connect="1" arrows="1" fold="1" page="0" pageScale="1" pageWidth="827" pageHeight="1169" math="0" shadow="0">
      <root>
        <mxCell id="0" />
        <mxCell id="1" parent="0" />
        <mxCell id="eFcQTQRFX3Hc7R__NWwi-2" value="plugins（&lt;font color=&quot;#ff0000&quot;&gt;manplugin.h/.cpp&lt;/font&gt;）&lt;b&gt;ManPlugin&lt;/b&gt;: public QObject" style="swimlane;fontStyle=0;childLayout=stackLayout;horizontal=1;startSize=26;fillColor=none;horizontalStack=0;resizeParent=1;resizeParentMax=0;resizeLast=0;collapsible=1;marginBottom=0;whiteSpace=wrap;html=1;strokeColor=default;align=center;verticalAlign=middle;fontFamily=Helvetica;fontSize=16;fontColor=default;" parent="1" vertex="1">
          <mxGeometry x="-50" y="380" width="440" height="240" as="geometry" />
        </mxCell>
        <mxCell id="eFcQTQRFX3Hc7R__NWwi-3" value="&lt;div&gt;include：7&lt;/div&gt;&lt;div&gt;&lt;br&gt;&lt;/div&gt;&lt;div&gt;- m_clouds; DaoClouds*&lt;/div&gt;&lt;div&gt;- m_version; Version*&lt;/div&gt;&lt;div&gt;&lt;br&gt;&lt;/div&gt;&lt;div&gt;+ ManPlugin(QObject *parent = nullptr); explicit&lt;/div&gt;&lt;div&gt;+ ~ManPlugin();&lt;/div&gt;&lt;div&gt;&lt;br&gt;&lt;/div&gt;&lt;div&gt;+ clouds() const; DaoClouds*&lt;/div&gt;&lt;div&gt;+ installPlugins(int argc, char *argv[]); void&lt;/div&gt;&lt;div&gt;&lt;br&gt;&lt;/div&gt;" style="text;strokeColor=none;fillColor=none;align=left;verticalAlign=top;spacingLeft=4;spacingRight=4;overflow=hidden;rotatable=0;points=[[0,0.5],[1,0.5]];portConstraint=eastwest;whiteSpace=wrap;html=1;fontFamily=Helvetica;fontSize=16;fontColor=default;" parent="eFcQTQRFX3Hc7R__NWwi-2" vertex="1">
          <mxGeometry y="26" width="440" height="214" as="geometry" />
        </mxCell>
        <mxCell id="eFcQTQRFX3Hc7R__NWwi-6" value="&lt;font style=&quot;font-size: 24px;&quot;&gt;plugins&lt;/font&gt;" style="text;html=1;align=center;verticalAlign=middle;resizable=0;points=[];autosize=1;strokeColor=none;fillColor=none;" parent="1" vertex="1">
          <mxGeometry x="-210" y="483" width="100" height="40" as="geometry" />
        </mxCell>
      </root>
    </mxGraphModel>
  </diagram>
  <diagram id="Ad4bd1LW5rXy6Z25WX8j" name="config">
    <mxGraphModel dx="1656" dy="350" grid="1" gridSize="10" guides="1" tooltips="1" connect="1" arrows="1" fold="1" page="0" pageScale="1" pageWidth="827" pageHeight="1169" math="0" shadow="0">
      <root>
        <mxCell id="0" />
        <mxCell id="1" parent="0" />
        <mxCell id="f1vpyz_rBZMjY7OmBXsl-1" value="&lt;span style=&quot;&quot;&gt;config（&lt;/span&gt;&lt;font style=&quot;&quot; color=&quot;#ff0000&quot;&gt;apis.h&lt;/font&gt;&lt;span style=&quot;&quot;&gt;）&lt;/span&gt;" style="swimlane;fontStyle=0;childLayout=stackLayout;horizontal=1;startSize=26;fillColor=none;horizontalStack=0;resizeParent=1;resizeParentMax=0;resizeLast=0;collapsible=1;marginBottom=0;whiteSpace=wrap;html=1;strokeColor=default;align=center;verticalAlign=middle;fontFamily=Helvetica;fontSize=16;fontColor=default;" parent="1" vertex="1">
          <mxGeometry x="210" y="550" width="400" height="420" as="geometry" />
        </mxCell>
        <mxCell id="f1vpyz_rBZMjY7OmBXsl-2" value="&lt;div&gt;namespace API {&lt;/div&gt;&lt;div&gt;&amp;nbsp; &amp;nbsp; namespace LOGIN {&lt;/div&gt;&lt;div&gt;&amp;nbsp; &amp;nbsp; static const int NORMAL = 1; // 常规登录&lt;/div&gt;&lt;div&gt;&amp;nbsp; &amp;nbsp; }&amp;nbsp;// namespace LOGIN&lt;/div&gt;&lt;div&gt;&lt;br&gt;&lt;/div&gt;&lt;div&gt;&amp;nbsp; &amp;nbsp; namespace BUCKETS {&lt;/div&gt;&lt;div&gt;&amp;nbsp; &amp;nbsp; static const int BASE = 100;&lt;/div&gt;&lt;div&gt;&amp;nbsp; &amp;nbsp; static const int LIST = BASE + 1; // 获取桶列表&lt;/div&gt;&lt;div&gt;&amp;nbsp; &amp;nbsp; static const int PUT = BASE + 2;&amp;nbsp; // 创建桶&lt;/div&gt;&lt;div&gt;&amp;nbsp; &amp;nbsp; static const int DEL = BASE + 3;&amp;nbsp; // 删除桶&lt;/div&gt;&lt;div&gt;&amp;nbsp; &amp;nbsp; } // namespace BUCKETS&lt;/div&gt;&lt;div&gt;&lt;br&gt;&lt;/div&gt;&lt;div&gt;&amp;nbsp; &amp;nbsp; namespace OBJECTS {&lt;/div&gt;&lt;div&gt;&amp;nbsp; &amp;nbsp; static const int BASE = 200;&lt;/div&gt;&lt;div&gt;&amp;nbsp; &amp;nbsp; static const int LIST = BASE + 1; // 获取对象列表&lt;/div&gt;&lt;div&gt;&amp;nbsp; &amp;nbsp; static const int GET = BASE + 10; // 下载对象&lt;/div&gt;&lt;div&gt;&amp;nbsp; &amp;nbsp; static const int PUT = BASE + 20; // 上传对象&lt;/div&gt;&lt;div&gt;&amp;nbsp; &amp;nbsp; } // namespace OBJECTS&lt;/div&gt;&lt;div&gt;} // namespace API&lt;/div&gt;" style="text;strokeColor=none;fillColor=none;align=left;verticalAlign=top;spacingLeft=4;spacingRight=4;overflow=hidden;rotatable=0;points=[[0,0.5],[1,0.5]];portConstraint=eastwest;whiteSpace=wrap;html=1;fontFamily=Helvetica;fontSize=16;fontColor=default;" parent="f1vpyz_rBZMjY7OmBXsl-1" vertex="1">
          <mxGeometry y="26" width="400" height="394" as="geometry" />
        </mxCell>
        <mxCell id="CcGBXGYsveJDKkDmRRCE-1" value="&lt;span style=&quot;&quot;&gt;config（&lt;/span&gt;&lt;font style=&quot;&quot; color=&quot;#ff0000&quot;&gt;common.h&lt;/font&gt;&lt;span style=&quot;&quot;&gt;）&lt;/span&gt;" style="swimlane;fontStyle=0;childLayout=stackLayout;horizontal=1;startSize=26;fillColor=none;horizontalStack=0;resizeParent=1;resizeParentMax=0;resizeLast=0;collapsible=1;marginBottom=0;whiteSpace=wrap;html=1;strokeColor=default;align=center;verticalAlign=middle;fontFamily=Helvetica;fontSize=16;fontColor=default;" parent="1" vertex="1">
          <mxGeometry x="700" y="550" width="400" height="350" as="geometry" />
        </mxCell>
        <mxCell id="CcGBXGYsveJDKkDmRRCE-2" value="&lt;div&gt;#include &quot;src/config/exceptions.h&quot;&lt;/div&gt;&lt;div&gt;#include &quot;src/config/errorcode.h&quot;&lt;/div&gt;&lt;div&gt;#include &quot;src/config/apis.h&quot;&lt;/div&gt;&lt;div&gt;#include &quot;src/config/globals.h&quot;&lt;/div&gt;&lt;div&gt;&lt;br&gt;&lt;/div&gt;&lt;div&gt;#include &quot;src/bend/gateway.h&quot;&lt;/div&gt;&lt;div&gt;#include &quot;src/bend/man/mancloud.h&quot;&lt;/div&gt;&lt;div&gt;&lt;br&gt;&lt;/div&gt;&lt;div&gt;#include &quot;src/middle/manglobal.h&quot;&lt;/div&gt;&lt;div&gt;#include &quot;src/middle/manmodels.h&quot;&lt;/div&gt;&lt;div&gt;#include &quot;src/middle/signals/mansignals.h&quot;&lt;/div&gt;&lt;div&gt;&lt;br&gt;&lt;/div&gt;&lt;div&gt;#include &quot;src/helper/filehelper.h&quot;&lt;/div&gt;&lt;div&gt;#include &quot;src/helper/bytehelper.h&quot;&lt;/div&gt;&lt;div&gt;&lt;br&gt;&lt;/div&gt;&lt;div&gt;#define STR QString&lt;/div&gt;" style="text;strokeColor=none;fillColor=none;align=left;verticalAlign=top;spacingLeft=4;spacingRight=4;overflow=hidden;rotatable=0;points=[[0,0.5],[1,0.5]];portConstraint=eastwest;whiteSpace=wrap;html=1;fontFamily=Helvetica;fontSize=16;fontColor=default;" parent="CcGBXGYsveJDKkDmRRCE-1" vertex="1">
          <mxGeometry y="26" width="400" height="324" as="geometry" />
        </mxCell>
        <mxCell id="CcGBXGYsveJDKkDmRRCE-3" value="&lt;span style=&quot;&quot;&gt;config（&lt;/span&gt;&lt;font style=&quot;&quot; color=&quot;#ff0000&quot;&gt;errorcode.h&lt;/font&gt;&lt;span style=&quot;&quot;&gt;）&lt;/span&gt;" style="swimlane;fontStyle=0;childLayout=stackLayout;horizontal=1;startSize=26;fillColor=none;horizontalStack=0;resizeParent=1;resizeParentMax=0;resizeLast=0;collapsible=1;marginBottom=0;whiteSpace=wrap;html=1;strokeColor=default;align=center;verticalAlign=middle;fontFamily=Helvetica;fontSize=16;fontColor=default;" parent="1" vertex="1">
          <mxGeometry x="-330" y="550" width="460" height="480" as="geometry" />
        </mxCell>
        <mxCell id="CcGBXGYsveJDKkDmRRCE-4" value="&lt;div&gt;#define EC_100000 &quot;100000&quot;&amp;nbsp; // 系统&lt;/div&gt;&lt;div&gt;#define EC_200000 &quot;200000&quot;&amp;nbsp; // 用户&lt;/div&gt;&lt;div&gt;#define EC_210000 &quot;210000&quot;&amp;nbsp; // 用户登录&lt;/div&gt;&lt;div&gt;#define EC_211000 &quot;211000&quot;&amp;nbsp; // 用户登录用户密码&lt;/div&gt;&lt;div&gt;#define EC_211100 &quot;211100&quot;&amp;nbsp; // 用户登录用户密码名称&lt;/div&gt;&lt;div&gt;#define EC_211200 &quot;211200&quot;&amp;nbsp; // 用户登录用户密码密码&lt;/div&gt;&lt;div&gt;#define EC_212000 &quot;212000&quot;&amp;nbsp; // 用户登录邮箱&lt;/div&gt;&lt;div&gt;#define EC_212100 &quot;212100&quot;&amp;nbsp; // 用户登录邮箱地址非法&lt;/div&gt;&lt;div&gt;#define EC_220000 &quot;220000&quot;&amp;nbsp; // 用户上传&lt;/div&gt;&lt;div&gt;#define EC_221000 &quot;221000&quot;&amp;nbsp; // 用户上传文件&lt;/div&gt;&lt;div&gt;#define EC_221100 &quot;221100&quot;&amp;nbsp; // 超过1g不能上传&lt;/div&gt;&lt;div&gt;#define EC_300000 &quot;300000&quot;&amp;nbsp; // 供应商&lt;/div&gt;&lt;div&gt;#define EC_330000 &quot;330000&quot;&amp;nbsp; // 供应商腾讯云&lt;/div&gt;&lt;div&gt;#define EC_331000 &quot;331000&quot;&amp;nbsp; // 供应商腾讯云桶&lt;/div&gt;&lt;div&gt;#define EC_331100 &quot;331100&quot;&amp;nbsp; // 供应商腾讯云桶创建&lt;/div&gt;&lt;div&gt;#define EC_331200 &quot;331200&quot;&amp;nbsp; // 供应商腾讯云桶查询&lt;/div&gt;&lt;div&gt;#define EC_331300 &quot;331300&quot;&amp;nbsp; // 供应商腾讯云桶删除&lt;/div&gt;&lt;div&gt;#define EC_332000 &quot;332000&quot;&amp;nbsp; // 供应商腾讯云对象&lt;/div&gt;&lt;div&gt;#define EC_332100 &quot;332100&quot;&amp;nbsp; // 供应商腾讯云对象创建&lt;/div&gt;&lt;div&gt;#define EC_332200 &quot;332200&quot;&amp;nbsp; // 供应商腾讯云对象查询&lt;/div&gt;&lt;div&gt;#define EC_332300 &quot;332300&quot;&amp;nbsp; // 供应商腾讯云对象删除&lt;/div&gt;&lt;div&gt;#define EC_332400 &quot;332400&quot;&amp;nbsp; // 供应商腾讯云对象上传&lt;/div&gt;&lt;div&gt;#define EC_332500 &quot;332500&quot;&amp;nbsp; // 供应商腾讯云对象下载&lt;/div&gt;" style="text;strokeColor=none;fillColor=none;align=left;verticalAlign=top;spacingLeft=4;spacingRight=4;overflow=hidden;rotatable=0;points=[[0,0.5],[1,0.5]];portConstraint=eastwest;whiteSpace=wrap;html=1;fontFamily=Helvetica;fontSize=16;fontColor=default;" parent="CcGBXGYsveJDKkDmRRCE-3" vertex="1">
          <mxGeometry y="26" width="460" height="454" as="geometry" />
        </mxCell>
        <mxCell id="CcGBXGYsveJDKkDmRRCE-5" value="&lt;span style=&quot;&quot;&gt;config（&lt;/span&gt;&lt;font style=&quot;&quot; color=&quot;#ff0000&quot;&gt;globals.h&lt;/font&gt;&lt;span style=&quot;&quot;&gt;）&lt;/span&gt;" style="swimlane;fontStyle=0;childLayout=stackLayout;horizontal=1;startSize=26;fillColor=none;horizontalStack=0;resizeParent=1;resizeParentMax=0;resizeLast=0;collapsible=1;marginBottom=0;whiteSpace=wrap;html=1;strokeColor=default;align=center;verticalAlign=middle;fontFamily=Helvetica;fontSize=16;fontColor=default;" parent="1" vertex="1">
          <mxGeometry x="1180" y="550" width="650" height="1220" as="geometry" />
        </mxCell>
        <mxCell id="CcGBXGYsveJDKkDmRRCE-6" value="&lt;div&gt;include：1&lt;/div&gt;&lt;div&gt;&lt;br&gt;&lt;/div&gt;&lt;div&gt;namespace GLOBAL {&lt;/div&gt;&lt;div&gt;&amp;nbsp; &amp;nbsp; namespace PATH {&lt;/div&gt;&lt;div&gt;&amp;nbsp; &amp;nbsp; &amp;nbsp; &amp;nbsp; static const QString WORK = QDir::currentPath();&lt;/div&gt;&lt;div&gt;&amp;nbsp; &amp;nbsp; &amp;nbsp; &amp;nbsp; static const QString TMP = FileHelper::joinPath(WORK, &quot;temp&quot;);&lt;/div&gt;&lt;div&gt;&amp;nbsp; &amp;nbsp; &amp;nbsp; &amp;nbsp; static const QString LOG_DIR = FileHelper::joinPath(QDir::tempPath(), &quot;qos/logs&quot;);&lt;/div&gt;&lt;div&gt;&amp;nbsp; &amp;nbsp; &amp;nbsp; &amp;nbsp; static const QString ERROR_CODE_PATH = &quot;:/static/docs/errorcode.csv&quot;;&lt;/div&gt;&lt;div&gt;&lt;br&gt;&lt;/div&gt;&lt;div&gt;&amp;nbsp; &amp;nbsp; &amp;nbsp; &amp;nbsp; static const QString LOGO_PATH = &quot;:/static/imgs/logo.png&quot;;&lt;/div&gt;&lt;div&gt;&amp;nbsp; &amp;nbsp; &amp;nbsp; &amp;nbsp; static const QString MAX_PATH= &quot;:/static/imgs/Maximize-1.png&quot;;&lt;/div&gt;&lt;div&gt;&amp;nbsp; &amp;nbsp; &amp;nbsp; &amp;nbsp; static const QString MAX_HOVER_PATH = &quot;:/static/imgs/Maximize-2.png&quot;;&lt;/div&gt;&lt;div&gt;&amp;nbsp; &amp;nbsp; &amp;nbsp; &amp;nbsp; static const QString NORMAL_PATH = &quot;:/static/imgs/Maximize-3.png&quot;;&lt;/div&gt;&lt;div&gt;&amp;nbsp; &amp;nbsp; &amp;nbsp; &amp;nbsp; static const QString NORMAL_HOVER_PATH = &quot;:/static/imgs/Maximize-4.png&quot;;&lt;/div&gt;&lt;div&gt;&amp;nbsp; &amp;nbsp; &amp;nbsp; &amp;nbsp; static const QString MIN_PATH = &quot;:/static/imgs/Minimize-1.png&quot;;&lt;/div&gt;&lt;div&gt;&amp;nbsp; &amp;nbsp; &amp;nbsp; &amp;nbsp; static const QString MIN_HOVER_PATH = &quot;:/static/imgs/Minimize-2.png&quot;;&lt;/div&gt;&lt;div&gt;&lt;br&gt;&lt;/div&gt;&lt;div&gt;&amp;nbsp; &amp;nbsp; &amp;nbsp; &amp;nbsp; static const QString QUIT = &quot;:/static/imgs/Quit-1.png&quot;;&lt;/div&gt;&lt;div&gt;&amp;nbsp; &amp;nbsp; &amp;nbsp; &amp;nbsp; static const QString QUIT_HOVER = &quot;:/static/imgs/Quit-2.png&quot;;&lt;/div&gt;&lt;div&gt;&amp;nbsp; &amp;nbsp; &amp;nbsp; &amp;nbsp; static const QString TRANS = &quot;:/static/imgs/Trans-1.png&quot;;&lt;/div&gt;&lt;div&gt;&amp;nbsp; &amp;nbsp; &amp;nbsp; &amp;nbsp; static const QString TRANS_HOVER = &quot;:/static/imgs/Trans-2.png&quot;;&lt;/div&gt;&lt;div&gt;&amp;nbsp; &amp;nbsp; };&lt;/div&gt;&lt;div&gt;&lt;br&gt;&lt;/div&gt;&lt;div&gt;&amp;nbsp; &amp;nbsp; namespace SQLITE {&lt;/div&gt;&lt;div&gt;&amp;nbsp; &amp;nbsp; &amp;nbsp; &amp;nbsp; static const QString NAME = FileHelper::joinPath(PATH::TMP, &quot;cos.db&quot;);&lt;/div&gt;&lt;div&gt;&amp;nbsp; &amp;nbsp; };&lt;/div&gt;&lt;div&gt;&lt;br&gt;&lt;/div&gt;&lt;div&gt;&amp;nbsp; &amp;nbsp; namespace SQL {&lt;/div&gt;&lt;div&gt;&amp;nbsp; &amp;nbsp; &amp;nbsp; &amp;nbsp; static const QString LOGIN_INFO_TABLE = &quot;:/static/sql/login_info.sql&quot;;&lt;/div&gt;&lt;div&gt;&amp;nbsp; &amp;nbsp; };&lt;/div&gt;&lt;div&gt;&lt;br&gt;&lt;/div&gt;&lt;div&gt;&amp;nbsp; &amp;nbsp; namespace TABLES {&lt;/div&gt;&lt;div&gt;&amp;nbsp; &amp;nbsp; &amp;nbsp; &amp;nbsp; static const QString LOGIN_INFO = &quot;login_info&quot;;&lt;/div&gt;&lt;div&gt;&amp;nbsp; &amp;nbsp; };&lt;/div&gt;&lt;div&gt;&lt;br&gt;&lt;/div&gt;&lt;div&gt;&amp;nbsp; &amp;nbsp; namespace VERSION {&lt;/div&gt;&lt;div&gt;&amp;nbsp; &amp;nbsp; &amp;nbsp; &amp;nbsp; static const QString MAJOR_CUSTOM = &quot;custom&quot;;&lt;/div&gt;&lt;div&gt;&amp;nbsp; &amp;nbsp; &amp;nbsp; &amp;nbsp; static const QString MAJOR_BUSINESS = &quot;business&quot;;&lt;/div&gt;&lt;div&gt;&amp;nbsp; &amp;nbsp; &amp;nbsp; &amp;nbsp; static const QString JSON_PATH = &quot;:/static/versions/config_default.json&quot;;&lt;/div&gt;&lt;div&gt;&amp;nbsp; &amp;nbsp; };&lt;/div&gt;&lt;div&gt;&lt;br&gt;&lt;/div&gt;&lt;div&gt;&amp;nbsp; &amp;nbsp; namespace ENV {&lt;/div&gt;&lt;div&gt;&amp;nbsp; &amp;nbsp; &amp;nbsp; &amp;nbsp; static const QString ENV_DEV= &quot;dev&quot;;&lt;/div&gt;&lt;div&gt;&amp;nbsp; &amp;nbsp; &amp;nbsp; &amp;nbsp; static const QString ENV_ALPHA = &quot;alpha&quot;;&lt;/div&gt;&lt;div&gt;&amp;nbsp; &amp;nbsp; &amp;nbsp; &amp;nbsp; static const QString ENV_BETA = &quot;beta&quot;;&lt;/div&gt;&lt;div&gt;&amp;nbsp; &amp;nbsp; &amp;nbsp; &amp;nbsp; static const QString ENV_PRE = &quot;pre&quot;;&lt;/div&gt;&lt;div&gt;&amp;nbsp; &amp;nbsp; &amp;nbsp; &amp;nbsp; static const QString ENV_PROD = &quot;prod&quot;;&lt;/div&gt;&lt;div&gt;&amp;nbsp; &amp;nbsp; }&lt;/div&gt;&lt;div&gt;&lt;br&gt;&lt;/div&gt;&lt;div&gt;&amp;nbsp; &amp;nbsp; enum LOG_LEVEL {&lt;/div&gt;&lt;div&gt;&amp;nbsp; &amp;nbsp; &amp;nbsp; &amp;nbsp; TOTAL = 0,&lt;/div&gt;&lt;div&gt;&amp;nbsp; &amp;nbsp; &amp;nbsp; &amp;nbsp; DEBUG = 1,&lt;/div&gt;&lt;div&gt;&amp;nbsp; &amp;nbsp; &amp;nbsp; &amp;nbsp; INFO = 2,&lt;/div&gt;&lt;div&gt;&amp;nbsp; &amp;nbsp; &amp;nbsp; &amp;nbsp; WARNING = 3,&lt;/div&gt;&lt;div&gt;&amp;nbsp; &amp;nbsp; &amp;nbsp; &amp;nbsp; ERROR = 4,&lt;/div&gt;&lt;div&gt;&amp;nbsp; &amp;nbsp; &amp;nbsp; &amp;nbsp; FATAL = 5&lt;/div&gt;&lt;div&gt;&amp;nbsp; &amp;nbsp; };&lt;/div&gt;&lt;div&gt;&amp;nbsp; &amp;nbsp; static const QStringList LOG_NAMES&lt;/div&gt;&lt;div&gt;&amp;nbsp; &amp;nbsp; &amp;nbsp; &amp;nbsp; = QStringList() &amp;lt;&amp;lt; &quot;TOTAL&quot; &amp;lt;&amp;lt; &quot;DEBUG&quot; &amp;lt;&amp;lt; &quot;INFO&quot;&lt;/div&gt;&lt;div&gt;&amp;nbsp; &amp;nbsp; &amp;nbsp; &amp;nbsp; &amp;nbsp; &amp;nbsp; &amp;nbsp; &amp;nbsp; &amp;nbsp; &amp;nbsp; &amp;nbsp; &amp;nbsp; &amp;lt;&amp;lt; &quot;WARNING&quot; &amp;lt;&amp;lt; &quot;ERROR&quot; &amp;lt;&amp;lt; &quot;FATAL&quot;;&lt;/div&gt;&lt;div&gt;}&lt;/div&gt;" style="text;strokeColor=none;fillColor=none;align=left;verticalAlign=top;spacingLeft=4;spacingRight=4;overflow=hidden;rotatable=0;points=[[0,0.5],[1,0.5]];portConstraint=eastwest;whiteSpace=wrap;html=1;fontFamily=Helvetica;fontSize=16;fontColor=default;" parent="CcGBXGYsveJDKkDmRRCE-5" vertex="1">
          <mxGeometry y="26" width="650" height="1194" as="geometry" />
        </mxCell>
        <mxCell id="CcGBXGYsveJDKkDmRRCE-7" value="config（&lt;font style=&quot;&quot; color=&quot;#ff0000&quot;&gt;exceptions.h/.cpp&lt;/font&gt;）&lt;b&gt;BaseException&lt;/b&gt;" style="swimlane;fontStyle=0;childLayout=stackLayout;horizontal=1;startSize=26;fillColor=none;horizontalStack=0;resizeParent=1;resizeParentMax=0;resizeLast=0;collapsible=1;marginBottom=0;whiteSpace=wrap;html=1;strokeColor=default;align=center;verticalAlign=middle;fontFamily=Helvetica;fontSize=16;fontColor=default;" parent="1" vertex="1">
          <mxGeometry x="-310" y="1160" width="480" height="290" as="geometry" />
        </mxCell>
        <mxCell id="CcGBXGYsveJDKkDmRRCE-8" value="&lt;div&gt;include：2&lt;/div&gt;&lt;div&gt;&lt;br&gt;&lt;/div&gt;&lt;div&gt;&lt;div&gt;- m_code; QString&lt;/div&gt;&lt;div&gt;- m_msg; QString&lt;/div&gt;&lt;/div&gt;&lt;div&gt;&lt;br&gt;&lt;/div&gt;&lt;div&gt;&lt;div&gt;+ BaseException(const QString&amp;amp; code, const QString&amp;amp; msg);&lt;/div&gt;&lt;div&gt;&lt;br&gt;&lt;/div&gt;&lt;div&gt;+ parseErrorCode(const QString&amp;amp; csvPath); static ErrorMap&lt;/div&gt;&lt;div&gt;+ generateErrorCodeHFile(const QString&amp;amp; csvPath,&amp;nbsp;&lt;/div&gt;&lt;div&gt;&amp;nbsp; &amp;nbsp; &amp;nbsp; &amp;nbsp; &amp;nbsp; &amp;nbsp; &amp;nbsp; &amp;nbsp; &amp;nbsp; &amp;nbsp; &amp;nbsp; &amp;nbsp; &amp;nbsp; &amp;nbsp; &amp;nbsp; &amp;nbsp; &amp;nbsp; &amp;nbsp; &amp;nbsp; &amp;nbsp; &amp;nbsp; &amp;nbsp; const QString &amp;amp;targetPath); static void&lt;/div&gt;&lt;div&gt;&lt;br&gt;&lt;/div&gt;&lt;div&gt;+ msg() const; QString&lt;/div&gt;&lt;div&gt;+ code() const; QString&lt;/div&gt;&lt;div&gt;&lt;br&gt;&lt;/div&gt;&lt;/div&gt;" style="text;strokeColor=none;fillColor=none;align=left;verticalAlign=top;spacingLeft=4;spacingRight=4;overflow=hidden;rotatable=0;points=[[0,0.5],[1,0.5]];portConstraint=eastwest;whiteSpace=wrap;html=1;fontFamily=Helvetica;fontSize=16;fontColor=default;" parent="CcGBXGYsveJDKkDmRRCE-7" vertex="1">
          <mxGeometry y="26" width="480" height="264" as="geometry" />
        </mxCell>
        <mxCell id="CcGBXGYsveJDKkDmRRCE-9" value="config（&lt;font style=&quot;&quot; color=&quot;#ff0000&quot;&gt;loggerproxy.h/.cpp&lt;/font&gt;）&lt;b&gt;LoggerProxy&lt;/b&gt;: public QObject" style="swimlane;fontStyle=0;childLayout=stackLayout;horizontal=1;startSize=26;fillColor=none;horizontalStack=0;resizeParent=1;resizeParentMax=0;resizeLast=0;collapsible=1;marginBottom=0;whiteSpace=wrap;html=1;strokeColor=default;align=center;verticalAlign=middle;fontFamily=Helvetica;fontSize=16;fontColor=default;" parent="1" vertex="1">
          <mxGeometry x="330" y="1160" width="640" height="550" as="geometry" />
        </mxCell>
        <mxCell id="CcGBXGYsveJDKkDmRRCE-10" value="&lt;div&gt;include：3&lt;/div&gt;&lt;div&gt;&lt;br&gt;&lt;/div&gt;&lt;div&gt;- m_logger; BasicLogger* = nullptr&lt;/div&gt;&lt;div&gt;- m_level; GLOBAL::LOG_LEVEL&lt;/div&gt;&lt;div&gt;- m_file; QString&lt;/div&gt;&lt;div&gt;- m_line; int&lt;/div&gt;&lt;div&gt;- m_func; QString&lt;/div&gt;&lt;div&gt;&lt;br&gt;&lt;/div&gt;&lt;div&gt;+ LoggerProxy(QObject *parent = nullptr); explicit&lt;/div&gt;&lt;div&gt;+ ~LoggerProxy();&lt;/div&gt;&lt;div&gt;&lt;br&gt;&lt;/div&gt;&lt;div&gt;+ reset(const QString&amp;amp; file, int line, const QString&amp;amp; func); const LoggerProxy&amp;amp;&lt;/div&gt;&lt;div&gt;&lt;br&gt;&lt;/div&gt;&lt;div&gt;+ total(const QVariant&amp;amp; var, bool up=false) const; void&lt;/div&gt;&lt;div&gt;+ debug(const QVariant&amp;amp; var, bool up=false) const; void&lt;/div&gt;&lt;div&gt;+ info(const QVariant&amp;amp; var, bool up=false) const; void&lt;/div&gt;&lt;div&gt;+ warning(const QVariant&amp;amp; var, bool up=false) const; void&lt;/div&gt;&lt;div&gt;+ error(const QVariant&amp;amp; var, bool up=true) const; void&lt;/div&gt;&lt;div&gt;+ fatal(const QVariant&amp;amp; var, bool up=true) const; void&lt;/div&gt;&lt;div&gt;&lt;br&gt;&lt;/div&gt;&lt;div&gt;+ setLevel(GLOBAL::LOG_LEVEL newLevel); void&lt;/div&gt;&lt;div&gt;+ setLogger(BasicLogger *newLogger); void&lt;/div&gt;&lt;div&gt;&lt;br&gt;&lt;/div&gt;&lt;div&gt;- sigLog(const QString&amp;amp; file, int line, const QString&amp;amp; func, void* tid,&amp;nbsp;&lt;/div&gt;&lt;div&gt;&lt;span style=&quot;white-space: pre;&quot;&gt;&#x9;&lt;/span&gt;&amp;nbsp; &amp;nbsp; &amp;nbsp; int level, const QVariant&amp;amp; var, bool up) const; void signals&lt;/div&gt;&lt;div&gt;- doLog(GLOBAL::LOG_LEVEL level, const QVariant&amp;amp; var, bool up) const; void&lt;br&gt;&lt;/div&gt;&lt;div&gt;&lt;br&gt;&lt;/div&gt;" style="text;strokeColor=none;fillColor=none;align=left;verticalAlign=top;spacingLeft=4;spacingRight=4;overflow=hidden;rotatable=0;points=[[0,0.5],[1,0.5]];portConstraint=eastwest;whiteSpace=wrap;html=1;fontFamily=Helvetica;fontSize=16;fontColor=default;" parent="CcGBXGYsveJDKkDmRRCE-9" vertex="1">
          <mxGeometry y="26" width="640" height="524" as="geometry" />
        </mxCell>
        <mxCell id="CcGBXGYsveJDKkDmRRCE-11" value="&lt;font style=&quot;font-size: 72px;&quot;&gt;config&lt;/font&gt;" style="text;html=1;align=center;verticalAlign=middle;resizable=0;points=[];autosize=1;strokeColor=none;fillColor=none;" parent="1" vertex="1">
          <mxGeometry x="-680" y="1255" width="220" height="100" as="geometry" />
        </mxCell>
        <mxCell id="CcGBXGYsveJDKkDmRRCE-12" value="&lt;font style=&quot;font-size: 72px;&quot;&gt;config&lt;/font&gt;" style="text;html=1;align=center;verticalAlign=middle;resizable=0;points=[];autosize=1;strokeColor=none;fillColor=none;" parent="1" vertex="1">
          <mxGeometry x="-680" y="750" width="220" height="100" as="geometry" />
        </mxCell>
      </root>
    </mxGraphModel>
  </diagram>
  <diagram id="ZykuDvqdxAXcEL7UU7WE" name="helper">
    <mxGraphModel dx="861" dy="350" grid="1" gridSize="10" guides="1" tooltips="1" connect="1" arrows="1" fold="1" page="0" pageScale="1" pageWidth="827" pageHeight="1169" math="0" shadow="0">
      <root>
        <mxCell id="0" />
        <mxCell id="1" parent="0" />
        <mxCell id="wGSALUVD9TX4WcdhVgWs-1" value="helper（&lt;font color=&quot;#ff0000&quot;&gt;bytehelper.h/.cpp&lt;/font&gt;）&lt;b&gt;ByteHelper&lt;/b&gt;" style="swimlane;fontStyle=0;childLayout=stackLayout;horizontal=1;startSize=26;fillColor=none;horizontalStack=0;resizeParent=1;resizeParentMax=0;resizeLast=0;collapsible=1;marginBottom=0;whiteSpace=wrap;html=1;strokeColor=default;align=center;verticalAlign=middle;fontFamily=Helvetica;fontSize=16;fontColor=default;" parent="1" vertex="1">
          <mxGeometry x="160" y="540" width="370" height="100" as="geometry" />
        </mxCell>
        <mxCell id="wGSALUVD9TX4WcdhVgWs-2" value="&lt;div&gt;include：0&lt;/div&gt;&lt;div&gt;&lt;br&gt;&lt;/div&gt;+ toBeautifulStr(qulonglong bytes); static QString&amp;nbsp;" style="text;strokeColor=none;fillColor=none;align=left;verticalAlign=top;spacingLeft=4;spacingRight=4;overflow=hidden;rotatable=0;points=[[0,0.5],[1,0.5]];portConstraint=eastwest;whiteSpace=wrap;html=1;fontFamily=Helvetica;fontSize=16;fontColor=default;" parent="wGSALUVD9TX4WcdhVgWs-1" vertex="1">
          <mxGeometry y="26" width="370" height="74" as="geometry" />
        </mxCell>
        <mxCell id="wGSALUVD9TX4WcdhVgWs-5" value="helper（&lt;font color=&quot;#ff0000&quot;&gt;dbsqlite.h/.cpp&lt;/font&gt;）&lt;b&gt;DbSqlite&lt;/b&gt;" style="swimlane;fontStyle=0;childLayout=stackLayout;horizontal=1;startSize=26;fillColor=none;horizontalStack=0;resizeParent=1;resizeParentMax=0;resizeLast=0;collapsible=1;marginBottom=0;whiteSpace=wrap;html=1;strokeColor=default;align=center;verticalAlign=middle;fontFamily=Helvetica;fontSize=16;fontColor=default;" parent="1" vertex="1">
          <mxGeometry x="160" y="670" width="520" height="310" as="geometry" />
        </mxCell>
        <mxCell id="wGSALUVD9TX4WcdhVgWs-6" value="&lt;div&gt;include：1&lt;/div&gt;&lt;div&gt;&lt;br&gt;&lt;/div&gt;&lt;div&gt;- m_db; QSqlDatabase&lt;/div&gt;&lt;div&gt;&lt;br&gt;&lt;/div&gt;&lt;div&gt;+ DbSqlite();&lt;/div&gt;&lt;div&gt;+ ~DbSqlite();&lt;/div&gt;&lt;div&gt;&lt;br&gt;&lt;/div&gt;&lt;div&gt;+ connect(const QString&amp;amp; dbPath); void&lt;/div&gt;&lt;div&gt;+ exec(const QString&amp;amp; sql); QSqlQuery&lt;/div&gt;&lt;div&gt;+ exec(const QString&amp;amp; sql, const QVariantList &amp;amp;variantList); QSqlQuery&lt;/div&gt;&lt;div&gt;+ exists(const QString&amp;amp; sql); bool&lt;/div&gt;&lt;div&gt;+ select(const QString &amp;amp;sql); QList&amp;lt;RECORD&amp;gt;&lt;/div&gt;&lt;div&gt;&lt;br&gt;&lt;/div&gt;&lt;div&gt;typedef QMap&amp;lt;QString, QVariant&amp;gt; RECORD;&lt;br&gt;&lt;/div&gt;" style="text;strokeColor=none;fillColor=none;align=left;verticalAlign=top;spacingLeft=4;spacingRight=4;overflow=hidden;rotatable=0;points=[[0,0.5],[1,0.5]];portConstraint=eastwest;whiteSpace=wrap;html=1;fontFamily=Helvetica;fontSize=16;fontColor=default;" parent="wGSALUVD9TX4WcdhVgWs-5" vertex="1">
          <mxGeometry y="26" width="520" height="284" as="geometry" />
        </mxCell>
        <mxCell id="wGSALUVD9TX4WcdhVgWs-7" value="helper（&lt;font color=&quot;#ff0000&quot;&gt;filehelper.h/.cpp&lt;/font&gt;）&lt;b&gt;FileHelper&lt;/b&gt;" style="swimlane;fontStyle=0;childLayout=stackLayout;horizontal=1;startSize=26;fillColor=none;horizontalStack=0;resizeParent=1;resizeParentMax=0;resizeLast=0;collapsible=1;marginBottom=0;whiteSpace=wrap;html=1;strokeColor=default;align=center;verticalAlign=middle;fontFamily=Helvetica;fontSize=16;fontColor=default;" parent="1" vertex="1">
          <mxGeometry x="160" y="1010" width="520" height="270" as="geometry" />
        </mxCell>
        <mxCell id="wGSALUVD9TX4WcdhVgWs-8" value="&lt;div&gt;include：0&lt;/div&gt;&lt;div&gt;&lt;br&gt;&lt;/div&gt;&lt;div&gt;+ FileHelper();&lt;/div&gt;&lt;div&gt;&lt;br&gt;&lt;/div&gt;&lt;div&gt;+ readAllTxt(const QString&amp;amp; filePath); static QString&lt;/div&gt;&lt;div&gt;+ readAllJson(const QString&amp;amp; filePath); static QVariant&lt;/div&gt;&lt;div&gt;+ readAllCsv(const QString&amp;amp; filePath); static QList&amp;lt;QStringList&amp;gt;&lt;/div&gt;&lt;div&gt;+ generateExceptionFile(const QString&amp;amp; filePath); static void&lt;/div&gt;&lt;div&gt;+ writeFlie(const QStringList lines, const QString&amp;amp; filePath); static void&lt;/div&gt;&lt;div&gt;&lt;br&gt;&lt;/div&gt;&lt;div&gt;+ joinPath(const QString&amp;amp; path1, const QString&amp;amp; path2); static QString&lt;/div&gt;&lt;div&gt;+ mkPath(const QString&amp;amp; path); static bool&lt;/div&gt;" style="text;strokeColor=none;fillColor=none;align=left;verticalAlign=top;spacingLeft=4;spacingRight=4;overflow=hidden;rotatable=0;points=[[0,0.5],[1,0.5]];portConstraint=eastwest;whiteSpace=wrap;html=1;fontFamily=Helvetica;fontSize=16;fontColor=default;" parent="wGSALUVD9TX4WcdhVgWs-7" vertex="1">
          <mxGeometry y="26" width="520" height="244" as="geometry" />
        </mxCell>
        <mxCell id="wGSALUVD9TX4WcdhVgWs-9" value="&lt;font style=&quot;font-size: 18px;&quot;&gt;helper&lt;/font&gt;" style="text;html=1;align=center;verticalAlign=middle;resizable=0;points=[];autosize=1;strokeColor=none;fillColor=none;" parent="1" vertex="1">
          <mxGeometry x="30" y="570" width="70" height="40" as="geometry" />
        </mxCell>
        <mxCell id="wGSALUVD9TX4WcdhVgWs-12" value="&lt;font style=&quot;font-size: 18px;&quot;&gt;helper&lt;/font&gt;" style="text;html=1;align=center;verticalAlign=middle;resizable=0;points=[];autosize=1;strokeColor=none;fillColor=none;" parent="1" vertex="1">
          <mxGeometry x="30" y="795" width="70" height="40" as="geometry" />
        </mxCell>
        <mxCell id="wGSALUVD9TX4WcdhVgWs-13" value="&lt;font style=&quot;font-size: 18px;&quot;&gt;helper&lt;/font&gt;" style="text;html=1;align=center;verticalAlign=middle;resizable=0;points=[];autosize=1;strokeColor=none;fillColor=none;" parent="1" vertex="1">
          <mxGeometry x="30" y="1140" width="70" height="40" as="geometry" />
        </mxCell>
      </root>
    </mxGraphModel>
  </diagram>
</mxfile>
